<svg xmlns="http://www.w3.org/2000/svg" viewBox="0 0 96 96"><circle cx="48" cy="48" r="48" fill="#ff8300"/><path d="M64.62,18.16a46.26,46.26,0,0,0-5.09,6L59.05,24a34.44,34.44,0,0,0-8.53-1.65c-.87-.07-4.12-.07-5.18,0A30.45,30.45,0,0,0,36.89,24l-.31.11a45.4,45.4,0,0,0-5.25-6,36.51,36.51,0,0,1,29.8-1.58c1,.39,2,.85,3,1.34Z" fill="#f00500"/><path d="M81.9,60.49a35.12,35.12,0,0,1-6.25,11,38.82,38.82,0,0,1-4.89,4.79,36.16,36.16,0,0,1-14.1,7,37,37,0,0,1-17.32,0,36.16,36.16,0,0,1-14.1-7,38.82,38.82,0,0,1-4.89-4.79A34.48,34.48,0,0,1,14.1,37.88,35.86,35.86,0,0,1,17,31.74c.52-.89,1.17-1.9,1.48-2.31,1.08,4.61,2.39,8.66,2.88,10.12a1.15,1.15,0,0,1-.12.25A40.49,40.49,0,0,0,16.9,55.55v.21a9.49,9.49,0,0,0,.22,3.4c.84,3.18,3.42,6.69,7.46,10.13C31.14,74.91,40.11,79,46.91,79.44c7.08.48,17.54-3.66,24.51-9.71a35.92,35.92,0,0,0,3.08-3.09,16.66,16.66,0,0,0,1.64-2.19h0s.07-.06,0-.08,0,0,0-.06.06,0,0,0,0,0,0-.06v-.06h0v-.06a0,0,0,0,1,0,0h0a1.28,1.28,0,0,1,.15-.25c.16-.26.83-1.45.92-1.65a15.58,15.58,0,0,0,1.23-4,12.13,12.13,0,0,0,.1-2v-.25a5.62,5.62,0,0,0-.06-.89c0-.5-.06-1.2-.1-1.55A32.6,32.6,0,0,0,74.2,39.9a4.16,4.16,0,0,1-.24-.47v-.09h0c.35-1,1.76-5.38,2.89-10.35h0l.17.23c.29.39,1.06,1.55,1.41,2.11A34.31,34.31,0,0,1,81.9,60.49Z" fill="#f00500"/><path d="M67.41,47.15a3.81,3.81,0,0,1-1.08,1.11,18.92,18.92,0,0,1-7.1,2.68,8.73,8.73,0,0,1-3.67.1c-.32-.16-.36-.28-.25-.68a5.48,5.48,0,0,1,2.18-2.62c.6-.43,3-1.92,4.18-2.54a15,15,0,0,1,4.42-1.79,2.37,2.37,0,0,1,.84,0c.2.08.42.67.51,1.39A15.37,15.37,0,0,1,67.41,47.15Z"/><path d="M41.11,50.85a1.2,1.2,0,0,1-.78.33,13.47,13.47,0,0,1-2.2,0,23,23,0,0,1-6.7-1.94,8.36,8.36,0,0,1-2.31-1.55l-.32-.32V47a11.15,11.15,0,0,1,0-2.31,3.22,3.22,0,0,1,.35-1c.09-.11.09-.11.49-.11a4.9,4.9,0,0,1,1.57.29,31.06,31.06,0,0,1,5.91,3c2,1.23,2.82,1.83,3.41,2.65A2.23,2.23,0,0,1,41.11,50.85Z"/><path d="M56.92,66.38l-.3,1.21c-.16.64-.3,1.15-.3,1.17H55.6l-.49,1.16-.55,1.32-.06.16-.24-.4L54,70.65V67.56h-.09c-.19,0-1.54.22-2.13.28a30.56,30.56,0,0,1-7.34-.16c-.24,0-.49-.07-.73-.09v3.19l-.19.29c-.1.16-.2.29-.2.3a2.59,2.59,0,0,1-.4-.65,7.89,7.89,0,0,1-.63-1.7l-.07-.32h-.7l-.08-.41c0-.22-.1-.57-.13-.76v-.36L41.07,67l-.37-.32a.21.21,0,0,1-.08-.19v-.13h2.79l.05.15v.14h.48c.27,0,1.12,0,1.88.06h1.39l.36-.55.37-.56h.47V63.34l-.61-.27c-2-.87-3.14-1.87-3.57-3.07a4.15,4.15,0,0,1-.11-1.45,5,5,0,0,1,.06-1.45A1.65,1.65,0,0,1,45.34,56a26.44,26.44,0,0,1,3.33-.06h3.1l.35.17a2,2,0,0,1,.84.66,1.93,1.93,0,0,1,.34,1.32,9.57,9.57,0,0,1-.17,2.14,4.39,4.39,0,0,1-.64,1.28A6,6,0,0,1,50,63.24l-.27.1v2.34h.49l.34.51.32.5H54c.06,0,.14,0,.25-.18l.13-.2h1.29A4.43,4.43,0,0,1,56.92,66.38Z"/><path d="M51,69.59c-.21.12-.35.18-.39.15a3,3,0,0,1-.35-.27l-.3-.24-.32.33c-.68.74-.7.77-.9.79s-.38,0-.76-.6l-.36-.53H47l-.15.3-.14.3-.26-.07a6.07,6.07,0,0,1-.59-.24l-.34-.17v-.63h5.94V69C51.5,69.32,51.52,69.31,51,69.59Z"/><path d="M78.93,56v-.25a23.76,23.76,0,0,0-17.43,5.4s-2.29-10.5-13-10.5-14.69,10.5-14.69,10.5c-6-6.47-14-6-16.94-5.57v.21a9.49,9.49,0,0,0,.22,3.4c.84,3.18,3.42,6.69,7.46,10.13C31.14,74.91,40.11,79,46.91,79.44c7.08.48,17.54-3.66,24.51-9.71a35.92,35.92,0,0,0,3.08-3.09,16.66,16.66,0,0,0,1.64-2.19h0s.07-.06,0-.08,0,0,0-.06.06,0,0,0,0,0,0-.06v-.06h0v-.06a0,0,0,0,1,0,0h0a1.28,1.28,0,0,1,.15-.25c.16-.26.83-1.45.92-1.65a15.58,15.58,0,0,0,1.23-4A14.51,14.51,0,0,0,78.93,56ZM51,69.59c-.21.12-.35.18-.39.15a3,3,0,0,1-.35-.27l-.3-.24-.32.33c-.68.74-.7.77-.9.79s-.38,0-.76-.6l-.36-.53H47l-.15.3-.14.3-.26-.07a6.07,6.07,0,0,1-.59-.24l-.34-.17v-.63h5.94V69C51.5,69.32,51.52,69.31,51,69.59Zm5.59-2c-.17.63-.31,1.15-.31,1.17h-.71l-.48,1.17-.55,1.32-.06.16L54.26,71,54,70.65V67.56h-.09c-.19,0-1.54.22-2.13.28a30.56,30.56,0,0,1-7.34-.16c-.24,0-.49-.07-.73-.09v3.19l-.19.29c-.1.16-.2.29-.2.3a2.59,2.59,0,0,1-.4-.65,7.89,7.89,0,0,1-.63-1.7l-.07-.32h-.7l-.08-.41c0-.22-.1-.57-.13-.76v-.36L41.07,67l-.37-.32a.21.21,0,0,1-.08-.19v-.13h2.79l.05.15v.14h.48c.27,0,1.12,0,1.88.06h1.39l.36-.55.37-.56h.47V63.34l-.61-.27c-2-.87-3.14-1.87-3.57-3.07a4.15,4.15,0,0,1-.11-1.45,5,5,0,0,1,.06-1.45A1.65,1.65,0,0,1,45.34,56a26.44,26.44,0,0,1,3.33-.06h3.1l.35.17a2,2,0,0,1,.84.66,1.93,1.93,0,0,1,.34,1.32,9.57,9.57,0,0,1-.17,2.14,4.39,4.39,0,0,1-.64,1.28A6,6,0,0,1,50,63.24l-.27.1v2.34h.49l.34.51.32.5H54c.06,0,.14,0,.25-.18l.13-.2h1.29a4.57,4.57,0,0,1,1.28,0,7,7,0,0,0-.33,1.27Z" fill="#fff"/><path d="M16.83,55.55a10.52,10.52,0,0,0-1.12.21" fill="none"/><path d="M79.9,55.87s-.36-.08-1-.15" fill="none"/><path d="M78.84,54.83c0-.5-.07-1.2-.1-1.55a32.79,32.79,0,0,0-4.23-13.59c-.1-.17-.19-.34-.25-.47v-.09h0c.34-1,1.76-5.38,2.89-10.35,1.53-6.74,2.5-14.62-.47-17,0,0-5.13-.38-12,6.37a46.26,46.26,0,0,0-5.09,6L59.06,24a34.44,34.44,0,0,0-8.53-1.65c-.87-.07-4.11-.07-5.17,0A29.74,29.74,0,0,0,36.91,24l-.32.11a45.4,45.4,0,0,0-5.25-6c-7.16-6.78-12.48-6.39-12.48-6.39-3.15,2.45-2.08,10.68-.45,17.65C19.48,34,20.8,38,21.29,39.5c0,.08-.08.17-.12.25A40.49,40.49,0,0,0,16.83,55.5c2.91-.43,10.93-.91,17,5.57,0,0,4-10.5,14.69-10.5s13,10.5,13,10.5a23.83,23.83,0,0,1,17.42-5.4A3.92,3.92,0,0,1,78.84,54.83ZM23.4,35.34S19.23,24.91,20.3,19h0a5.69,5.69,0,0,1,1-2.56s4.73.47,12.36,9a22.87,22.87,0,0,0-3.39,2.2h0a27,27,0,0,0-6.89,7.79ZM41.11,50.85a1.2,1.2,0,0,1-.78.33,13.47,13.47,0,0,1-2.2,0,23,23,0,0,1-6.7-1.94,8.36,8.36,0,0,1-2.31-1.55l-.32-.32V47a11.15,11.15,0,0,1,0-2.31,3.22,3.22,0,0,1,.35-1c.09-.11.09-.11.49-.11a4.9,4.9,0,0,1,1.57.29,31.06,31.06,0,0,1,5.91,3c2,1.23,2.82,1.83,3.41,2.65A2.23,2.23,0,0,1,41.11,50.85Zm26.3-3.7a3.81,3.81,0,0,1-1.08,1.11,18.92,18.92,0,0,1-7.1,2.68,8.73,8.73,0,0,1-3.67.1c-.32-.16-.36-.28-.25-.68a5.48,5.48,0,0,1,2.18-2.62c.6-.43,3-1.92,4.18-2.54a15,15,0,0,1,4.42-1.79,2.37,2.37,0,0,1,.84,0c.2.08.42.67.51,1.39A15.37,15.37,0,0,1,67.41,47.15ZM65.56,27.54h0a21.35,21.35,0,0,0-3.28-2.2c7.38-8.48,12-8.95,12-8.95a6.1,6.1,0,0,1,1,2.56h0c1,6-3,16.4-3,16.4a26.78,26.78,0,0,0-6.65-7.8Z" fill="#ffa409"/><path d="M59.53,24.19a.16.16,0,0,1-.06.08" fill="none"/><path d="M74.21,39.12a1.55,1.55,0,0,0-.08.23" fill="none"/><path d="M75.21,18.94c-.87-.11-5-.14-9.65,8.6h0a21.35,21.35,0,0,0-3.28-2.2c7.38-8.48,12-8.95,12-8.95A6,6,0,0,1,75.21,18.94Z" fill="#ff9300"/><path d="M72.22,35.34a26.55,26.55,0,0,0-6.66-7.8c4.66-8.74,8.77-8.71,9.65-8.6h0C76.25,24.91,72.22,35.34,72.22,35.34Z" fill="#ff8300"/><path d="M75.38,19h0Z" fill="#ff8300"/><path d="M36.93,24.63c-.11-.16-.24-.31-.35-.47" fill="none"/><path d="M21.29,39.55c.12.38.2.58.2.58" fill="none"/><path d="M33.7,25.33a22.87,22.87,0,0,0-3.39,2.2h0c-4.84-8.75-9.09-8.71-10-8.6a5.8,5.8,0,0,1,1-2.56S26.07,16.85,33.7,25.33Z" fill="#ff9300"/><path d="M30.3,27.54a27,27,0,0,0-6.9,7.8s-4.17-10.43-3.1-16.4h0C21.2,18.83,25.47,18.8,30.3,27.54Z" fill="#ff8300"/><path d="M20.3,18.94h0Z" fill="#ff8300"/><path d="M60.92,41.14s-3.57.22-3.12-2.57a3.68,3.68,0,0,1,4-3c.78.11,3.9,1.22,3.35,3.57s-1.34,1.89-1.79,2A16.56,16.56,0,0,1,60.92,41.14Z" fill="#fff"/><path d="M34.58,41.14s-3.57.22-3.12-2.57a3.68,3.68,0,0,1,4-3c.78.11,3.9,1.22,3.35,3.57S37.49,41,37,41.14A19.54,19.54,0,0,1,34.58,41.14Z" fill="#fff"/></svg>