<svg xmlns="http://www.w3.org/2000/svg" viewBox="0 0 96 96"><path d="M48,96A48,48,0,1,0,0,48,48,48,0,0,0,48,96Z" fill="#2775ca"/><path d="M39.45,81.61a1.44,1.44,0,0,1-2,1.43,36,36,0,0,1,0-68.56,1.42,1.42,0,0,1,2,1.43v2.81a2.23,2.23,0,0,1-1.33,1.91,29.94,29.94,0,0,0,.06,56.26A2.26,2.26,0,0,1,39.5,78.8v2.81Z" fill="#fff"/><path d="M51.11,70.52A1.48,1.48,0,0,1,49.63,72h-3a1.48,1.48,0,0,1-1.48-1.48V65.75c-6.57-.9-9.75-4.56-10.6-9.54A1.41,1.41,0,0,1,36,54.57h3.39a1.56,1.56,0,0,1,1.48,1.22c.64,3,2.34,5.24,7.63,5.24,3.87,0,6.63-2.17,6.63-5.4s-1.65-4.45-7.31-5.4c-8.43-1.06-12.4-3.61-12.4-10.23,0-5.09,3.81-9,9.8-9.85V25.48A1.48,1.48,0,0,1,46.66,24h3a1.48,1.48,0,0,1,1.48,1.48v4.77c4.82.85,7.9,3.6,8.9,8.16a1.39,1.39,0,0,1-1.37,1.7H55.46A1.52,1.52,0,0,1,54,39c-.85-2.91-2.92-4.13-6.52-4.13-4,0-6,1.91-6,4.61,0,2.86,1.17,4.29,7.26,5.14,8.26,1.11,12.5,3.5,12.5,10.49,0,5.35-4,9.64-10.12,10.65Z" fill="#fff"/><path d="M58.65,83.11a1.42,1.42,0,0,1-2-1.43V78.87A2.06,2.06,0,0,1,58,77,29.95,29.95,0,0,0,58,20.65a2.26,2.26,0,0,1-1.32-1.91V15.93a1.42,1.42,0,0,1,2-1.43,36,36,0,0,1,0,68.61Z" fill="#fff"/></svg>