<svg xmlns="http://www.w3.org/2000/svg" viewBox="0 0 800 800"><path d="M400,800h0C180,800,0,620,0,400H0C0,180,180,0,400,0h0C620,0,800,180,800,400h0C800,620,620,800,400,800Z" fill="#002868"/><path d="M601.6,640H198.4A38.51,38.51,0,0,1,160,601.6V198.4A38.51,38.51,0,0,1,198.4,160H601.6A38.51,38.51,0,0,1,640,198.4V601.6A38.51,38.51,0,0,1,601.6,640Z" fill="#fff"/><path d="M253.66,591.68a2.4,2.4,0,0,1-2.28-2.42V524.77a2.4,2.4,0,0,0-2.29-2.42H226.32a2.39,2.39,0,0,1-2.42-2.29V507.6a2.53,2.53,0,0,1,2.42-2.42H296.4a2.51,2.51,0,0,1,2.42,2.42v12.46a2.4,2.4,0,0,1-2.42,2.29H273.76a2.51,2.51,0,0,0-2.42,2.42v64.49a2.4,2.4,0,0,1-2.28,2.42Z" fill="#002868"/><path d="M368.77,507.6a2.4,2.4,0,0,1,2.29-2.42h15.26a2.51,2.51,0,0,1,2.42,2.42v44c0,26.08-14.76,41.21-38.16,41.21s-37.91-15.13-37.91-41.21v-44a2.41,2.41,0,0,1,2.29-2.42h15.26a2.5,2.5,0,0,1,2.42,2.42v44.64c0,12.85,6.61,22,18.06,22s18.07-9.15,18.07-22V507.6Z" fill="#002868"/><path d="M458.83,533.42c-2,0-2.67-.76-3.44-2.28C452.72,524.9,446.86,521,438,521c-8,0-14.75,2.8-14.75,8.14,0,5.86,6.24,8.28,20,9.92,20.87,2.42,32.82,8.79,32.82,25.32,0,18.57-16.29,28.36-37.14,28.36-18.06,0-33.58-8.78-36-27.21-.25-1.78.64-2.42,2.42-2.42h14a3.14,3.14,0,0,1,3.31,2.16c1.91,6.11,8.4,10.82,17.81,10.82,8.27,0,15.52-3.06,15.52-9.54,0-7.76-7.63-9.15-22.9-11.07-17.55-2.29-29.76-7.38-29.76-23.54s13.88-27.72,35.62-27.72c19.58,0,33.2,10.56,36,26.33.38,1.78-.13,2.93-2,2.93h-14Z" fill="#002868"/><path d="M493.3,591.68a2.4,2.4,0,0,1-2.29-2.42V507.6a2.4,2.4,0,0,1,2.29-2.42h34.59c25.69,0,45.66,17.68,45.66,43.51,0,25.44-19.71,43-45.66,43Zm34.59-17.18c13.87,0,24.67-11,24.67-26.08s-10.82-26.08-24.8-26.08H513.39a2.39,2.39,0,0,0-2.29,2.41v47.44a2.29,2.29,0,0,0,2.29,2.29h14.5Z" fill="#002868"/><path d="M627.2,457.6H172.8a6.42,6.42,0,0,1-6.4-6.4V198.4a32.09,32.09,0,0,1,32-32H601.6a32.09,32.09,0,0,1,32,32V451.2A6.42,6.42,0,0,1,627.2,457.6Z" fill="#002868"/><path d="M423.57,405.7H382a4.81,4.81,0,0,1-4.8-4.8v-176a4.81,4.81,0,0,1,4.8-4.8h41.6a4.81,4.81,0,0,1,4.8,4.8v176A4.81,4.81,0,0,1,423.57,405.7Z" fill="#fff"/><path d="M494.4,271.3H305.6a4.81,4.81,0,0,1-4.8-4.8V224.9a4.81,4.81,0,0,1,4.8-4.8H494.4a4.81,4.81,0,0,1,4.8,4.8v41.6A4.81,4.81,0,0,1,494.4,271.3Z" fill="#fff"/></svg>