<svg xmlns="http://www.w3.org/2000/svg" xmlns:xlink="http://www.w3.org/1999/xlink" viewBox="0 0 800 800"><defs><linearGradient id="a" x1="652.67" y1="642.56" x2="713.54" y2="722.98" gradientUnits="userSpaceOnUse"><stop offset="0" stop-color="#b43e62"/><stop offset="1" stop-color="#341c40"/></linearGradient></defs><circle cx="400" cy="400" r="400" fill="#f0b90b"/><path d="M250.83,400l-61.2,61.63L128,400l61.63-61.63ZM400,250.83l105.4,105.4L567,294.6l-105.4-105L400,128l-61.62,61.62-105,105L295,356.23Zm210.38,87.54L549.18,400l61.62,61.63L672,400ZM400,549.18,294.6,443.77,233.4,505.4,338.8,610.8,400,672l61.63-61.62L567,505,505.4,443.77Zm0-87.55L461.63,400,400,338.37,338.38,400Z" fill="#fffdfa"/><circle cx="696.35" cy="700.26" r="79.15" fill="url(#a)"/><path d="M702.69,742.48a41.62,41.62,0,1,1,29.39-12.18A41.61,41.61,0,0,1,702.69,742.48Zm0-80.11A38.63,38.63,0,1,0,730,673.67a38.61,38.61,0,0,0-27.26-11.3Z" fill="#fff"/><path d="M709,734.55a33,33,0,1,1,23.3-9.65,33,33,0,0,1-23.3,9.65Zm0-63.76a30.86,30.86,0,1,0,21.78,9,30.91,30.91,0,0,0-21.78-9Z" fill="#fff"/><path d="M715.38,726.62a24.39,24.39,0,1,1,17.22-7.14,24.37,24.37,0,0,1-17.22,7.14Zm0-47.42A23.11,23.11,0,1,0,731.69,686,23.12,23.12,0,0,0,715.38,679.2Z" fill="#fff"/><path d="M696.35,750.42a50.24,50.24,0,1,1,35.47-14.7A50.28,50.28,0,0,1,696.35,750.42Zm0-96.46a46.37,46.37,0,1,0,32.74,13.57A46.4,46.4,0,0,0,696.35,654Z" fill="#fff"/></svg>