<svg xmlns="http://www.w3.org/2000/svg" viewBox="0 0 800 800"><circle cx="400" cy="400" r="400" fill="#2b233b"/><path d="M445.25,363.18c0,29.43-45.89,25.86-60.45,25.86V337.2c14.59,0,60.45-4.61,60.45,26m12,80.47c0,32.15-55,28.48-72.49,28.48V415.2c17.52,0,72.49-5.1,72.49,28.58m36.2-92.07c-2.93-30.85-29.34-41-62.77-44.26v-42.3H405v41.46c-6.81,0-13.75,0-20.65.25V265.15H358.54v42.56H306.2v27.68s19.07-.33,18.79,0a13.34,13.34,0,0,1,14.66,11.37V463.31a9.12,9.12,0,0,1-9.65,8.56h0c.33.31-18.79,0-18.79,0l-5.1,30.93h52.14v43.34H384v-42.7h20.63v42.42h25.82V503.1c43.63-2.54,73.94-13.43,77.87-54.35,3.08-33-12.37-47.65-37.07-53.54,15-7.65,24.45-21.14,22.2-43.58" fill="#fff" fill-rule="evenodd"/><path d="M259.85,244.5a207.8,207.8,0,0,1,196.52-45.69l3,.84c1.48.44,2.93.9,4.38,1.38,2.09.66,4.19,1.38,6.22,2.12l2,.74c2.78,1,5.56,2.11,8.29,3.26l.33.15a234.78,234.78,0,0,1,59.94,37.33l11.37-12.29c-1.53-1.53-3.11-2.93-4.66-4.39a225.49,225.49,0,0,0-141.4-55h-8.93a235.34,235.34,0,0,0-50.15,6.11l-3.36.82-2.81.74a224.29,224.29,0,0,0-47.21,18.59,179.62,179.62,0,0,0-44.29,33.52Z" fill="#cecdd1"/><path d="M245.44,258.8,233,247.87c-84.75,88.82-72.41,233.36,0,302.25l12.75-10a208.11,208.11,0,0,1-.23-281.35Z" fill="#cecdd1"/><path d="M572.38,253.4c-2-2-4-4.05-6-6l-10.94,12c64.25,73,77.81,188.87,2,278.08l10.65,12.87a226.31,226.31,0,0,0,4.39-297Z" fill="#cecdd1"/><path d="M541.35,554.56c-7.4,5.53-14.74,10.6-22.11,15.29a207.48,207.48,0,0,1-90,35.9,186.63,186.63,0,0,1-50.13,1.17,207.57,207.57,0,0,1-114-48.13c-1.68-1.23-3.34-2.42-5.1-3.7l-11.75,10.53c41.12,40.61,97.5,60.14,153,60.12h4.26a225.46,225.46,0,0,0,140.46-53.87c1.78-1.69,3.59-3.34,5.3-5.1Z" fill="#cecdd1"/><path d="M399.9,152c137,0,248.09,111,248.15,248S537.1,648,400.1,648.05,152,537.1,152,400.1v-.2c.21-136.85,111.1-247.74,248-247.95m0-17.84c-146.85,0-265.85,119.14-265.79,266S253.25,666,400.1,665.89,666,546.75,665.89,399.9s-119.14-265.85-266-265.79Z" fill="#fff"/></svg>