<svg xmlns="http://www.w3.org/2000/svg" xmlns:xlink="http://www.w3.org/1999/xlink" viewBox="0 0 776 776"><defs><clipPath id="a" transform="translate(-12 -12)"><rect width="800" height="800" fill="none"/></clipPath><linearGradient id="b" x1="-596.36" y1="-99.69" x2="-597.1" y2="-99.06" gradientTransform="translate(463450 77502) scale(776)" gradientUnits="userSpaceOnUse"><stop offset="0" stop-color="#b6509e"/><stop offset="1" stop-color="#2ebac6"/></linearGradient></defs><g clip-path="url(#a)"><circle cx="388" cy="388" r="388" fill="url(#b)"/><path d="M569.8,554.6,438.6,237.4C431.2,221,420.2,213,405.7,213H394.1c-14.5,0-25.5,8-32.9,24.4L304.1,375.6H260.9a23.67,23.67,0,0,0-23.5,23.5v.3a23.73,23.73,0,0,0,23.5,23.5h23.2L229.6,554.6a27.51,27.51,0,0,0-1.6,9c0,7.4,2.3,13.2,6.4,17.7s10,6.7,17.4,6.7a23.26,23.26,0,0,0,13.5-4.5c4.2-2.9,7.1-7.1,9.4-11.9l60-148.8h41.6a23.67,23.67,0,0,0,23.5-23.5v-.6a23.73,23.73,0,0,0-23.5-23.5H354.1l45.8-114.1L524.7,571.5c2.3,4.8,5.2,9,9.4,11.9a23.5,23.5,0,0,0,13.5,4.5c7.4,0,13.2-2.2,17.4-6.7s6.4-10.3,6.4-17.7A21,21,0,0,0,569.8,554.6Z" transform="translate(-12 -12)" fill="#fff"/></g></svg>