<svg xmlns="http://www.w3.org/2000/svg" viewBox="0 0 800 800"><circle cx="400" cy="400" r="400" fill="#6747ed"/><path d="M394.17,451.67A106.67,106.67,0,1,1,500.83,345,106.34,106.34,0,0,1,394.17,451.67m0-266.67a160,160,0,1,1-160,160A160,160,0,0,1,394.17,185Zm152.5,328.33c10.83,10.84,10.83,27.5,0,37.5L440,657.5c-10.83,10.83-27.5,10.83-37.5,0-10.83-10.83-10.83-27.5,0-37.5L509.17,513.33A25.7,25.7,0,0,1,546.67,513.33Zm61.66-301.66A26.67,26.67,0,1,1,581.67,185,26.85,26.85,0,0,1,608.33,211.67Z" fill="#fff" fill-rule="evenodd"/></svg>