<svg xmlns="http://www.w3.org/2000/svg" xmlns:xlink="http://www.w3.org/1999/xlink" viewBox="0 0 96 96"><defs><linearGradient id="a" x1="96" y1="98" x2="0" y2="2" gradientTransform="matrix(1, 0, 0, -1, 0, 98)" gradientUnits="userSpaceOnUse"><stop offset="0" stop-color="#ffe8f1"/><stop offset="1" stop-color="#fdfefe"/></linearGradient></defs><path d="M48,96A48,48,0,1,0,0,48,48,48,0,0,0,48,96Z" fill="url(#a)"/><path d="M42.84,44.24a3.57,3.57,0,0,0,.6-1.24,4,4,0,0,0,.07-1.33l0-.32-.17-.21c-.76-.9-1.51-1.75-2.27-2.6l0,0-.84-.95L37,34l-6.33-7L18,13,29.92,27.68,35.86,35l3,3.68.63.79.06.07h0l1.68,2.12a1.07,1.07,0,0,1,.21.64,1,1,0,0,1-.24.63,1.52,1.52,0,0,1-.52.38,1.46,1.46,0,0,1-.62.12,1.32,1.32,0,0,1-.62-.15,1.61,1.61,0,0,1-.5-.4L27.14,28.32l8.19,14.79a1.36,1.36,0,0,1,.15.84,1.35,1.35,0,0,1-.4.75,4.94,4.94,0,0,0-1,1.31,8,8,0,0,0-.77,2.38c-.08.48-.14,1-.19,1.4h0c0,.25,0,.49-.08.7-.36,2.48-2,5-3.5,6.9l-.55.68a10.44,10.44,0,0,0-2.66,4.64,10,10,0,0,0,.91,5.93,14.23,14.23,0,0,0,1.16,2h0v0l.42.65h0c.12.21,1.22,2.09.72,2.16,5.14-.81,8.79-3.13,9.23-5.35.54-2.73-1.1-3.81-2.58-4.8a9.21,9.21,0,0,1-1.43-1.08,4.65,4.65,0,0,1-1.55-2.84,6.87,6.87,0,0,1,1.05-4h0c.12-.24.24-.48.36-.74a12.32,12.32,0,0,0,1.13-3.81c0-.32,0-.62.06-.91h0c0-.4,0-.77.09-1.13a5.89,5.89,0,0,1,.13-.71,2.29,2.29,0,0,1,.77-1.18,2.25,2.25,0,0,1,1.33-.5h0l.48,0a7.69,7.69,0,0,0,2.21-.59A4.81,4.81,0,0,0,42.84,44.24Z" fill="#ff007a"/><path d="M73.68,48v0a8.38,8.38,0,0,0-.65-1,5.32,5.32,0,0,0-2.91-2,12.71,12.71,0,0,0-2.37-.37L66,44.47h0l-.67,0a22.75,22.75,0,0,1-5.07-.74c-.42-.12-.83-.25-1.24-.41L58.35,43l-.63-.29a10.91,10.91,0,0,1-2.17-1.59,28.5,28.5,0,0,1-3.08-3.58h0l-.24-.31a43.61,43.61,0,0,0-3.07-3.83,14,14,0,0,0-3.77-3,13.1,13.1,0,0,0-4.69-1.35,11.1,11.1,0,0,1,5,.62,13.38,13.38,0,0,1,4.35,2.77A26.89,26.89,0,0,1,52.36,35,18.77,18.77,0,0,1,65.3,36.67l.08,0a17.15,17.15,0,0,1,3,2.06l.42.38a19.49,19.49,0,0,1,2,2.1l.05.06C72.71,43.8,73.68,46.39,73.68,48Z" fill="#ff007a"/><path d="M45,51.41c1.42-.13,4.45-.88,3.1-3.27A3,3,0,0,0,46.85,47a2.88,2.88,0,0,0-1.63-.31,2.76,2.76,0,0,0-1.55.67,2.87,2.87,0,0,0-.88,1.45C42.37,50.38,42.82,51.62,45,51.41Z" fill="#ff007a"/><path d="M66.71,54.65h0c4.72,1.92,9.25,3.77,9.06,8.27a10.09,10.09,0,0,0-3.17-14c-2.61-1.62-5.6-2-8.38-2.45h0c-3.07-.44-5.9-.84-7.69-2.77C55.69,50.15,61.32,52.45,66.71,54.65Z" fill="#ff007a"/><path d="M68.5,38.91l.25.24-.29-.27a.69.69,0,0,0-.13-.11l.15.13Z" fill="#ff007a"/><path d="M41,30.69a5.86,5.86,0,0,1,3.63,1.77,7.83,7.83,0,0,1,1.48,3.66c0,.17.06.33.1.5h0a13.85,13.85,0,0,0,.66,2.45,6.84,6.84,0,0,0,.44.85h0c.09.14.18.29.26.44a2.32,2.32,0,0,0,.29.43h0a2.41,2.41,0,0,1,.38.63.32.32,0,0,1,0,.17.35.35,0,0,1-.06.17c-.48.52-1.75-.06-2.23-.3a7.09,7.09,0,0,1-2.2-1.68,12.07,12.07,0,0,1-2.87-8.08A6.91,6.91,0,0,1,41,30.69Z" fill="#ff007a"/><path d="M66.72,65.4C64.5,62.15,62.27,58.87,63.65,55a36.44,36.44,0,0,0,3.26,1.91h0c3,1.61,6.21,3.36,7.54,6.57C76.57,68.55,74.15,75,69,77.08c2.63-4.42.16-8-2.32-11.68Z" fill="#ff007a"/><path d="M46.07,65.74a11.34,11.34,0,0,1,2.6-1.48,15.54,15.54,0,0,1,2.9-.85c.62-.11,1.23-.2,1.83-.29h0a16.45,16.45,0,0,0,3.72-.84,7,7,0,0,0,2.19-1.36,5.33,5.33,0,0,0,1.39-2.11,6.56,6.56,0,0,0,.36-2.64,9.66,9.66,0,0,0-.64-2.8A6.33,6.33,0,0,1,62,56.08a6.5,6.5,0,0,1,.1,3.13,6.13,6.13,0,0,1-1.6,2.89,7.35,7.35,0,0,1-2.76,1.72,11.34,11.34,0,0,1-3.05.63c-.64.06-1.26.09-1.88.11h0l-1.06.06A18.84,18.84,0,0,0,46.07,65.74Z" fill="#ff007a"/><path d="M64.64,80.33l.08-.06.07-.06,0,0a11.21,11.21,0,0,1-2.11.73,7.65,7.65,0,0,1-1.07.15h-.52l-.5-.07c-2.62-.46-3-3.09-3.27-5.38-.07-.5-.14-1-.22-1.42a11,11,0,0,0-.75-2.38,6.88,6.88,0,0,0-1.54-2.16,7.44,7.44,0,0,0-2.22-1.38,9.36,9.36,0,0,0-2.43-.63,12.36,12.36,0,0,0-4.84.37A18,18,0,0,0,41,69.86a23.17,23.17,0,0,0-3.68,2.77c.08-.08.58,0,.89.06h0l.21,0c.37,0,.73.11,1.09.18a10.22,10.22,0,0,1,2.1.65,9.2,9.2,0,0,1,2.6,1.91q.24.24.45.48a8.24,8.24,0,0,0,1.14,1.22l.32.27a4.36,4.36,0,0,0,2.11.92,3.66,3.66,0,0,0,1.64-.17,4.17,4.17,0,0,0,.74-.35,2.92,2.92,0,0,0,1.29-2,2.75,2.75,0,0,0-.14-1.5,1.89,1.89,0,0,0-1-1.05,1.79,1.79,0,0,1,.75,1.12,2.43,2.43,0,0,1-.1,1.31,2.31,2.31,0,0,1-.71,1,2.08,2.08,0,0,1-.51.32,3.83,3.83,0,0,1-.58.16A2.85,2.85,0,1,1,49,71.62a5.35,5.35,0,0,1,5,2.9,17.33,17.33,0,0,1,1.14,2.38c.21.51.43,1,.67,1.51.92,1.88,2.49,3.55,4.72,3.59a5.32,5.32,0,0,0,2.38-.54,10.2,10.2,0,0,0,1-.57C64.17,80.71,64.4,80.52,64.64,80.33Z" fill="#ff007a"/></svg>