<svg xmlns="http://www.w3.org/2000/svg" xmlns:xlink="http://www.w3.org/1999/xlink" viewBox="0 0 96 96"><defs><linearGradient id="a" x1="48.11" y1="12.11" x2="48.11" y2="83.89" gradientUnits="userSpaceOnUse"><stop offset="0" stop-color="#fff"/><stop offset="0.63" stop-color="#fffcfb"/><stop offset="1" stop-color="#fff8f5"/></linearGradient></defs><path d="M96.11,48a48,48,0,1,1-48-48A48,48,0,0,1,96.11,48Z" transform="translate(-0.11)" fill="#db5200"/><path d="M48.11.82A47.54,47.54,0,1,1,.57,48.35,47.53,47.53,0,0,1,48.11.82Z" transform="translate(-0.11)" fill="#dc5300"/><path d="M48.11,1.64A47.07,47.07,0,1,1,1,48.71,47.07,47.07,0,0,1,48.11,1.64Z" transform="translate(-0.11)" fill="#dc5400"/><path d="M48.11,2.46A46.61,46.61,0,1,1,1.5,49.07,46.61,46.61,0,0,1,48.11,2.46Z" transform="translate(-0.11)" fill="#d50"/><path d="M48.11,3.28A46.15,46.15,0,1,1,2,49.42,46.15,46.15,0,0,1,48.11,3.28Z" transform="translate(-0.11)" fill="#dd5600"/><path d="M48.11,4.09A45.69,45.69,0,1,1,2.43,49.78,45.69,45.69,0,0,1,48.11,4.09Z" transform="translate(-0.11)" fill="#de5700"/><path d="M48.11,4.91A45.22,45.22,0,1,1,2.89,50.13,45.22,45.22,0,0,1,48.11,4.91Z" transform="translate(-0.11)" fill="#de5800"/><path d="M48.11,5.73A44.76,44.76,0,1,1,3.36,50.49,44.76,44.76,0,0,1,48.11,5.73Z" transform="translate(-0.11)" fill="#df5900"/><path d="M48.11,6.55A44.29,44.29,0,1,1,3.82,50.84,44.29,44.29,0,0,1,48.11,6.55Z" transform="translate(-0.11)" fill="#df5a00"/><path d="M48.11,7.37A43.83,43.83,0,1,1,4.29,51.2,43.83,43.83,0,0,1,48.11,7.37Z" transform="translate(-0.11)" fill="#e05b00"/><path d="M48.11,8.19A43.36,43.36,0,1,1,4.75,51.55,43.36,43.36,0,0,1,48.11,8.19Z" transform="translate(-0.11)" fill="#e05c00"/><path d="M48.11,9a42.9,42.9,0,1,1-42.9,42.9A42.9,42.9,0,0,1,48.11,9Z" transform="translate(-0.11)" fill="#e15d00"/><path d="M48.11,9.83A42.44,42.44,0,1,1,5.68,52.26,42.44,42.44,0,0,1,48.11,9.83Z" transform="translate(-0.11)" fill="#e15e00"/><path d="M48.11,10.65a42,42,0,1,1-42,42A42,42,0,0,1,48.11,10.65Z" transform="translate(-0.11)" fill="#e25f00"/><path d="M48.11,11.46A41.51,41.51,0,1,1,6.6,53,41.51,41.51,0,0,1,48.11,11.46Z" transform="translate(-0.11)" fill="#e26000"/><path d="M48.11,12.28a41,41,0,1,1-41,41.05A41.05,41.05,0,0,1,48.11,12.28Z" transform="translate(-0.11)" fill="#e36100"/><path d="M48.11,13.1A40.58,40.58,0,1,1,7.53,53.68,40.58,40.58,0,0,1,48.11,13.1Z" transform="translate(-0.11)" fill="#e36200"/><path d="M48.11,13.92A40.12,40.12,0,1,1,8,54,40.12,40.12,0,0,1,48.11,13.92Z" transform="translate(-0.11)" fill="#e46300"/><path d="M48.11,14.74A39.65,39.65,0,1,1,8.46,54.39,39.65,39.65,0,0,1,48.11,14.74Z" transform="translate(-0.11)" fill="#e46400"/><path d="M48.11,15.56A39.19,39.19,0,1,1,8.92,54.75,39.19,39.19,0,0,1,48.11,15.56Z" transform="translate(-0.11)" fill="#e56500"/><path d="M48.11,16.38A38.73,38.73,0,1,1,9.39,55.1,38.73,38.73,0,0,1,48.11,16.38Z" transform="translate(-0.11)" fill="#e56600"/><path d="M48.11,17.2A38.26,38.26,0,1,1,9.85,55.46,38.26,38.26,0,0,1,48.11,17.2Z" transform="translate(-0.11)" fill="#e66700"/><path d="M48.11,18A37.8,37.8,0,1,1,10.32,55.81,37.79,37.79,0,0,1,48.11,18Z" transform="translate(-0.11)" fill="#e66800"/><path d="M48.11,18.83A37.34,37.34,0,1,1,10.78,56.17,37.34,37.34,0,0,1,48.11,18.83Z" transform="translate(-0.11)" fill="#e76900"/><path d="M48.11,19.65A36.87,36.87,0,1,1,11.24,56.52,36.87,36.87,0,0,1,48.11,19.65Z" transform="translate(-0.11)" fill="#e86a00"/><path d="M48.11,20.47a36.41,36.41,0,1,1-36.4,36.41A36.41,36.41,0,0,1,48.11,20.47Z" transform="translate(-0.11)" fill="#e86b00"/><path d="M48.11,21.29A35.94,35.94,0,1,1,12.17,57.23,35.94,35.94,0,0,1,48.11,21.29Z" transform="translate(-0.11)" fill="#e96c00"/><path d="M48.11,22.11A35.48,35.48,0,1,1,12.63,57.59,35.47,35.47,0,0,1,48.11,22.11Z" transform="translate(-0.11)" fill="#e96d00"/><path d="M48.11,22.93a35,35,0,1,1-35,35A35,35,0,0,1,48.11,22.93Z" transform="translate(-0.11)" fill="#ea6e00"/><path d="M48.11,23.75A34.55,34.55,0,1,1,13.56,58.3,34.55,34.55,0,0,1,48.11,23.75Z" transform="translate(-0.11)" fill="#ea6f00"/><path d="M48.11,24.57A34.09,34.09,0,1,1,14,58.65,34.08,34.08,0,0,1,48.11,24.57Z" transform="translate(-0.11)" fill="#eb7000"/><path d="M48.11,25.39A33.62,33.62,0,1,1,14.49,59,33.62,33.62,0,0,1,48.11,25.39Z" transform="translate(-0.11)" fill="#eb7100"/><path d="M48.11,26.21A33.16,33.16,0,1,1,15,59.36,33.16,33.16,0,0,1,48.11,26.21Z" transform="translate(-0.11)" fill="#ec7200"/><path d="M48.11,27a32.7,32.7,0,1,1-32.69,32.7A32.7,32.7,0,0,1,48.11,27Z" transform="translate(-0.11)" fill="#ec7300"/><path d="M48.11,27.84A32.23,32.23,0,1,1,15.88,60.07,32.23,32.23,0,0,1,48.11,27.84Z" transform="translate(-0.11)" fill="#ed7400"/><path d="M48.11,28.66A31.77,31.77,0,1,1,16.35,60.43,31.76,31.76,0,0,1,48.11,28.66Z" transform="translate(-0.11)" fill="#ed7400"/><path d="M48.11,29.48a31.31,31.31,0,1,1-31.3,31.3A31.31,31.31,0,0,1,48.11,29.48Z" transform="translate(-0.11)" fill="#ee7500"/><path d="M48.11,30.3A30.84,30.84,0,1,1,17.27,61.14,30.84,30.84,0,0,1,48.11,30.3Z" transform="translate(-0.11)" fill="#ee7600"/><path d="M48.11,31.12A30.38,30.38,0,1,1,17.74,61.49,30.38,30.38,0,0,1,48.11,31.12Z" transform="translate(-0.11)" fill="#ef7700"/><path d="M48.11,31.94A29.91,29.91,0,1,1,18.2,61.85,29.91,29.91,0,0,1,48.11,31.94Z" transform="translate(-0.11)" fill="#ef7800"/><path d="M48.11,32.76A29.45,29.45,0,1,1,18.66,62.2,29.44,29.44,0,0,1,48.11,32.76Z" transform="translate(-0.11)" fill="#f07900"/><path d="M48.11,33.58a29,29,0,1,1-29,29A29,29,0,0,1,48.11,33.58Z" transform="translate(-0.11)" fill="#f07a00"/><path d="M48.11,34.39A28.53,28.53,0,1,1,19.59,62.91,28.52,28.52,0,0,1,48.11,34.39Z" transform="translate(-0.11)" fill="#f17b00"/><path d="M48.11,35.21a28.06,28.06,0,1,1-28,28.06A28.06,28.06,0,0,1,48.11,35.21Z" transform="translate(-0.11)" fill="#f17c00"/><path d="M48.11,36a27.6,27.6,0,1,1-27.59,27.6A27.6,27.6,0,0,1,48.11,36Z" transform="translate(-0.11)" fill="#f27d00"/><path d="M48.11,36.85A27.13,27.13,0,1,1,21,64,27.13,27.13,0,0,1,48.11,36.85Z" transform="translate(-0.11)" fill="#f27e00"/><path d="M48.11,37.67A26.67,26.67,0,1,1,21.45,64.34,26.67,26.67,0,0,1,48.11,37.67Z" transform="translate(-0.11)" fill="#f37f00"/><path d="M48.11,38.49a26.2,26.2,0,1,1-26.2,26.2A26.2,26.2,0,0,1,48.11,38.49Z" transform="translate(-0.11)" fill="#f48000"/><path d="M48.11,39.31A25.74,25.74,0,1,1,22.37,65.05,25.73,25.73,0,0,1,48.11,39.31Z" transform="translate(-0.11)" fill="#f48100"/><path d="M48.11,40.13A25.27,25.27,0,1,1,22.84,65.4,25.27,25.27,0,0,1,48.11,40.13Z" transform="translate(-0.11)" fill="#f58200"/><path d="M48.11,41A24.81,24.81,0,1,1,23.3,65.76,24.81,24.81,0,0,1,48.11,41Z" transform="translate(-0.11)" fill="#f58300"/><path d="M48.11,41.76A24.35,24.35,0,1,1,23.77,66.11,24.35,24.35,0,0,1,48.11,41.76Z" transform="translate(-0.11)" fill="#f68400"/><path d="M48.11,42.58A23.89,23.89,0,1,1,24.23,66.47,23.89,23.89,0,0,1,48.11,42.58Z" transform="translate(-0.11)" fill="#f68500"/><path d="M48.11,43.4A23.42,23.42,0,1,1,24.69,66.82,23.42,23.42,0,0,1,48.11,43.4Z" transform="translate(-0.11)" fill="#f78600"/><path d="M48.11,44.22a23,23,0,1,1-22.95,23A23,23,0,0,1,48.11,44.22Z" transform="translate(-0.11)" fill="#f78700"/><path d="M48.11,45A22.49,22.49,0,1,1,25.62,67.53,22.49,22.49,0,0,1,48.11,45Z" transform="translate(-0.11)" fill="#f88800"/><path d="M48.11,45.86a22,22,0,1,1-22,22A22,22,0,0,1,48.11,45.86Z" transform="translate(-0.11)" fill="#f88900"/><path d="M48.11,46.68A21.56,21.56,0,1,1,26.55,68.24,21.56,21.56,0,0,1,48.11,46.68Z" transform="translate(-0.11)" fill="#f98a00"/><path d="M48.11,47.5A21.1,21.1,0,1,1,27,68.6,21.1,21.1,0,0,1,48.11,47.5Z" transform="translate(-0.11)" fill="#f98b00"/><path d="M48.11,48.32A20.64,20.64,0,1,1,27.48,69,20.63,20.63,0,0,1,48.11,48.32Z" transform="translate(-0.11)" fill="#fa8c00"/><path d="M48.11,49.13A20.18,20.18,0,1,1,27.94,69.31,20.18,20.18,0,0,1,48.11,49.13Z" transform="translate(-0.11)" fill="#fa8d00"/><path d="M48.11,50A19.71,19.71,0,1,1,28.4,69.66,19.71,19.71,0,0,1,48.11,50Z" transform="translate(-0.11)" fill="#fb8e00"/><path d="M48.11,50.77A19.25,19.25,0,1,1,28.87,70,19.25,19.25,0,0,1,48.11,50.77Z" transform="translate(-0.11)" fill="#fb8f00"/><path d="M48.11,51.59A18.78,18.78,0,1,1,29.33,70.37,18.78,18.78,0,0,1,48.11,51.59Z" transform="translate(-0.11)" fill="#fc9000"/><path d="M48.11,52.41A18.32,18.32,0,1,1,29.8,70.73,18.32,18.32,0,0,1,48.11,52.41Z" transform="translate(-0.11)" fill="#fc9100"/><path d="M48.11,53.23A17.86,17.86,0,1,1,30.26,71.08,17.85,17.85,0,0,1,48.11,53.23Z" transform="translate(-0.11)" fill="#fd9200"/><path d="M48.11,54.05A17.39,17.39,0,1,1,30.72,71.44,17.38,17.38,0,0,1,48.11,54.05Z" transform="translate(-0.11)" fill="#fd9300"/><path d="M48.11,54.87A16.93,16.93,0,1,1,31.19,71.79,16.92,16.92,0,0,1,48.11,54.87Z" transform="translate(-0.11)" fill="#fe9400"/><path d="M48.11,55.69A16.46,16.46,0,1,1,31.65,72.15,16.46,16.46,0,0,1,48.11,55.69Z" transform="translate(-0.11)" fill="#fe9500"/><path d="M64.11,72.5a16,16,0,1,1-16-16A16,16,0,0,1,64.11,72.5Z" transform="translate(-0.11)" fill="#ff9600"/><g opacity="0.3"><path d="M86.73,45.41a2.07,2.07,0,1,1-2.93.15A2.07,2.07,0,0,1,86.73,45.41Z" transform="translate(-0.11)" fill="#fff"/><path d="M90.6,38.2a3.22,3.22,0,1,1-4.56.23A3.24,3.24,0,0,1,90.6,38.2Z" transform="translate(-0.11)" fill="#fff"/></g><path d="M63.27,38.35a16.23,16.23,0,0,1,0,10.27S61.59,29.05,44.19,12.43c0,0-1.77,10.26-5.5,15.9-8,13-26,29.09-9.41,48.87a13.94,13.94,0,0,0,2.25,2,28.41,28.41,0,0,0,11,4.84,18,18,0,0,1-5.59-2.77,8.11,8.11,0,0,1-1.5-1.31c-11-13.2.95-24,6.28-32.62,2.49-3.76,4-10.61,4-10.61a41.49,41.49,0,0,1,12,24.15c1.22-3.52.88-6,.51-6.85,0,0,13.53,15.09,1.33,25.93A31,31,0,0,1,55.45,83a17.77,17.77,0,0,1-3.17,1.24,29.8,29.8,0,0,0,7-2.45,49.25,49.25,0,0,0,6.2-4.57C83.75,61,63.27,38.35,63.27,38.35Z" transform="translate(-0.11)" fill="#c43300"/><path d="M63.59,38a16.14,16.14,0,0,1,0,10.27S61.92,28.72,44.52,12.11c0,0-1.77,10.25-5.5,15.9-8,13-26,29.08-9.41,48.86a13.46,13.46,0,0,0,2.25,2,28.33,28.33,0,0,0,11,4.84,18.25,18.25,0,0,1-5.6-2.76,9.78,9.78,0,0,1-1.5-1.31c-11-13.21.95-24,6.29-32.62,2.49-3.77,4-10.62,4-10.62a41.5,41.5,0,0,1,12,24.16c1.21-3.53.87-6,.5-6.86,0,0,13.54,15.1,1.34,25.94a32.79,32.79,0,0,1-4.13,3.05,17,17,0,0,1-3.17,1.24,29.51,29.51,0,0,0,7-2.45,48,48,0,0,0,6.19-4.57C84.08,60.63,63.59,38,63.59,38Z" transform="translate(-0.11)" fill="url(#a)"/></svg>