<svg xmlns="http://www.w3.org/2000/svg" xmlns:xlink="http://www.w3.org/1999/xlink" viewBox="0 0 800 800"><defs><linearGradient id="a" x1="652.67" y1="642.56" x2="713.54" y2="722.98" gradientUnits="userSpaceOnUse"><stop offset="0" stop-color="#b43e62"/><stop offset="1" stop-color="#341c40"/></linearGradient></defs><circle cx="400" cy="400" r="400" fill="#26c5d3"/><circle cx="696.35" cy="700.26" r="79.15" fill="url(#a)"/><path d="M702.69,742.48a41.62,41.62,0,1,1,29.39-12.18A41.61,41.61,0,0,1,702.69,742.48Zm0-80.11A38.63,38.63,0,1,0,730,673.67a38.61,38.61,0,0,0-27.26-11.3Z" fill="#fff"/><path d="M709,734.55a33,33,0,1,1,23.3-9.65,33,33,0,0,1-23.3,9.65Zm0-63.76a30.86,30.86,0,1,0,21.78,9,30.91,30.91,0,0,0-21.78-9Z" fill="#fff"/><path d="M715.38,726.62a24.39,24.39,0,1,1,17.22-7.14,24.37,24.37,0,0,1-17.22,7.14Zm0-47.42A23.11,23.11,0,1,0,731.69,686,23.12,23.12,0,0,0,715.38,679.2Z" fill="#fff"/><path d="M696.35,750.42a50.24,50.24,0,1,1,35.47-14.7A50.28,50.28,0,0,1,696.35,750.42Zm0-96.46a46.37,46.37,0,1,0,32.74,13.57A46.4,46.4,0,0,0,696.35,654Z" fill="#fff"/><path d="M216.41,201c-9-47,27.13-90.44,74.16-90.44,41.6,0,76,34.37,76,76v94.06c10.85,0,21.7-1.81,32.56-1.81s19.89,0,30.75,1.81V186.56c0-41.6,34.36-76,76-76,47,0,83.21,43.41,76,90.44L561.89,311.37c70.54,30.75,124.81,85,124.81,151.94v41.6c0,56.07-36.18,103.1-88.64,133.85-52.45,32.56-121.19,50.65-199,50.65s-146.52-18.09-199-50.65C149.48,608,113.3,561,113.3,504.91v-41.6c0-66.93,52.46-121.19,123-151.94ZM534.76,325.84l23.51-130.23c5.43-32.56-18.09-63.31-52.46-63.31a52.49,52.49,0,0,0-52.45,52.45V304.13c-7.24-1.81-16.28-1.81-23.51-1.81-10.86,0-19.9-1.8-30.75-1.8s-21.71,0-32.56,1.8c-7.24,0-16.28,1.81-23.52,1.81V186.56a52.49,52.49,0,0,0-52.45-52.45c-32.56,0-57.88,30.75-50.65,63.3l23.52,130.24c-76,28.94-126.62,79.59-126.62,137.47v41.6c0,88.63,117.57,161,262.28,161s262.27-72.35,262.27-161v-41.6C663.18,405.43,612.53,354.78,534.76,325.84Z" fill="#633001" fill-rule="evenodd"/><path d="M663.18,504.91c0,88.63-117.57,161-262.28,161s-262.27-72.35-262.27-161v-41.6H665v41.6Z" fill="#fedc90"/><path d="M239.92,197.41c-7.23-32.55,18.09-63.3,50.65-63.3A52.49,52.49,0,0,1,343,186.56V305.94c18.09-1.81,36.18-3.62,56.08-3.62,18.08,0,36.17,1.81,54.26,3.62V186.56a52.49,52.49,0,0,1,52.45-52.45c32.56,0,57.89,30.75,52.46,63.3L534.76,327.65c76,28.94,128.42,79.59,128.42,137.47,0,88.63-117.57,161-262.28,161s-262.27-72.35-262.27-161c0-57.88,50.64-108.53,126.61-137.47Z" fill="#d1884f" fill-rule="evenodd"/><path d="M326.74,452.46c0,23.51-12.66,43.41-28.94,43.41s-28.94-19.9-28.94-43.41S281.52,409,297.8,409,326.74,428.94,326.74,452.46Z" fill="#633001"/><path d="M527.52,452.46c0,23.51-12.66,43.41-28.94,43.41s-28.94-19.9-28.94-43.41S482.3,409,498.58,409,527.52,428.94,527.52,452.46Z" fill="#633001"/></svg>