<svg xmlns="http://www.w3.org/2000/svg" xmlns:xlink="http://www.w3.org/1999/xlink" viewBox="0 0 800 800"><defs><linearGradient id="a" x1="3149.43" y1="570.47" x2="3149.43" y2="1637.26" gradientTransform="translate(-224.96 -113.2) scale(0.2)" gradientUnits="userSpaceOnUse"><stop offset="0" stop-color="#090220"/><stop offset="1" stop-color="#170659"/></linearGradient></defs><circle cx="400" cy="400" r="400" fill="url(#a)"/><path d="M268.25,300.55A16.85,16.85,0,0,0,255,294.38H148.18a3.55,3.55,0,0,1-2.31-.88,2.77,2.77,0,0,1-.89-2v-72a3,3,0,0,1,3.2-2.86h112.9q42.68,0,73.76,34.95l27.45,33.52-53.47,65.16ZM465.6,251.27q30.93-34.58,74.09-34.62H652.26a2.86,2.86,0,0,1,2.1.66,2.55,2.55,0,0,1,.66,2.2v72a3.12,3.12,0,0,1-.66,2,2.33,2.33,0,0,1-2.1.88H545.42a16.83,16.83,0,0,0-13.23,6.17l-78.72,95.81,79,96.47a16.76,16.76,0,0,0,12.79,5.74H652.15a2.47,2.47,0,0,1,2.09.88,3.5,3.5,0,0,1,.67,2.31v72a3,3,0,0,1-.67,2,2.29,2.29,0,0,1-2.09.89H539.69c-28.77,0-53.25-11.69-73.76-35l-65.49-79.94L335,541.68q-30.93,34.89-74.09,35H148.18a2.45,2.45,0,0,1-2.09-.89,3,3,0,0,1-.67-2.31v-72a3,3,0,0,1,.67-2,2.3,2.3,0,0,1,2.09-.88H255a17.55,17.55,0,0,0,13.23-6.18L345.53,398Z" fill="#00d1ff"/></svg>