<?xml version="1.0" encoding="utf-8"?>
<!-- Generator: Adobe Illustrator 26.0.1, SVG Export Plug-In . SVG Version: 6.00 Build 0)  -->
<!DOCTYPE svg PUBLIC "-//W3C//DTD SVG 1.1//EN" "http://www.w3.org/Graphics/SVG/1.1/DTD/svg11.dtd" [
	<!ENTITY ns_extend "http://ns.adobe.com/Extensibility/1.0/">
	<!ENTITY ns_ai "http://ns.adobe.com/AdobeIllustrator/10.0/">
	<!ENTITY ns_graphs "http://ns.adobe.com/Graphs/1.0/">
	<!ENTITY ns_vars "http://ns.adobe.com/Variables/1.0/">
	<!ENTITY ns_imrep "http://ns.adobe.com/ImageReplacement/1.0/">
	<!ENTITY ns_sfw "http://ns.adobe.com/SaveForWeb/1.0/">
	<!ENTITY ns_custom "http://ns.adobe.com/GenericCustomNamespace/1.0/">
	<!ENTITY ns_adobe_xpath "http://ns.adobe.com/XPath/1.0/">
]>
<svg version="1.1" id="Layer_1" xmlns:x="&ns_extend;" xmlns:i="&ns_ai;" xmlns:graph="&ns_graphs;"
	 xmlns="http://www.w3.org/2000/svg" xmlns:xlink="http://www.w3.org/1999/xlink" x="0px" y="0px" viewBox="0 0 96 96"
	 style="enable-background:new 0 0 96 96;" xml:space="preserve">
<style type="text/css">
	.st0{fill:#24A980;}
	.st1{fill:#FFFDFA;}
</style>
<metadata>
	<sfw  xmlns="&ns_sfw;">
		<slices></slices>
		<sliceSourceBounds  bottomLeftOrigin="true" height="96" width="96" x="0" y="0"></sliceSourceBounds>
	</sfw>
</metadata>
<path class="st0" d="M48,96c26.5,0,48-21.5,48-48S74.5,0,48,0S0,21.5,0,48S21.5,96,48,96z"/>
<path class="st1" d="M54,52.8c-0.3,0-2.1,0.2-5.9,0.2c-3.1,0-5.2-0.1-5.9-0.2c-11.7-0.5-20.5-2.5-20.5-4.9c0-2.5,8.7-4.5,20.5-5v7.9
	c0.8,0.1,2.9,0.2,6,0.2c3.6,0,5.5-0.2,5.8-0.2v-7.9c11.7,0.5,20.5,2.5,20.5,5C74.4,50.2,65.7,52.3,54,52.8z M54,42v-7.1h16.4V24
	H25.9v10.9h16.4V42C29,42.6,19,45.2,19,48.4c0,3.2,10,5.8,23.2,6.4v22.8H54V54.8c13.3-0.6,23.2-3.2,23.2-6.4
	C77.2,45.2,67.2,42.6,54,42z"/>
</svg>
