<svg xmlns="http://www.w3.org/2000/svg" viewBox="0 0 800 800"><path d="M400,0h0C621,0,800,179.05,800,400h0c0,221-179,400-400,400h0C179.05,800,0,621,0,400H0C0,179.05,179.05,0,400,0Z" fill="#fff"/><circle cx="400" cy="400" r="373.33" fill="#216c58" stroke="#216c58" stroke-width="0.7"/><path d="M746.67,400c0,192.38-154.29,346.67-346.67,346.67S53.33,592.38,53.33,400,207.62,53.33,400,53.33,746.67,207.62,746.67,400Z" fill="#216c58"/><rect x="352.38" y="567.62" width="40" height="40" fill="#216c58"/><rect x="419.05" y="567.62" width="40" height="40" fill="#216c58"/><path d="M285.71,152.38H539.05c7.62,0,13.33,7.62,13.33,13.33v7.62a13,13,0,0,1-13.33,13.34H285.71a13,13,0,0,1-13.33-13.34v-7.62C272.38,160,280,152.38,285.71,152.38Z" fill="#fff"/><path d="M400,200V653.33a13,13,0,0,1-13.33,13.34h-7.62a13,13,0,0,1-13.34-13.34V200Z" fill="#fff"/><path d="M453.33,200V653.33A13,13,0,0,1,440,666.67h-7.62a13,13,0,0,1-13.33-13.34V200Z" fill="#fff"/><path d="M371.43,312.38h0c9.52-3.81,20.95-5.71,36.19-5.71,20.95,0,36.19,3.81,47.62,11.43,7.62,5.71,13.33,11.42,17.14,20.95,3.81,7.62,9.52,15.24,20.95,15.24h61c11.42,0,21-9.53,19-21-1.9-19-9.52-34.28-21-49.52-13.33-19.05-34.28-32.38-59.05-41.91S440,226.67,407.62,226.67s-60.95,5.71-85.72,15.23A158.34,158.34,0,0,0,261,283.81h0c-15.24,19.05-22.85,40-22.85,64.76,0,30.48,11.42,55.24,34.28,72.38s51.43,30.48,87.62,38.1h0l47.62,9.52h0c15.24,3.81,28.57,7.62,38.09,11.43h0c9.53,3.81,17.15,7.62,22.86,13.33h0c3.81,3.81,7.62,9.53,7.62,17.15s-1.9,13.33-7.62,20.95a61.31,61.31,0,0,1-24.76,15.24h0c-9.52,3.81-22.86,5.71-38.1,5.71s-28.57-1.9-40-5.71-20.95-9.53-26.66-17.15c-3.81-5.71-7.62-11.42-9.53-17.14-1.9-9.52-9.52-17.14-20.95-17.14H247.62c-11.43,0-21,9.52-19.05,21,1.91,22.86,9.53,41.91,22.86,59h0c15.24,19,36.19,34.28,62.86,43.81h0c26.66,9.52,57.14,15.24,93.33,15.24s66.67-3.81,91.43-15.24h0c26.66-9.53,45.71-22.86,59.05-41.91s20.95-40,20.95-64.76h0q0-25.71-11.43-45.71a124.6,124.6,0,0,0-28.57-34.29c-11.43-9.52-26.67-17.14-41.91-24.76a355.55,355.55,0,0,0-53.33-15.24l-38.1-7.62h0c-9.52-1.9-17.14-3.81-24.76-5.71A70.47,70.47,0,0,1,360,369.52a83.51,83.51,0,0,1-13.33-11.42c-1.91-3.81-3.81-7.62-3.81-13.34h0c0-5.71,1.9-13.33,5.71-17.14C356.19,320,361.9,316.19,371.43,312.38Z" fill="#fff" stroke="#216c58" stroke-width="0.7"/><rect x="365.71" y="287.62" width="34.29" height="45.71" fill="#fff"/><rect x="365.71" y="453.33" width="34.29" height="47.62" fill="#fff"/><rect x="365.71" y="592.38" width="34.29" height="45.71" fill="#fff"/><rect x="420.95" y="287.62" width="34.29" height="45.71" fill="#fff"/><rect x="420.95" y="453.33" width="34.29" height="47.62" fill="#fff"/><rect x="420.95" y="592.38" width="34.29" height="45.71" fill="#fff"/><path d="M735.24,419.05c-5.72,0-9.53,3.81-9.53,9.52C710.48,596.19,571.43,727.62,400,727.62S89.52,596.19,74.29,428.57c0-5.71-5.72-9.52-9.53-9.52-5.71,0-9.52,5.71-9.52,11.43C70.48,607.62,219.05,746.67,400,746.67s329.52-139,344.76-316.19C746.67,424.76,741,419.05,735.24,419.05ZM64.76,381c5.72,0,9.53-3.81,9.53-9.52C89.52,203.81,228.57,74.29,400,74.29S710.48,205.71,725.71,371.43c0,5.71,5.72,9.52,9.53,9.52,5.71,0,9.52-5.71,9.52-11.43C729.52,192.38,581,53.33,400,53.33S70.48,192.38,55.24,369.52C53.33,375.24,59.05,381,64.76,381Z" fill="#fff" fill-rule="evenodd"/></svg>