<svg xmlns="http://www.w3.org/2000/svg" viewBox="0 0 570.44 570.44"><circle cx="285.22" cy="285.22" r="284.6" stroke="#000" stroke-miterlimit="11.34" stroke-width="1.24"/><path d="M128.16,126.88c-12,12.6-21.9,23.2-22,23.4s10.7,10.9,24,23.5,24.9,23.8,25.7,24.5l1.5,1.4-2.7,4.5a152.71,152.71,0,0,0-2,155.4c2,3.4,2.9,5.6,2.7,6s-12.3,13.2-26.9,28.5-26.5,27.9-26.7,28.1,40.8,39.8,44.7,43l1.5,1.3,23.1-24.1c12.7-13.3,24.6-25.8,26.4-27.7l3.4-3.4,3.2,2c16.3,10.4,35.4,17.6,56.5,21.4,10.6,1.9,30.8,2.4,42.1,1a154.17,154.17,0,0,0,61.1-20.5l4.6-2.8,4.9,4.8c10.7,10.4,50.7,48.4,51.1,48.6s44.3-45.7,44.2-46.3c-.1-.3-30.2-29.2-48.6-46.5l-6.1-5.8,2.8-4.6a153.81,153.81,0,0,0,13.2-130.2,209.62,209.62,0,0,0-12.8-27.4l-1.9-3.3,25.7-26.9c14.1-14.7,25.6-27,25.5-27.3-.4-1-45.4-43.5-46-43.5-.4,0-11.7,11.5-25.2,25.7s-24.7,25.7-25,25.8a6.52,6.52,0,0,1-2.7-1.4,160.68,160.68,0,0,0-16.8-9.2,154.94,154.94,0,0,0-44-13.1c-8.2-1.2-32.8-1.4-40.4-.3-18.2,2.6-33.1,7.1-48.3,14.7-4.4,2.1-9.5,4.9-11.5,6.1l-3.6,2.2-4.1-4c-2.2-2.2-12.2-11.6-22.1-21.1s-20-19-22.4-21.4l-4.4-4.3Zm167.9,65.2a92.64,92.64,0,0,1,43.2,16.5,108.47,108.47,0,0,1,21.4,21.4,92.26,92.26,0,0,1-12,120.7c-28.7,26.8-70.2,32.8-105.1,15a92.83,92.83,0,0,1-48.7-64.8c-1.8-9-1.8-25.8,0-34.7s4-15.1,8.3-23.9a91.76,91.76,0,0,1,92.9-50.2Z" transform="translate(0.06 0.04)" fill="#fff"/></svg>