<svg xmlns="http://www.w3.org/2000/svg" viewBox="0 0 96 96"><circle cx="48" cy="48" r="48" fill="#f4b731"/><path d="M29,23H49c12.17,0,21.39,6.61,24.82,16.23H80v5.82H75.08a25.85,25.85,0,0,1,.15,2.8V48A25.14,25.14,0,0,1,75,51.15h5V57H73.65C70.13,66.45,61,73,49,73H29V57H22V51.15h7v-6.1H22V39.23h7Zm5.59,34V67.78H49c8.89,0,15.5-4.33,18.57-10.82Zm34.7-5.81H34.54v-6.1H69.25a21.93,21.93,0,0,1,.19,3v.14A22.82,22.82,0,0,1,69.24,51.15ZM49,28.21c8.93,0,15.56,4.45,18.62,11h-33v-11Z" fill="#fffdfa" fill-rule="evenodd"/></svg>