<svg xmlns="http://www.w3.org/2000/svg" viewBox="0 0 800 800"><circle cx="400" cy="400" r="400" fill="#fff"/><path d="M242.38,428.87,258.3,309.24,120.19,213.36l126.19,42.75,29.8-45.73L385,142.86,624.86,275l12.43,201.63L530.43,625.13,446,638.07l43.68-80v-77L457.88,421l-32.27-21.38L376,450.84V505l-38.74,36.27-49.21,6-21.8,12.35-35.76-11.41-14.9-53.64,26.82-37.72Z" fill="#fff"/><path d="M462.91,212.34c-26.31-5.45-55.09-4-55.09-4s-9.45,43.68-68,55.17C340.21,263.51,417.18,289.82,462.91,212.34Z" fill="#94a6c3"/><path d="M486.75,608.7c31.76-24.86,55.6-59.09,66.58-97.83.51-1.45,4.94-4,7.92-6,4.94-3,10-5.45,10.9-9.46a209.36,209.36,0,0,0,3-35.25c0-4.42-4.51-8.94-8.94-13.36-3.49-3-7-6.48-7-8.95-4.94-45.21-25.8-87.44-59.09-118.18l-3.49,3.49c32.27,30.31,53.13,71.53,57.64,115.21.51,4,4.43,7.91,8.43,11.92,3.49,3,7.49,7.49,7.49,9.45a201.9,201.9,0,0,1-3,34.23c-.51,1.95-4.94,4-8.43,6-4.94,2.47-9.45,4.94-10.38,8.94a183.65,183.65,0,0,1-75.53,102.85c6.47-13.87,26.82-59.09,37.72-82l-2-73.48-63.09-61.05-35.76,4.93-39.26,63.61s18.4,23.33-7.49,50.66c-25.29,26.82-45.21,32.78-45.21,32.78l-18.39-10c5.45-7,16.43-17.37,24.86-24.35,14.39-11.92,28.78-12.94,28.78-25.8.59-26.91-28.27-19.5-28.27-19.5l-10.47,10-4.43,36.79-21.8,27.33-2.47-.51-35.76-7.92s21.88-11.41,25.37-24.35c3.5-12.43-7-53.65-7.49-56.11a54.19,54.19,0,0,1,14.9,22.81c7.92-21.88,18.39-42.74,21.37-44.7s43.17-23.33,43.17-23.33l-13.36,35.25,10-5.45,23.84-58.58s23.33-11.41,40.7-11.41c31.25-.51,77.48-38.74,56.62-107.28,6,2.47,109.25,54.15,127.13,155.48C605.44,493.5,561.25,566.47,486.75,608.7Z" fill="#94a6c3"/><path d="M368.57,223.24c11.41-13.45,7-33.29,7-33.29l-33.29,49.21C341.74,239.16,354.09,239.67,368.57,223.24Z" fill="#1b314f"/><path d="M256.77,492l4-19.84s-16.43,28.78-17.88,32.79c-1.53,4.51,1,12.43,7.41,11.92s14.39-10,14.39-16.86C264.69,491,256.77,492,256.77,492Z" fill="#1b314f"/><path d="M551.8,176.07s24.86,1,50.66,4C544.31,134.35,489.22,121,444.52,121,383,121,341.23,146.35,338.68,147.8L358.09,117s-77.48-7.5-104.81,74.5c-7-17.37-13.37-42.74-13.37-42.74s-40.28,35.33-21.37,93.91C172.3,225.79,106.31,202.38,103.76,202c-3.49-.51-4.51,1-4.51,1s-1,1.45,2,4c5.54,4.34,109.84,81.4,132.75,96.3C229,321.16,229,329.59,234,338c7,11.41,7.41,17.37,6.47,25.8s-10,81.48-11.92,90.42-22.82,40.7-21.88,50.15S220.5,554,232,558.55c8.43,3,29.29,9.45,43.17,9.45,4.94,0,9.45-1,11.41-3,8.43-7.41,10.9-8.94,16.86-8.94h1.45c2.46,0,5.45.51,8.94.51,7.91,0,18.39-1.53,25.8-8.43,10.89-10.9,29.8-25.8,35.76-32.78a46.12,46.12,0,0,0,9.45-35.25c-1.53-11.92,4.94-22.4,12.43-32.78,9.45-12.44,26.82-34.74,26.82-34.74,34.32,25.71,55.69,65,55.69,108.64,0,77.49-67.52,140.07-151,140.07a159.82,159.82,0,0,1-37.72-4.43c38.23,13.37,70.5,17.88,96.9,17.88,56.11,0,85.91-20.35,85.91-20.35a247.14,247.14,0,0,1-27.33,28.78h.51c92.9-12.94,138.11-89.4,138.11-89.4s-3.49,24.86-7.92,41.72C700.81,542.63,680,426.4,679.44,422.48c1,1.45,13.45,16.35,19.84,24.36C719.2,242.14,551.8,176.07,551.8,176.07ZM361.58,503c-1.95,2.47-10.38,10-16.34,15.41s-12.44,10.9-17.37,15.92c-2,2-6,3-11.93,3H301c7.5-10,29.29-32.78,36.79-37.72,8.94-6,13.45-11.92,7.92-22.31s-19.84-7.92-19.84-7.92,8.43-3.49,15.92-3.49c-9.45-2.47-21.37,0-26.82,5.45-6,5.45-4.94,24.87-7.41,37.21-2.47,12.94-10.9,19.41-23.84,31.34-7,6.47-11.92,8.42-15.92,8.42a169,169,0,0,1-25.38-6.47C237.52,535.3,230,513.93,228.07,505c1.45-4.94,7.41-15.41,10.39-21.37,6-11.41,9.45-17.88,10.47-23.84,2-8.43,8.43-60.63,10.9-82.42,6.47,8.42,15.41,22.39,13.37,31.33,14.39-20.35,4-40.28-1-48.19-4.43-7.92-10.39-23.84-5.45-40.7s22.82-63.61,22.82-63.61,6,10.47,14.39,8.43,76.46-104.3,76.46-104.3,18.39,40.19-1,69.56c-19.84,29.29-39.25,34.74-39.25,34.74s27.33,4.94,52.62-13.45c10.39,24.35,20.35,49.64,20.86,53.13-1.53,3.49-21.37,51.17-23.33,54.15-1,1-7.92,3-12.94,4-8.43,2.47-13.37,4-15.42,5.45-3.49,3-19.41,46.66-26.82,68-8.94,2.47-17.88,7.49-24.35,17.37,3.49-2.47,14.39-4,22.39-4.94,7-.51,28.27,10.9,33.81,32.27v1A30.7,30.7,0,0,1,361.58,503Zm-46.66,6c4.52-6.47,4-17.37,4.52-20.86s1.44-10,5.45-10.9,13.45.51,13.45,7.41c0,6.47-7,7.91-11.92,12.43C322.84,500.39,315.86,507.89,314.92,508.91ZM513.06,414a238.24,238.24,0,0,0,4-65.05c19.33,25.8,31.25,57.13,34.74,89.4.51,4,4.43,7.92,8.43,11.92,3.49,3,7.49,7,7.49,9.45a203.76,203.76,0,0,1-3,34.32c-.51,1.44-4.93,4-8.43,6-4.93,2.47-9.45,4.94-10.38,8.94a185.12,185.12,0,0,1-65.57,95.87C526.51,556.59,548.82,477.06,513.06,414ZM481.81,609.21c32.27-24.86,57.13-59.6,68-98.86.51-1.44,4.94-4,7.92-6,4.94-2.46,10-5.45,10.9-9.45a209.36,209.36,0,0,0,3-35.25c0-4.43-4.51-8.94-8.94-13.37-2.47-3-6.47-6.47-6.47-8.94a194.71,194.71,0,0,0-40.7-98.85c-10-59.6-49.64-78-50.66-78.51,1,1.54,26.82,38.74,8.94,82.43-18.39,44.19-65.57,37.29-69.57,37.72-4,0-19.33,19.83-38.74,56.62-2.47-1-12.94-3.49-24.86-1.45,8.94-24.86,22.39-60.11,24.86-63.09,1-1,8.43-3,13.45-4.43,9.45-2.47,13.88-4,15.41-6,1-1.53,6-12.94,10.9-24.86,4.52,0,15.93-1,16.86-1.54,1-1,10.48-25.29,10.48-28.27,0-2.46-19.42-50.66-26.83-69.05a112.85,112.85,0,0,0,10.39-14.39c101.84,11,181.37,97.41,181.37,202.14C597.53,506.35,550.35,576.43,481.81,609.21Z" fill="#1b314f"/><path d="M349.66,341c9.45-10.9,4.52-31.25-12.94-34.74,4.51-10.39,10.9-31.25,10.9-31.25S297,354.45,292.53,356s-8.94-15.92-8.94-15.92c-9.45,36.27,15.92,41.21,18.9,29.8C316.37,366.29,340.21,351.39,349.66,341Z" fill="#1b314f"/><path d="M306.41,360.33l25.8-44.2s14.9,7.5,7.41,19.42C330.25,349.43,306.41,360.33,306.41,360.33Z" fill="#ffd923"/><path d="M625.79,565A290.27,290.27,0,0,1,600,595.33c64-123.21,3-235.94.52-240.37,4.51,4.51,8.94,9.45,12.94,13.88C662.58,423.42,668.54,505.42,625.79,565Z" fill="#d82122"/><path d="M685.4,406.56C663,346.45,631.24,295.27,561.25,249.12c-67.52-44.7-140.06-41.21-144.07-40.7h-1a33.83,33.83,0,0,1,7.41-1.95c15.41-4.94,35.25-8.94,55.18-11.41,52.7-7.58,105.83,10.3,142.11,48.61l1,1C663.09,288.38,684.46,343,685.4,406.56Z" fill="#d82122"/><path d="M545.33,160.66c-74-13.88-121.67-7-156,6-1-4-4.51-11.92-7.49-18.39-10.3,12.43-21.29,27.33-28.19,36.78-18.9,12.94-26.82,25.37-26.82,25.37,10.9-37.29,42.75-65,81.49-72a202.3,202.3,0,0,1,35.76-3C478.32,135.88,512.55,144.31,545.33,160.66Z" fill="#d82122"/><path d="M271.67,256c-58.07-2-38.74-69.56-37.72-73.48C234,183.05,237.87,235.67,271.67,256Z" fill="#d82122"/><path d="M328.8,134.35C284.1,161.17,293,225.2,293,225.2,250.3,160.23,325.31,135.88,328.8,134.35Z" fill="#d82122"/><path d="M255.32,273.9c3,2.47,6,7,2.47,13.46-2,3.49-4.94,3-9.45,1-6-3-41.72-23.84-74-45.22,36.78,13,74,26.83,80,29.81C254.3,273,254.81,273.48,255.32,273.9Z" fill="#fff"/></svg>