<svg xmlns="http://www.w3.org/2000/svg" xmlns:xlink="http://www.w3.org/1999/xlink" viewBox="0 0 771.45 736.07"><defs><clipPath id="a" transform="translate(-15.55 -34.64)"><path d="M411.35,259.42a96.77,96.77,0,0,1,35.14-14.71c-19.4-5.31-40.87-1.52-56.75,10.11a66.42,66.42,0,0,1,12.89-19.65,46.27,46.27,0,0,0-24.86,21.44c-73.69,2.33-127,61.7-131.57,139.2-4.85,82,46.73,153.32,127.16,158.07S532.58,495.06,537.43,413C541.86,338,482.94,273.56,411.35,259.42Z" fill="none" stroke="#000" stroke-miterlimit="10" stroke-width="10"/></clipPath></defs><path d="M427.32,770.71c-161.4,0-352.12-41.33-352.12-53.9S206,694.06,367.44,694.06s292.24,10.19,292.24,22.75S588.72,770.71,427.32,770.71Z" transform="translate(-15.55 -34.64)" opacity="0.07"/><path d="M491,642.86c11.21,9.79,23.3,20.12,35.71,27.55,5.6,3.35,7.59,5.28,11,10.22C545,691.25,553,701.4,559,713c-3.09,2.2-8.42,6.62-11.57,8.65-5.37-11.33-11.5-22.36-19.35-32.21a33.88,33.88,0,0,0-11.86-9.94c-11.6-6-25.11-9.8-38.33-11.6C482.28,659.56,486.48,651.13,491,642.86Z" transform="translate(-15.55 -34.64)"/><path d="M655.5,691.57h-3.17l-97.65,16.24-7.22,13.8,140.06-.92h0C687.52,708.94,667.26,691.57,655.5,691.57Z" transform="translate(-15.55 -34.64)"/><path d="M230.54,642.86c-11.22,9.79-23.31,20.12-35.72,27.55-5.6,3.35-7.59,5.28-11,10.22-7.34,10.62-15.36,20.77-21.36,32.33,3.1,2.2,8.43,6.62,11.57,8.65,5.38-11.33,11.51-22.36,19.36-32.21a33.79,33.79,0,0,1,11.86-9.94c11.6-6,25.11-9.8,38.32-11.6C239.21,659.56,235,651.13,230.54,642.86Z" transform="translate(-15.55 -34.64)"/><path d="M66,691.57h3.17l97.64,16.24,7.22,13.8-140-.92h0C34,708.94,54.24,691.57,66,691.57Z" transform="translate(-15.55 -34.64)"/><path d="M626.85,536.92S603.68,507.67,590,498.51a24.44,24.44,0,0,0-20-3.28c-14.84,4-41.65,13-57.55,28.56l-17.64-19.28c18.56-18.14,54.53-25.91,73.89-28.89a36.17,36.17,0,0,1,25.07,5.31c16,10.26,43,46.71,43,46.71Z" transform="translate(-15.55 -34.64)" fill="#e84142"/><path d="M565.15,493.67c-14.23,4.08-39,12.63-56,26.45l3.36,3.67c15.9-15.55,42.71-24.53,57.55-28.56a24.55,24.55,0,0,1,14.91.67A25.48,25.48,0,0,0,565.15,493.67Z" transform="translate(-15.55 -34.64)" fill="#543333" opacity="0.1"/><path d="M593.78,480.93a36.17,36.17,0,0,0-25.07-5.31c-17.53,2.7-48.67,9.32-68.18,24,21.56-10.39,48.55-15.89,65-18.49a44.32,44.32,0,0,1,28.28,4.72c10.5,5.83,25.1,20.64,35.35,31.87C619.94,506.17,604.42,487.76,593.78,480.93Z" transform="translate(-15.55 -34.64)" fill="#fff" opacity="0.4"/><path d="M133.43,494.58S160,467.14,174.82,459.2a24.93,24.93,0,0,1,20.71-1.3c14.71,5.6,41.1,17.47,55.71,34.92l22.24-27.13s-55.22-22.63-74.62-27.63a37.06,37.06,0,0,0-26.08,2.86c-17.32,8.82-48.54,43.19-48.54,43.19Z" transform="translate(-15.55 -34.64)" fill="#e84142"/><path d="M267.2,463.14l-13.35,20.41c-16.4-15.77-43.91-24.74-59.14-28.73a25,25,0,0,0-20.45,3.51,69.52,69.52,0,0,0-7.41,6.07,67.81,67.81,0,0,1,8-5.2,24.93,24.93,0,0,1,20.71-1.3c14.71,5.6,41.1,17.47,55.71,34.92l22.24-27.13S271.12,464.72,267.2,463.14Z" transform="translate(-15.55 -34.64)" fill="#543333" opacity="0.2"/><path d="M198.86,438.06a37.06,37.06,0,0,0-26.08,2.86c-9.07,4.62-22,16.26-32.17,26.29,10.93-8.44,24.67-18.15,34.08-21.69a39.76,39.76,0,0,1,26.2-.56c15,4.87,51.65,21.71,66.23,28.5l6.36-7.77S218.26,443.06,198.86,438.06Z" transform="translate(-15.55 -34.64)" fill="#fff" opacity="0.4"/><path d="M364.66,289.26a12.16,12.16,0,0,0,6.07,2c3.71,0,5.52-2.26,5.89-6.32,2.05,4,4.15,8.06,6.29,12.13-2.21-5.9-4.39-11.82-6.48-17.65-1.3-10-7-25.4-14.46-43-1.34-4.39-2.49-8.37-3.39-11.79-4-19.69-8.49-43.08-4.39-65.54a58.38,58.38,0,0,0-9,29.53c-8.29-32.12-20.51-68.41-47.68-88.34,14.31,20.24,24.31,44.3,32.45,66.62-9-18.58-17.45-35.11-23.44-45.92-23.59-38.63-56.34-90.72-111.2-86.07-46.2,2.81-143.23,35.87-171.93,78.27-18.11,26.62-2.74,34,26,34.57,28.33.48,70-5.86,96-8.84,71.18-8.52,117.24,28.33,151.51,67.26-11.42-8.95-24-15.93-37.88-19.15,26.26,16.13,48.75,40.32,67.54,60.87,14.89,17.74,39.93,50.67,63.79,83.71C381.52,316.72,372.62,302,364.66,289.26Z" transform="translate(-15.55 -34.64)" fill="#ba9672"/><path d="M25.74,123.44C54.85,79.07,152.11,47.23,198.36,45.27c51.53-3.41,89,47.82,114.87,88.13-2.42-4.66-4.69-8.84-6.75-12.39-23.59-38.63-56.34-90.72-111.2-86.07-46.2,2.81-143.23,35.87-171.93,78.27-8.51,12.8-9.66,21.25-5,26.55C19.22,135.23,21.64,129.84,25.74,123.44Z" transform="translate(-15.55 -34.64)" fill="#fff" opacity="0.4"/><path d="M289.43,145.48c-17.55-22.71-51.05-60.38-89.16-61.4-31.24-1-81,17.11-94.11,33.05-4.61,5.47,14.74,10.94,30.38,8,64.49-12.67,106,12.36,137.61,40.75,31.07,28.55,52.24,60.46,63.6,65.15C321.92,199.06,303.48,164.92,289.43,145.48Z" transform="translate(-15.55 -34.64)" fill="#edacab"/><path d="M289.43,145.48q-1.68-2.28-3.62-4.76c8.51,17,17.72,36.91,25.91,56-3.61-1.47-9.05-4.87-16.07-9.44,19.65,21.31,33,40.23,42.1,43.71C321.92,199.06,303.48,164.92,289.43,145.48Z" transform="translate(-15.55 -34.64)" fill="#e84142" opacity="0.1"/><path d="M786.43,198.44c-5.26-55.95-83.94-103.7-124.25-114.34-48.25-13-94,32.13-126.25,63.62C519.22,165.48,488.43,201,462.85,232c-25.3,31.19-45.38,57.84-34.38,62.56,2.06.79,4.7.46,7.85-.76-5,4.4-10,8.94-15.1,13.52,29.6-21.91,60.12-43.3,77.7-54.31,21.64-12.18,47.41-26.38,73.81-31.71-18.16-3.11-36.48,2.37-53.65,11,2.07-1.41,4.18-2.81,6.3-4.19C539.91,221.56,553,216,562,212.71c18.85-5.69,41.29-12.19,63.82-10.28a57.29,57.29,0,0,0-20.38-5.83,121.48,121.48,0,0,1,60.13,9.48C709.72,224.78,794.76,269.11,786.43,198.44Z" transform="translate(-15.55 -34.64)" fill="#ba9672"/><path d="M778.93,210.69c-4.84-58.17-83.19-105.73-123.5-116-45.28-11.81-94.68,31.25-129.19,63.43,3.54-3.92,6.8-7.42,9.69-10.38,32.24-31.49,78-76.67,126.25-63.62,40.31,10.64,119,58.39,124.25,114.34,1.48,16.77-1.81,27.35-8.69,33.05C779.13,225.89,779.57,219,778.93,210.69Z" transform="translate(-15.55 -34.64)" fill="#fff" opacity="0.4"/><path d="M542,176.5c22-17.56,63.28-47.46,97.09-41,27.6,5.37,64.77,34.23,69.54,54.74,1.72,7.09-17.61,9.37-30,2.71-51.34-27-95.19-11.54-130.89,8.06-35.39,20.07-62.63,44.29-73.41,45.48C497.5,220.3,523.82,192.05,542,176.5Z" transform="translate(-15.55 -34.64)" fill="#edacab"/><path d="M474.38,246.5c8.44-.55,25.38-14.86,48.54-30.25-7.26,2.48-12.82,4.22-16.24,4.58,13-16.35,27.12-33.41,39.92-48.08-1.63,1.28-3.17,2.54-4.6,3.75C523.82,192.05,497.5,220.3,474.38,246.5Z" transform="translate(-15.55 -34.64)" fill="#543333" opacity="0.1"/><path d="M411.35,259.42a96.77,96.77,0,0,1,35.14-14.71c-19.4-5.31-40.87-1.52-56.75,10.11a66.42,66.42,0,0,1,12.89-19.65,46.27,46.27,0,0,0-24.86,21.44c-73.69,2.33-127,61.7-131.57,139.2-4.85,82,46.73,153.32,127.16,158.07S532.58,495.06,537.43,413C541.86,338,482.94,273.56,411.35,259.42Z" transform="translate(-15.55 -34.64)" fill="#e84142"/><g clip-path="url(#a)"><path d="M648.28,366.52S521,312.58,460.16,352.68s-58.67,46.54-131.6,3.87c-73.53-43-183.22,10-183.22,10V138.94H648.28Z" transform="translate(-15.55 -34.64)" fill="#fff" stroke="#000" stroke-miterlimit="10" stroke-width="10"/></g><path d="M411.35,259.42a96.77,96.77,0,0,1,35.14-14.71c-19.4-5.31-40.87-1.52-56.75,10.11a66.42,66.42,0,0,1,12.89-19.65,46.27,46.27,0,0,0-24.86,21.44c-73.69,2.33-127,61.7-131.57,139.2-4.85,82,46.73,153.32,127.16,158.07S532.58,495.06,537.43,413C541.86,338,482.94,273.56,411.35,259.42Z" transform="translate(-15.55 -34.64)" fill="none" stroke="#000" stroke-miterlimit="10" stroke-width="10"/><path d="M413.85,259.93c54,33,92.77,107,87.76,191.92a250,250,0,0,1-10.14,57.2c26.13-25,43.75-58.59,46-96C541.81,338.89,484.31,275.06,413.85,259.93Z" transform="translate(-15.55 -34.64)" fill="#543333" opacity="0.1"/><path d="M234.74,553.16a45.67,45.67,0,0,0-11.66.35,37.22,37.22,0,0,1,6.87-4.44,30.55,30.55,0,0,0-9-.41,21.13,21.13,0,0,0-16,9.72,58,58,0,0,1,5.13-11.23,35.21,35.21,0,0,0-8.48,5.59,32.2,32.2,0,0,0-10.74,25.39,86.87,86.87,0,0,1-1.94-9.17,39.91,39.91,0,0,0-2.17,10.12c-1.86,21.92,13.08,44.23,34,49.63a36,36,0,0,0,6.59,1.27c21.64,2.09,40.69-16,42.74-37.2S256.38,555.24,234.74,553.16Z" transform="translate(-15.55 -34.64)" fill="#ba9672"/><path d="M195.84,601.91a40.64,40.64,0,0,1-1.75-10.63,91.62,91.62,0,0,0,5.5,8.06,32.92,32.92,0,0,1,.92-28.82,38,38,0,0,1,6.33-8.81,59.65,59.65,0,0,0-.79,12.91c1.34-6.58,5.46-12.21,12.3-15.84a34.08,34.08,0,0,1,9.13-3.21,42,42,0,0,0-5.16,7,51.88,51.88,0,0,1,11.54-5,50.36,50.36,0,0,1,11.7-2,45,45,0,0,0-10.82-2.39,45.67,45.67,0,0,0-11.66.35,37.22,37.22,0,0,1,6.87-4.44,30.55,30.55,0,0,0-9-.41,21.13,21.13,0,0,0-16,9.72,58,58,0,0,1,5.13-11.23,35.21,35.21,0,0,0-8.48,5.59,32.2,32.2,0,0,0-10.74,25.39,86.87,86.87,0,0,1-1.94-9.17,39.91,39.91,0,0,0-2.17,10.12c-1.59,18.74,9.1,37.74,25.29,46.25A48.29,48.29,0,0,1,195.84,601.91Z" transform="translate(-15.55 -34.64)" fill="#fff" opacity="0.4"/><path d="M506.52,486.08c-9.24-33.57-19.45-66.25-54.85-83.64-33.82-16.8-255.91-57.86-232.51,2.51,32.65,84.23,41.66,88.86,32.65,136.75-12.13,47.57-59.15,98.34-13,129.44,45.83,31.77,109,46.34,158.88,42.25,51.21-4.07,81.1-23.63,99.36-47.27,18.09-24,24.56-52.11,25-81.53C521.56,554.82,514.52,520,506.52,486.08Z" transform="translate(-15.55 -34.64)" fill="#ba9672"/><path d="M282.26,390.86c3.45-58.4,31.28-107.23,73.39-131.75-62,12.27-105.35,67.2-109.45,136.7-4.85,82,46.73,153.32,127.16,158.07,2.84.17,5.68.24,8.52.24C317.2,536,277.7,468,282.26,390.86Z" transform="translate(-15.55 -34.64)" fill="#fff" opacity="0.4"/><path d="M208.53,465.73s-2.43-26,14.27-19.76c15.23,5.64,63.39,16.11,83.13,29.23,13.68,9.09,44,40.11,79.12,42.53C418.2,520,455.76,494.31,481.3,483c15.95-7,62.25-2.43,68.12-3.7,8.25-1.78,16.72,18.52,9.61,19.19-64.21,6-29.14,62.76-35.61,113.36-3.26,25.48-4.25,41.77-37.71,66.78-84.82,63.4-266.2,11.7-266.79-33-.77-58.27,27-54.41,36.05-137.44C258.12,479.5,208.53,465.73,208.53,465.73Z" transform="translate(-15.55 -34.64)" fill="#e84142"/><path d="M241.37,666.24l-24.76,16.38c-4,2.63-27.47,20.3-30.1,16.32l-13.45-3.09c-2.63-4,41.86-57.3,45.83-59.93l6.17,5.67a8.7,8.7,0,0,1,12,2.45l6.74,10.19A8.69,8.69,0,0,1,241.37,666.24Z" transform="translate(-15.55 -34.64)" fill="#e84142"/><path d="M515.61,685.37l-23.36-18.32a8.7,8.7,0,0,1-1.47-12.17l7.55-9.62c2.94-3.75,12.42-15.55,16.17-12.61l19.35,29.46c3.76,2.94,24.1,37.55,21.16,41.3L547.46,713C544.52,716.78,519.36,688.31,515.61,685.37Z" transform="translate(-15.55 -34.64)" fill="#e84142"/><path d="M261,681.07c-46.12-31.09-2.9-52.87,9.23-100.44,5.29-28.11-11.52-88.64,39.89-91.68,16.48-1-2.92-18.21-19.37-16.71-4.63.42-54.38-1.72-50.24,1.16,22.47,15.65,21.83-1.5,12.38,50.39-17.73,82-58.42,106.35-14.13,147.35,12.8,11.83,30.35,18.18,47.14,24.71A211.78,211.78,0,0,1,261,681.07Z" transform="translate(-15.55 -34.64)" fill="#fff" opacity="0.4"/><path d="M509.21,497.74c1.37,14,2.22,27.54,2.37,40.41-.44,40.58-7.47,79.35-27.11,112.47-18.05,29.69-46.56,54.69-93.45,63.19,2.23-.11,4.45-.24,6.64-.42,51.21-4.07,81.1-23.63,99.36-47.27,18.09-24,24.56-52.11,25-81.53C521.61,558.22,516,527.9,509.21,497.74Z" transform="translate(-15.55 -34.64)" fill="#543333" opacity="0.1"/><path d="M483.15,621c-1.75-6.67-3.57-13.34-5.41-20-9.13-29.66-18.79-58.45-43.38-71.75-23.51-12.88-77.51-11.41-112.7,17.93-17.56,14.16-20.35,40.9-32.35,62.07C276.09,632.53,274,661,283,686.65l3.24,9.31c36.83,14.27,77.27,20.23,111.44,17.43,41.8-3.32,69.39-17,88-34.72A137.75,137.75,0,0,0,483.15,621Z" transform="translate(-15.55 -34.64)" fill="#fff"/><path d="M564.78,396.67c-12-41.67-56-66.23-98.9-59.24s-71.56,49.51-63.7,99.05,53.39,81.23,100.45,66.24S576.79,438.21,564.78,396.67Z" transform="translate(-15.55 -34.64)" fill="#ba9672"/><path d="M565.85,401.11C564.37,438.28,542,476.85,503.2,498a107.84,107.84,0,0,1-18.37,8,83,83,0,0,0,16-3.29C547.44,488.34,575,441.68,565.85,401.11Z" transform="translate(-15.55 -34.64)" fill="#543333" opacity="0.1"/><path d="M299.47,307.64c-53.94,3.54-94.9,49.17-92,96.47s44.1,85.06,91.73,88.85c47.57,3.61,88.53-33.91,92-88.63S353.47,304,299.47,307.64Z" transform="translate(-15.55 -34.64)" fill="#ba9672"/><ellipse cx="375.41" cy="383.66" rx="175.48" ry="45.16" fill="#e84142"/><path d="M208.53,413.29c7.26,43,46.15,76.12,90.67,79.67q3.39.26,6.73.24C262.9,482.43,226.16,452.57,208.53,413.29Z" transform="translate(-15.55 -34.64)" fill="#fff" opacity="0.4"/><path d="M292.77,312.45c-49.5,3.24-87.09,45-84.43,88.21s40.47,77.76,84.18,81.23c43.66,3.31,81.25-31,84.42-81S342.33,309.14,292.77,312.45Z" transform="translate(-15.55 -34.64)" fill="#543333" opacity="0.2"/><path d="M425.89,437.3c-1.7-6-16.24-9-29.46-9.06s-25.9,5.06-26.38,9.84c-.62,6.11,14.07,17.78,28.67,17S427.8,444.05,425.89,437.3Z" transform="translate(-15.55 -34.64)" fill="#42210b"/><path d="M377.24,442.76c.47-5,12.73-10.38,25.47-10.3a77.38,77.38,0,0,1,13.51,1.25c-5-2-12.53-3-19.64-3.09C385.3,430.56,374.43,435,374,439c-.19,1.85,1.27,4.3,3.78,6.65A6.1,6.1,0,0,1,377.24,442.76Z" transform="translate(-15.55 -34.64)" fill="#fff" opacity="0.4"/><path d="M290.46,302.8c-61.76-3.24-103.37,44.84-94.87,93.05,8.28,48.36,50.47,78.34,95.18,76.39,44.67-2.49,86.49-33.94,94.9-77C394.26,352.77,352.24,306.18,290.46,302.8Z" transform="translate(-15.55 -34.64)" fill="#e7d9cf"/><path d="M293.75,454.28c-40.38.68-77.85-17.73-96.6-50.81,11.48,44.06,51.23,70.51,93.62,68.77,35.2-1.54,67.8-22.07,85-50.53A126.73,126.73,0,0,1,293.75,454.28Z" transform="translate(-15.55 -34.64)" fill="#f0adbb" opacity="0.6"/><path d="M298.3,317.68c29.21,1,55.15,11.4,73.74,25.46-16.3-21.54-46.18-39-81.58-40.34-54.9-2.68-94.61,34.85-95.74,77.78C205.18,343.86,245.89,315.4,298.3,317.68Z" transform="translate(-15.55 -34.64)" fill="#fff" opacity="0.4"/><path d="M523.66,285.64c19.81,2.05,36.81,9,49.14,18.79-10.41-14.83-15.7-33-39.35-35.3-36.36-3.63-81.51,19.66-89.08,42.27C457.44,293.44,488.36,281.94,523.66,285.64Z" transform="translate(-15.55 -34.64)" fill="#6b4a1d"/><path d="M271,269.1c-33.75-6.65-40.65,15.71-50.15,37.53C235,289.89,265.25,281,298,287.66c18.37,3.69,33.59,12.06,44.12,22.76C333.92,294.83,292.93,273.39,271,269.1Z" transform="translate(-15.55 -34.64)" fill="#6b4a1d"/><path d="M340.17,415.33a17.57,17.57,0,1,1,11-23A41.05,41.05,0,1,0,347,411.23,17.46,17.46,0,0,1,340.17,415.33Z" transform="translate(-15.55 -34.64)"/><path d="M578.38,376.1c-11.66-41.12-54.31-65.36-95.93-58.46S413,366.5,420.66,415.39s51.79,80.17,97.44,65.37S590,417.1,578.38,376.1Z" transform="translate(-15.55 -34.64)" fill="#543333" opacity="0.2"/><path d="M597.91,368.25c-9-46.73-62.4-70.81-114.83-57.51C430.6,324.32,401,366.9,414.23,408.23c13.51,41.07,61.59,72.3,109.56,64.45C571.66,464.68,606.9,414.91,597.91,368.25Z" transform="translate(-15.55 -34.64)" fill="#e7d9cf"/><path d="M483,333.33c43.81-9,89,1.78,113.25,28.43-12.35-42.64-63.33-63.56-113.15-51-37.77,9.35-64.35,35.41-70.42,63.64C426.37,355.77,451.41,339.76,483,333.33Z" transform="translate(-15.55 -34.64)" fill="#fff" opacity="0.4"/><path d="M522.79,451.64c-36.35,5.8-71.49-4.68-97.65-21.3,21.06,28.71,59.36,49.21,98.65,42.34,33.58-6,59.9-30.74,70.84-61.92C578.37,431.73,553.3,446.75,522.79,451.64Z" transform="translate(-15.55 -34.64)" fill="#f0adbb" opacity="0.6"/><path d="M484.78,384.69a30.22,30.22,0,0,0-45.8,17.7c5.4-6.79,14.95-8.54,22-3.8,7.4,5,9.19,15.29,4,23-4.91,7.26-14.27,9.63-21.53,5.68a30.23,30.23,0,1,0,41.34-42.58Z" transform="translate(-15.55 -34.64)"/><path d="M476.27,441.36a2.31,2.31,0,1,0,2.3,2.3A2.3,2.3,0,0,0,476.27,441.36Z" transform="translate(-15.55 -34.64)" fill="#fff"/><path d="M482.52,431.86a4.49,4.49,0,1,0,4.49,4.49A4.49,4.49,0,0,0,482.52,431.86Z" transform="translate(-15.55 -34.64)" fill="#fff"/><path d="M315.4,437a2.31,2.31,0,1,0,2.31,2.3A2.3,2.3,0,0,0,315.4,437Z" transform="translate(-15.55 -34.64)" fill="#fff"/><path d="M321.66,427.51a4.49,4.49,0,1,0,4.49,4.49A4.48,4.48,0,0,0,321.66,427.51Z" transform="translate(-15.55 -34.64)" fill="#fff"/><path d="M414.53,418.11q5.76-3.11,12.17-6l1-.44c.95-.43,1.92-.86,2.9-1.28,23.51-10.25,52.79-18.8,86.27-25.55a658.46,658.46,0,0,1,89.92-12.09c-.25-2.27-.57-4.55-1-6.82A72,72,0,0,0,593.92,338l-.33-.48-.71-1c-.29-.39-.58-.79-.88-1.18l-.23-.3c-9.48-12.25-22.8-21.5-38.26-27.25l-.19-.07-1.75-.63-.69-.24-1.21-.4-1.23-.4-.6-.18c-19.48-6-41.85-6.7-64.07-1.06a114.37,114.37,0,0,0-48.27,24.71c-.52.46-1.05.92-1.56,1.39l-.52.49a86.88,86.88,0,0,0-17.15,21.74c0,.08-.08.16-.13.24-.38.71-.75,1.42-1.12,2.14-.09.19-.19.38-.29.57-.36.74-.72,1.49-1.06,2.24-.14.3-.26.6-.4.9-.21.49-.42,1-.62,1.46l-.42,1c-.29.73-.57,1.47-.83,2.21-.06.16-.11.31-.16.46-.27.76-.52,1.52-.76,2.29,0,.08-.05.15-.07.23a68.15,68.15,0,0,0,.23,41.45A87.44,87.44,0,0,0,414.53,418.11Z" transform="translate(-15.55 -34.64)" fill="#e84142"/><path d="M508.28,362c-35,7.68-64.81,20.35-87.51,35.56-.94.63-1.88,1.26-2.8,1.9l-.92.66c-.27.18-.52.37-.79.56l1.92-1.09,1-.54c1-.52,1.93-1,2.91-1.55,23.5-12.48,52.79-22.89,86.27-31.1a565.93,565.93,0,0,1,64.24-12.09A325.11,325.11,0,0,0,508.28,362Z" transform="translate(-15.55 -34.64)" fill="#543333" opacity="0.2"/><path d="M522,313.54l.67.2,1.37.45,1.34.44.77.27c.65.23,1.31.46,2,.7l.21.08c17.22,6.4,32.06,16.7,42.61,30.35l.26.33c.33.44.66.87,1,1.32s.53.72.79,1.08c.12.17.24.35.37.52a80.25,80.25,0,0,1,11.77,25.18q11-1.08,21.69-1.74c-.25-2.27-.57-4.55-1-6.82A72,72,0,0,0,593.92,338l-.33-.48-.71-1c-.29-.39-.58-.79-.88-1.18l-.23-.3c-9.48-12.25-22.8-21.5-38.26-27.25l-.19-.07-1.75-.63-.69-.24-1.21-.4-1.23-.4-.6-.18c-19.48-6-41.85-6.7-64.07-1.06a121.91,121.91,0,0,0-12.95,4A129.2,129.2,0,0,1,522,313.54Z" transform="translate(-15.55 -34.64)" fill="#fff" opacity="0.4"/><path d="M188.93,388.75c4.4-.68,9-1.22,13.77-1.62l1.09-.09c1.06-.09,2.14-.16,3.23-.24,26.09-1.76,57.06.2,91.33,5.43a641.78,641.78,0,0,1,89.84,20c.61-2.33,1.14-4.69,1.56-7.09a77.44,77.44,0,0,0-.94-31.74c0-.2-.09-.39-.14-.58-.1-.41-.2-.81-.31-1.21s-.26-1-.4-1.48c0-.13-.08-.25-.11-.38-4.48-15.45-13.72-29.3-26.28-40.46l-.16-.13L360,327.9l-.57-.48-1-.82c-.34-.28-.68-.56-1-.83-.16-.14-.33-.27-.5-.4-16.28-12.84-37.27-21.46-60.44-23.79a114.66,114.66,0,0,0-54.95,7.24c-.67.27-1.33.54-2,.83l-.67.29a91.1,91.1,0,0,0-24.3,15.36l-.21.19c-.63.56-1.24,1.13-1.85,1.71l-.49.46-1.84,1.84-.7.74c-.38.41-.76.81-1.13,1.22l-.78.87c-.54.62-1.08,1.25-1.61,1.88l-.32.4c-.53.65-1,1.32-1.56,2l-.16.2a74.43,74.43,0,0,0-15.06,41A93.55,93.55,0,0,0,188.93,388.75Z" transform="translate(-15.55 -34.64)" fill="#e84142"/><path d="M224.47,347.45l.15-.21c.51-.67,1-1.33,1.57-2l.31-.4c.53-.64,1.07-1.26,1.62-1.89.25-.29.51-.57.77-.86s.75-.82,1.13-1.22l.71-.75c.6-.62,1.21-1.23,1.84-1.83l.48-.46q.91-.87,1.86-1.71l.2-.19a90.85,90.85,0,0,1,24.3-15.36l.68-.3,2-.82A114.49,114.49,0,0,1,317,312.23,121.75,121.75,0,0,1,349.46,320a118.1,118.1,0,0,0-53-18.46,114.66,114.66,0,0,0-54.95,7.24c-.67.27-1.33.54-2,.83l-.67.29a91.1,91.1,0,0,0-24.3,15.36l-.21.19c-.63.56-1.24,1.13-1.85,1.71l-.49.46-1.84,1.84-.7.74c-.38.41-.76.81-1.13,1.22l-.78.87c-.54.62-1.08,1.25-1.61,1.88l-.32.4c-.53.65-1,1.32-1.56,2l-.16.2a74.43,74.43,0,0,0-15.06,41,93.55,93.55,0,0,0,.11,11c4.4-.68,9-1.22,13.77-1.62l1.09-.09c1.06-.09,2.14-.16,3.23-.24l2.52-.14A74.26,74.26,0,0,1,224.47,347.45Z" transform="translate(-15.55 -34.64)" fill="#fff" opacity="0.4"/><path d="M296.92,371.93c-35.23-6.79-67.58-6.92-94.43-1.92-1.12.21-2.23.42-3.33.65l-1.11.23-.94.21,2.19-.24,1.1-.11,3.29-.29c26.52-2.17,57.54-.17,91.53,5.52A565.23,565.23,0,0,1,359,390.26,324.11,324.11,0,0,0,296.92,371.93Z" transform="translate(-15.55 -34.64)" fill="#543333" opacity="0.2"/><path d="M460.16,619.7a68.39,68.39,0,1,1-68.39-68.38A68.39,68.39,0,0,1,460.16,619.7Zm-87.77,27.22H359.12c-2.79,0-4.16,0-5-.54a3.35,3.35,0,0,1-1.53-2.64c0-1,.63-2.2,2-4.62l32.77-57.76c1.4-2.45,2.1-3.68,3-4.13a3.37,3.37,0,0,1,3.06,0c.89.45,1.6,1.68,3,4.13l6.74,11.76,0,.06c1.51,2.63,2.27,4,2.61,5.37a10,10,0,0,1,0,4.67c-.34,1.41-1.1,2.75-2.62,5.43L386,639.07l0,.08c-1.52,2.66-2.29,4-3.35,5a10,10,0,0,1-4.08,2.37C377.08,646.92,375.52,646.92,372.39,646.92Zm33.52,0h19c2.8,0,4.22,0,5.06-.55a3.37,3.37,0,0,0,1.52-2.66c.05-1-.62-2.12-1.94-4.4l-.14-.24-9.52-16.29-.11-.19c-1.34-2.26-2-3.4-2.89-3.84a3.33,3.33,0,0,0-3,0c-.87.45-1.58,1.64-3,4l-9.49,16.3,0,.06c-1.39,2.4-2.09,3.59-2,4.58a3.41,3.41,0,0,0,1.53,2.65C401.69,646.92,403.11,646.92,405.91,646.92Z" transform="translate(-15.55 -34.64)" fill="#e84142" fill-rule="evenodd"/><circle cx="385.94" cy="309.72" r="30.31" fill="#f2f2f2"/><path d="M435.68,344.37a34.2,34.2,0,1,1-34.19-34.19A34.19,34.19,0,0,1,435.68,344.37ZM391.8,358h-6.64a5.3,5.3,0,0,1-2.5-.27,1.69,1.69,0,0,1-.76-1.32c0-.5.31-1.1,1-2.31l16.39-28.88c.7-1.23,1-1.84,1.49-2.07a1.72,1.72,0,0,1,1.53,0c.45.23.8.84,1.5,2.07l3.37,5.88v0a10.9,10.9,0,0,1,1.31,2.68,5.14,5.14,0,0,1,0,2.34,11.23,11.23,0,0,1-1.32,2.71l-8.6,15.21,0,0a11.07,11.07,0,0,1-1.68,2.51,5,5,0,0,1-2,1.18A11.61,11.61,0,0,1,391.8,358Zm16.76,0h9.51a5.27,5.27,0,0,0,2.53-.28,1.69,1.69,0,0,0,.76-1.33c0-.48-.31-1.06-1-2.2a.75.75,0,0,1-.07-.12l-4.77-8.14-.05-.1c-.67-1.13-1-1.7-1.44-1.92a1.69,1.69,0,0,0-1.52,0c-.44.23-.79.82-1.49,2l-4.74,8.15,0,0c-.69,1.2-1,1.8-1,2.29a1.72,1.72,0,0,0,.77,1.33A5.33,5.33,0,0,0,408.56,358Z" transform="translate(-15.55 -34.64)" fill="#e84142" fill-rule="evenodd"/><path d="M644.32,553.58l2.61.57.42,9.23-7.53,3.55s-14.47-4.22-15.8-5.09,2.42-5.51,6.72-4.3a84.83,84.83,0,0,1,9.22,3.28c2.44.94-4.61-.32-2.27-3.08A15.11,15.11,0,0,1,644.32,553.58Z" transform="translate(-15.55 -34.64)" stroke="#4d4d4d" stroke-miterlimit="10"/><path d="M635.61,558.5h0A11.5,11.5,0,0,1,624.14,547v-6.2a11.51,11.51,0,0,1,11.47-11.48h0c6.31,0,17.48,11.17,17.48,17.48v5.89C653.09,559,641.92,558.5,635.61,558.5Z" transform="translate(-15.55 -34.64)" stroke="#4d4d4d" stroke-miterlimit="10"/><ellipse cx="621.23" cy="566.3" rx="4.84" ry="8.78" transform="translate(-219.28 693.09) rotate(-53.42)" stroke="gray" stroke-miterlimit="10"/><polygon points="612.58 537.09 598.49 526.63 681.79 404.55 705.39 422.95 612.58 537.09" stroke="gray" stroke-miterlimit="10"/><path d="M720.94,457.6c-1.59,2.15-11.5-2-15.39-4.93s-9.8-11.32-8.21-13.47,10.09,2.8,14,5.69S722.54,455.45,720.94,457.6Z" transform="translate(-15.55 -34.64)" stroke="gray" stroke-miterlimit="10"/><rect x="616.92" y="552.98" width="16.79" height="15.64" rx="1.25" transform="translate(441.77 -296.82) rotate(36.58)"/><path d="M646.24,549.86l2.66-.29,3.34,8.61-6,5.78s-15.06.62-16.6.22.53-6,5-6.22a85.34,85.34,0,0,1,9.78.16c2.61.11-4.47,1.17-3.13-2.2A15.19,15.19,0,0,1,646.24,549.86Z" transform="translate(-15.55 -34.64)" stroke="#4d4d4d" stroke-miterlimit="10"/><path d="M650.75,546.17l2.66-.3,3.34,8.61-6,5.78s-15.06.62-16.59.22.53-6,5-6.22a85.47,85.47,0,0,1,9.79.16c2.61.11-4.48,1.18-3.14-2.19A15.11,15.11,0,0,1,650.75,546.17Z" transform="translate(-15.55 -34.64)" stroke="#4d4d4d" stroke-miterlimit="10"/><path d="M652.09,540.41l2.66-.3,3.34,8.61-6,5.78s-15.06.62-16.6.22.53-6,5-6.22a85.52,85.52,0,0,1,9.79.16c2.61.11-4.48,1.17-3.14-2.2A15.12,15.12,0,0,1,652.09,540.41Z" transform="translate(-15.55 -34.64)" stroke="#4d4d4d" stroke-miterlimit="10"/><path d="M617.84,550.71l4,1.63s9.44,3.52,12.3,8.59,7.12,1.06,4.41-2.66-1.77-5.87-10-8.54c0,0-4-4.21-1.76-6.49s.5-3.44.5-3.44l6.38-7.3s-14.83,2.74-14.77,5.71S617.84,550.71,617.84,550.71Z" transform="translate(-15.55 -34.64)" stroke="#4d4d4d" stroke-miterlimit="10"/><path d="M122.5,506.13h0A11.5,11.5,0,0,0,134,494.66v-6.2A11.51,11.51,0,0,0,122.5,477h0c-6.32,0-17.48,11.17-17.48,17.48v5.89C105,506.66,116.18,506.13,122.5,506.13Z" transform="translate(-15.55 -34.64)" stroke="#4d4d4d" stroke-miterlimit="10"/><ellipse cx="136.88" cy="513.93" rx="8.78" ry="4.84" transform="translate(-294.84 148.13) rotate(-36.58)" stroke="gray" stroke-miterlimit="10"/><polygon points="114.44 484.72 128.53 474.26 45.26 352.84 20.2 371.97 114.44 484.72" stroke="gray" stroke-miterlimit="10"/><path d="M35.74,406.61c1.6,2.15,12.93-3.42,16.82-6.31s9.84-10.67,8.25-12.82-10.13,2.15-14,5S34.15,404.47,35.74,406.61Z" transform="translate(-15.55 -34.64)" stroke="gray" stroke-miterlimit="10"/><rect x="124.4" y="500.61" width="16.79" height="15.64" rx="1.25" transform="translate(526.86 802.95) rotate(143.42)"/><path d="M111.87,497.49l-2.66-.29-3.34,8.61,6,5.78s15.06.62,16.6.22-.53-6-5-6.22a85.34,85.34,0,0,0-9.78.16c-2.61.11,4.47,1.17,3.13-2.2A15.19,15.19,0,0,0,111.87,497.49Z" transform="translate(-15.55 -34.64)" stroke="#4d4d4d" stroke-miterlimit="10"/><path d="M107.36,493.8l-2.66-.3-3.34,8.61,6,5.78s15.06.62,16.59.22-.53-6-5-6.22a85.47,85.47,0,0,0-9.79.16c-2.61.11,4.48,1.18,3.14-2.19A15.11,15.11,0,0,0,107.36,493.8Z" transform="translate(-15.55 -34.64)" stroke="#4d4d4d" stroke-miterlimit="10"/><path d="M106,488l-2.66-.3L100,496.35l6,5.78s15.06.62,16.6.22-.53-6-5-6.22a85.52,85.52,0,0,0-9.79.16c-2.61.11,4.48,1.17,3.14-2.19A15.11,15.11,0,0,0,106,488Z" transform="translate(-15.55 -34.64)" stroke="#4d4d4d" stroke-miterlimit="10"/><path d="M140.26,498.34l-4,1.63s-9.44,3.52-12.3,8.59-7.13,1.06-4.42-2.66,1.78-5.87,10.05-8.54c0,0,4-4.21,1.76-6.49s-.5-3.44-.5-3.44l-6.38-7.3s14.83,2.74,14.77,5.71S140.26,498.34,140.26,498.34Z" transform="translate(-15.55 -34.64)" stroke="#4d4d4d" stroke-miterlimit="10"/><path d="M425.53,509.42c-16.17-9.66-32.83-9.47-44.85.51l-.22.18C392.86,503.58,409,503.31,425.53,509.42Z" transform="translate(-15.55 -34.64)" fill="#543333" opacity="0.2"/><path d="M429.12,491.56c-2.82-11.39-23-22-32.42-21.83S363.92,485,366.52,496.16s22.71,1.39,30.54,1.5S431.94,502.94,429.12,491.56Z" transform="translate(-15.55 -34.64)" fill="#6b4a1d"/><path d="M435.8,493c-.82-3.29-3.08-6.52-6.11-9.44a21,21,0,0,1,4.49,8.65c.89,4.11-1.35,6.46-5.14,7.74C433.75,499.15,436.85,497.21,435.8,493Z" transform="translate(-15.55 -34.64)" fill="#543333" opacity="0.2"/><path d="M360.33,495.18a18.11,18.11,0,0,1,5.65-8.47,19.19,19.19,0,0,0-4.23,7.89c-.92,3.92.93,6.51,4.17,8.25C361.87,501.5,359.26,499.2,360.33,495.18Z" transform="translate(-15.55 -34.64)" fill="#543333" opacity="0.2"/><path d="M426.88,489.8c-2.83-11.39-20.67-20.85-30.13-20.65s-30.19,13.74-27.6,24.94,19.78,4.18,27.61,4.28S429.7,501.19,426.88,489.8Z" transform="translate(-15.55 -34.64)" fill="#6d3333"/><path d="M379.32,486.47c-2.7,0-6.31,1.2-10,3.06a9.53,9.53,0,0,0-.13,4.56c2.6,11.21,19.78,4.18,27.61,4.28,1.83,0,4.61.19,7.75.29C397.79,491.41,386.28,486.32,379.32,486.47Z" transform="translate(-15.55 -34.64)" opacity="0.3"/><path d="M404.63,485.07c2.71-3,6.2-7.34,7.91-11-5.54-3.14-11.52-5-15.79-4.93-3.78.08-9.36,2.29-14.54,5.63,1.08,3.85,3.7,7.48,6.21,10.44-3.14,5.49-7.18,12.4-8.84,15.23,5.93-.09,12.94-2.14,17.18-2.08,3.38.05,10,.57,16.14.25Z" transform="translate(-15.55 -34.64)" fill="#e6e6e6"/><path d="M393.65,485.65c-2.51-3-10.36-7-11.44-10.87,1.08,3.85,3.7,7.48,6.21,10.44-3.14,5.49-7.18,12.4-8.84,15.23C381.24,497.62,390.51,491.13,393.65,485.65Z" transform="translate(-15.55 -34.64)" fill="#fff" opacity="0.4"/><path d="M403.82,487.84l9.08,10.78-8.27-13.55.39-.44c2.64-3,5.89-7.07,7.52-10.55-1.62,3.44-7.36,7.77-10.27,10.81-.49.11-1,.23-1.48.36a23.09,23.09,0,0,0-3.6-7.78l-.12-.17a30.43,30.43,0,0,1,2.21,8.4,33.52,33.52,0,0,0-6.63,3l-.25.15c1.14-.38,2.31-.71,3.48-1a22.38,22.38,0,0,1,1.2,6.45l0-.15a17.21,17.21,0,0,0-.07-6.56,45.48,45.48,0,0,1,5.25-.78,30.37,30.37,0,0,1,0,8.41c0-.07.05-.13.07-.2A23.29,23.29,0,0,0,403.82,487.84Z" transform="translate(-15.55 -34.64)" fill="#543333" opacity="0.1"/></svg>