<svg xmlns="http://www.w3.org/2000/svg" xmlns:xlink="http://www.w3.org/1999/xlink" viewBox="0 0 1999.34 1332.89"><defs><filter id="b" x="-260.92" y="-8592" width="1571.34" height="32766" filterUnits="userSpaceOnUse" color-interpolation-filters="sRGB"><feFlood flood-color="#fff" result="bg"/><feBlend in="SourceGraphic" in2="bg"/></filter><mask id="a" x="-260.92" y="-8592" width="1571.34" height="32766" maskUnits="userSpaceOnUse"><g filter="url(#b)"/></mask><linearGradient id="c" x1="-260.92" y1="548.68" x2="1310.42" y2="548.68" gradientUnits="userSpaceOnUse"><stop offset="0" stop-color="#999"/><stop offset="1" stop-color="#fff"/></linearGradient><filter id="e" x="1338.92" y="-8592" width="399.47" height="32766" filterUnits="userSpaceOnUse" color-interpolation-filters="sRGB"><feFlood flood-color="#fff" result="bg"/><feBlend in="SourceGraphic" in2="bg"/></filter><mask id="d" x="1338.92" y="-8592" width="399.47" height="32766" maskUnits="userSpaceOnUse"><g filter="url(#e)"/></mask><linearGradient id="f" x1="1338.92" y1="545.69" x2="2014.46" y2="545.69" gradientUnits="userSpaceOnUse"><stop offset="0" stop-color="#fff"/><stop offset="1" stop-color="gray"/></linearGradient><clipPath id="g" transform="translate(260.92 213.54)"><circle cx="354.34" cy="458.21" r="274.21" fill="none"/></clipPath><linearGradient id="h" x1="-127.65" y1="119.77" x2="-33.74" y2="438.3" gradientUnits="userSpaceOnUse"><stop offset="0" stop-color="#cfc12c"/><stop offset="1" stop-color="#82760a"/></linearGradient><linearGradient id="i" x1="506.53" y1="344.72" x2="480.51" y2="492.32" gradientUnits="userSpaceOnUse"><stop offset="0" stop-color="#ffbf4d"/><stop offset="1" stop-color="#cc8f33"/></linearGradient><linearGradient id="j" x1="523.47" y1="531.69" x2="523.47" y2="323.94" gradientUnits="userSpaceOnUse"><stop offset="0" stop-color="#ebba52"/><stop offset="0.04" stop-color="#ecbd57"/><stop offset="0.28" stop-color="#f4d074"/><stop offset="0.53" stop-color="#fade88"/><stop offset="0.77" stop-color="#fee695"/><stop offset="1" stop-color="#ffe999"/></linearGradient><linearGradient id="k" x1="1301.75" y1="1145.32" x2="2301.38" y2="781.48" gradientTransform="matrix(-1, 0, 0, 1, 2793.27, 213.54)" gradientUnits="userSpaceOnUse"><stop offset="0" stop-color="#989e28"/><stop offset="1" stop-color="#aab033"/></linearGradient><linearGradient id="l" x1="133.14" y1="796.08" x2="1738.41" y2="796.08" gradientUnits="userSpaceOnUse"><stop offset="0" stop-color="#ebc088"/><stop offset="1" stop-color="#ebc088"/></linearGradient><linearGradient id="m" x1="-417.14" y1="329.81" x2="-154.78" y2="198.56" gradientTransform="matrix(1, -0.08, 0, 1, 0, 195.74)" gradientUnits="userSpaceOnUse"><stop offset="0" stop-color="#82760a"/><stop offset="0.04" stop-color="#867a0c"/><stop offset="0.46" stop-color="#aea11d"/><stop offset="0.8" stop-color="#c6b828"/><stop offset="1" stop-color="#cfc12c"/></linearGradient><linearGradient id="n" x1="859.74" y1="717.89" x2="671.13" y2="391.19" gradientUnits="userSpaceOnUse"><stop offset="0" stop-color="#6e4732"/><stop offset="1" stop-color="#82760a"/></linearGradient><linearGradient id="o" x1="31.48" y1="660.73" x2="184.3" y2="464.41" gradientUnits="userSpaceOnUse"><stop offset="0" stop-color="#b38461"/><stop offset="1" stop-color="#d6a175"/></linearGradient><linearGradient id="p" x1="5.06" y1="582.13" x2="88.91" y2="423.82" gradientUnits="userSpaceOnUse"><stop offset="0" stop-color="#996d4e"/><stop offset="1" stop-color="#b8845e"/></linearGradient><linearGradient id="q" x1="173.1" y1="671.14" x2="256.96" y2="512.84" xlink:href="#p"/><linearGradient id="r" x1="62.79" y1="612.71" x2="146.65" y2="454.4" xlink:href="#p"/><linearGradient id="s" x1="118.24" y1="642.08" x2="202.09" y2="483.77" xlink:href="#p"/><linearGradient id="t" x1="228.28" y1="700.37" x2="312.13" y2="542.06" xlink:href="#p"/><linearGradient id="u" x1="285.51" y1="730.68" x2="369.36" y2="572.38" xlink:href="#p"/><linearGradient id="v" x1="343.42" y1="761.36" x2="427.27" y2="603.05" xlink:href="#p"/><linearGradient id="w" x1="396.25" y1="789.34" x2="480.11" y2="631.04" xlink:href="#p"/><linearGradient id="x" x1="-51.44" y1="552.2" x2="32.42" y2="393.9" xlink:href="#p"/><linearGradient id="y" x1="-110.84" y1="520.73" x2="-26.99" y2="362.43" xlink:href="#p"/><linearGradient id="z" x1="-168.22" y1="490.34" x2="-84.36" y2="332.04" xlink:href="#p"/><linearGradient id="aa" x1="-222.46" y1="460.3" x2="-141.82" y2="308.05" xlink:href="#p"/><filter id="ac" x="-260.92" y="536.35" width="1571.34" height="24.67" filterUnits="userSpaceOnUse" color-interpolation-filters="sRGB"><feFlood flood-color="#fff" result="bg"/><feBlend in="SourceGraphic" in2="bg"/></filter><mask id="ab" x="0" y="749.89" width="1571.34" height="24.67" maskUnits="userSpaceOnUse"><g filter="url(#ac)"><g transform="translate(260.92 213.54)"><g mask="url(#a)"><path d="M1309.37,536.35c3.69,7.94-.41,14.16-44.4,17-57.55,3.78-175.94-1-292.53-1-89.79,0-304,6.13-404.37,7.83-256.71,4.35-391.4-11.69-580-4.78-61.89,2.27-154.54,6.74-249,1.65V536.35Z" fill-rule="evenodd" fill="url(#c)" style="mix-blend-mode:multiply"/></g></g></g></mask><linearGradient id="ad" x1="-260.92" y1="548.68" x2="1310.42" y2="548.68" gradientUnits="userSpaceOnUse"><stop offset="0" stop-color="#fcefd2"/><stop offset="1" stop-color="#fffbd1"/></linearGradient><filter id="af" x="1338.92" y="536.35" width="399.47" height="18.69" filterUnits="userSpaceOnUse" color-interpolation-filters="sRGB"><feFlood flood-color="#fff" result="bg"/><feBlend in="SourceGraphic" in2="bg"/></filter><mask id="ae" x="1599.85" y="749.89" width="399.47" height="18.69" maskUnits="userSpaceOnUse"><g filter="url(#af)"><g transform="translate(260.92 213.54)"><g mask="url(#d)"><path d="M1738.39,536.35V555c-109.11-.6-201-1.33-267.66-1.65-91.94-.43-143.31-2.35-129.61-17Z" fill-rule="evenodd" fill="url(#f)" style="mix-blend-mode:multiply"/></g></g></g></mask><linearGradient id="ag" x1="1338.92" y1="545.69" x2="2014.46" y2="545.69" gradientUnits="userSpaceOnUse"><stop offset="0" stop-color="#fffbd1"/><stop offset="1" stop-color="#fcefd2"/></linearGradient></defs><circle cx="615.27" cy="671.75" r="300.73" fill="#fff"/><g clip-path="url(#g)"><rect x="0.01" width="1999.33" height="1332.89" fill="#b0e5e6"/><path d="M481,317.14c-39-36.87-78-4.7-120.78-33.93-71.58-48.85-121.25,4.25-173,4.91C72.86,289.57,75.14,221.82-13,215c-30.41-2.36-57.45,8.1-87.76,7.65-22-.33-47.79-1.47-61.73-20.2-12.66-17.32-4-45.07.52-64.35,5.75-24.32,7.49-57.18-10.23-75.91-28.22-29.81-64.42-25-88.73-20.78V520.75C-141,458.47-33.73,433,65,425.73c95.71-7,182.85,8.52,257,28.13,68.75,18.19,144.6,24,176.05-3.91C537.55,414.82,512.12,346.58,481,317.14Z" transform="translate(260.92 213.54)" fill="#ebfafa" fill-rule="evenodd"/><polygon points="716.68 626.27 734.68 626.27 728.96 317.66 722.4 317.66 716.68 626.27 716.68 626.27" fill="#fff" fill-rule="evenodd"/><polygon points="546.49 626.27 562.84 626.27 557.64 338.68 551.68 338.68 546.49 626.27 546.49 626.27" fill="#fff" fill-rule="evenodd"/><polygon points="397.36 626.27 411.47 626.27 406.99 367.34 401.85 367.34 397.36 626.27 397.36 626.27" fill="#fff" fill-rule="evenodd"/><polygon points="409.18 626.27 411.47 626.27 406.99 367.34 405.97 367.34 407.04 626.27 409.18 626.27" fill="#ccc" fill-rule="evenodd"/><path d="M142,165.36c.23,4,1.72,10.56,1,13.34-.81,3-8.89,23.75-13.33,33.47-.7,1.52-1.57,2.22-2.48,2a1.61,1.61,0,0,1-1.13-2l15.88-58.8a1.61,1.61,0,1,1,3.1.84l-3,11.14Z" transform="translate(260.92 213.54)" fill="#fff" fill-rule="evenodd"/><path d="M134.21,146.75c-3.61-1.81-10-3.79-12-5.83-2.2-2.2-16.13-19.57-22.32-28.28-1-1.37-1.14-2.47-.48-3.14a1.61,1.61,0,0,1,2.27,0l43,43.15a1.61,1.61,0,1,1-2.27,2.27l-8.15-8.18Z" transform="translate(260.92 213.54)" fill="#fff" fill-rule="evenodd"/><path d="M154.24,149.28c3.37-2.21,8.28-6.77,11.06-7.51,3-.8,25-4.17,35.66-5.18,1.67-.16,2.71.24,2.95,1.15a1.61,1.61,0,0,1-1.14,2l-58.86,15.64a1.6,1.6,0,1,1-.83-3.1l11.16-3Z" transform="translate(260.92 213.54)" fill="#fff" fill-rule="evenodd"/><path d="M143.49,146.57a7.23,7.23,0,1,1-7.22,7.23,7.23,7.23,0,0,1,7.22-7.23Z" transform="translate(260.92 213.54)" fill="#fff" fill-rule="evenodd"/><path d="M143.49,150a3.85,3.85,0,1,1-3.84,3.85,3.85,3.85,0,0,1,3.84-3.85Z" transform="translate(260.92 213.54)" fill="#ededed" fill-rule="evenodd"/><polygon points="560.89 626.27 562.84 626.27 557.64 338.68 556.04 338.68 557.4 626.27 560.89 626.27" fill="#ccc" fill-rule="evenodd"/><polygon points="731.74 626.27 734.68 626.27 728.96 317.66 727.48 317.66 728.47 626.27 731.74 626.27" fill="#ccc" fill-rule="evenodd"/><path d="M455.8,116c-2.31,4.6-4.81,12.77-7.4,15.36-2.81,2.81-24.92,20.62-36,28.53-1.74,1.25-3.15,1.47-4,.62a2.05,2.05,0,0,1,0-2.9l54.92-54.91a2,2,0,0,1,2.89,2.89L455.8,116Z" transform="translate(260.92 213.54)" fill="#fff" fill-rule="evenodd"/><path d="M459,90.43c-2.84-4.3-8.66-10.55-9.6-14.09-1-3.83-5.4-31.89-6.71-45.45-.21-2.12.31-3.46,1.47-3.77a2,2,0,0,1,2.5,1.45l20.1,75a2,2,0,1,1-4,1.06L459,90.43Z" transform="translate(260.92 213.54)" fill="#fff" fill-rule="evenodd"/><path d="M479.5,106c5.14-.31,13.46-2.23,17-1.28,3.84,1,30.32,11.28,42.72,16.92,1.94.88,2.84,2,2.53,3.15a2,2,0,0,1-2.51,1.45l-75-20.1a2,2,0,1,1,1.06-4L479.5,106Z" transform="translate(260.92 213.54)" fill="#fff" fill-rule="evenodd"/><path d="M464.76,94.9a9.22,9.22,0,1,1-9.22,9.21,9.22,9.22,0,0,1,9.22-9.21Z" transform="translate(260.92 213.54)" fill="#fff" fill-rule="evenodd"/><path d="M464.76,99.21a4.91,4.91,0,1,1-4.91,4.9,4.91,4.91,0,0,1,4.91-4.9Z" transform="translate(260.92 213.54)" fill="#ededed" fill-rule="evenodd"/><path d="M288.66,137.65c-.94,4.58-1.22,12.34-2.88,15.22-1.81,3.13-17,24-24.89,33.52-1.24,1.5-2.42,2-3.37,1.47a1.86,1.86,0,0,1-.68-2.54l35.29-61.11a1.86,1.86,0,0,1,3.22,1.86l-6.69,11.58Z" transform="translate(260.92 213.54)" fill="#fff" fill-rule="evenodd"/><path d="M285.44,114.48c-3.5-3.1-10.08-7.22-11.74-10.1-1.81-3.13-12.24-26.73-16.58-38.32-.68-1.82-.55-3.11.4-3.65a1.86,1.86,0,0,1,2.54.68l35.29,61.12a1.86,1.86,0,0,1-3.22,1.86l-6.69-11.59Z" transform="translate(260.92 213.54)" fill="#fff" fill-rule="evenodd"/><path d="M307.11,123.28c4.44-1.48,11.29-5.12,14.62-5.12,3.61,0,29.27,2.77,41.48,4.8,1.91.32,3,1.08,3,2.18a1.86,1.86,0,0,1-1.86,1.86H293.74a1.86,1.86,0,0,1,0-3.72Z" transform="translate(260.92 213.54)" fill="#fff" fill-rule="evenodd"/><path d="M293.74,116.77a8.37,8.37,0,1,1-8.37,8.37,8.37,8.37,0,0,1,8.37-8.37Z" transform="translate(260.92 213.54)" fill="#fff" fill-rule="evenodd"/><path d="M293.74,120.68a4.46,4.46,0,1,1-4.46,4.46,4.45,4.45,0,0,1,4.46-4.46Z" transform="translate(260.92 213.54)" fill="#ededed" fill-rule="evenodd"/><path d="M193.43,400.06c-1.38-21.54-20.5-35.73-39-38.08-8.5-1.08-2.22-13.59-20.54-23.51-9.5-5.14-18.84-.87-27.13-5.51-9.22-5.17-10.25-11.83-19.65-16.68-15.86-8.17-31.41,3.87-46.16-.91-15.26-4.94-19.42-12.95-38.13-17.85-14.62-3.82-34.14.1-43.4,8.62-8,7.36-19,20.14-27,19.79-9.58-.41-13.77-9.71-26.06-13.71-12.93-4.21-33.22.46-44.38.88-21.29.8-30.81-11.75-42.65-23.69-26.75-26.94-60.09-22-80.21-11.87V479.83c49.44-21.31,122.18-46.85,237.67-64.17,107.72-16.15,179.07-2.2,191.82-1.07C178.57,415.47,194.05,409.69,193.43,400.06Z" transform="translate(260.92 213.54)" fill-rule="evenodd" fill="url(#h)"/><path d="M1738.41,188.05c-30.24,2.33-63.81,13.41-87,34.68-31,28.4-33.18,65.85-72.09,90.41-49,31-178.84,25.93-147.07,99.55,18.47,42.79,98.48,32.47,161.29,39.39,61.83,6.81,102.07,23.42,144.9,45.37Z" transform="translate(260.92 213.54)" fill="#ebfafa" fill-rule="evenodd"/><path d="M1561,245.54c-21.72-52.62-109.53-51.87-140.85-95.82-17.65-24.75-20.52-51.2-39.82-87.83-32.82-62.28-141.38-45.25-211.63,21-104.29,98.35-157.5-7-298.63,154.73-54,61.83-163.11,11.09-206.55,94.77-3.18,6.11-.45,16.16,6.65,19.88,68.54,35.93,149.18,24.52,172.58,8.26,69.1-48,117.66-62.13,179-52.44,53.83,8.5,97.27,21.86,125.9,33.27,52.21,20.81,98.89,22.25,123.34,4.65,28.75-20.7,34.63-45.85,61.92-54.19C1416.52,266.3,1599.77,339.36,1561,245.54Z" transform="translate(260.92 213.54)" fill="#ebfafa" fill-rule="evenodd"/><path d="M1738.4,464.76v71.59H839.26C1122.07,375.45,1487.2,340.62,1738.4,464.76Z" transform="translate(260.92 213.54)" fill="#c9996e" fill-rule="evenodd"/><path d="M1722.52,536.35h-274V516c0-22.2,18.16-41.14,40.37-41.06a40.06,40.06,0,0,1,27.4,10.9,25.37,25.37,0,0,1,20-9.8h.13a15.2,15.2,0,0,0,14.58-10.41,43.52,43.52,0,0,1,75.17-13.47,30.21,30.21,0,0,0,27,11.24,33.48,33.48,0,0,1,36.64,41.12c25.73-2,37.86,14.46,32.61,31.84Z" transform="translate(260.92 213.54)" fill="#82760a" fill-rule="evenodd"/><path d="M1599.72,536.35a25,25,0,0,0-34-24.53,11.59,11.59,0,0,1-12.3-2.45,35.72,35.72,0,0,0-60.47,27Z" transform="translate(260.92 213.54)" fill="#cfc12c" fill-rule="evenodd"/><path d="M1373.4,535.68l-50.51-65.8a2,2,0,0,1-.08-2.29l39.84-66.71-28.46-66.75a2,2,0,0,1,1-2.58,1.9,1.9,0,0,1,.77-.16,2,2,0,0,1,1.82,1.2l28.86,67.66a2,2,0,0,1-.16,1.85l-39.68,66.44L1378,535.15a2.1,2.1,0,0,1,.29.53Z" transform="translate(260.92 213.54)" fill="#737373"/><path d="M1339.72,218a1,1,0,0,1-.41-.08,1.08,1.08,0,0,1-.58-1.4l6.83-16.49-16.49,6.83a1.15,1.15,0,0,1-.41.08,1.08,1.08,0,0,1-1-1.49,1.06,1.06,0,0,1,.58-.58l16.49-6.83-16.49-6.83a1.08,1.08,0,0,1,.41-2.07,1,1,0,0,1,.41.09l16.49,6.83-6.83-16.5a1.07,1.07,0,0,1,.58-1.4,1.15,1.15,0,0,1,.41-.08,1.08,1.08,0,0,1,1,.67l6.83,16.48,6.82-16.48a1.08,1.08,0,0,1,1-.67,1.19,1.19,0,0,1,.41.08,1.08,1.08,0,0,1,.58,1.4l-6.83,16.49,16.49-6.83a1.15,1.15,0,0,1,.41-.08,1.08,1.08,0,0,1,1,.67,1.06,1.06,0,0,1,0,.82,1,1,0,0,1-.58.58L1350.36,198l16.48,6.83a1.07,1.07,0,0,1-.41,2.07,1.15,1.15,0,0,1-.41-.08L1349.53,200l6.84,16.49a1.11,1.11,0,0,1,0,.82,1,1,0,0,1-.58.58,1.15,1.15,0,0,1-.41.08,1.06,1.06,0,0,1-1-.66l-6.83-16.49-6.83,16.48A1.08,1.08,0,0,1,1339.72,218Z" transform="translate(260.92 213.54)" fill="#4d4d4d"/><path d="M1373.83,535.68l-5.5-64.49h-41.57l-5.5,64.49h-5l5.51-64.49h-4.49a2.51,2.51,0,0,1,0-5h4.91l5.35-62.64H1323a2.51,2.51,0,0,1,0-5h4.92l5.34-62.64h-4.49a2.51,2.51,0,0,1,0-5h4.92l5.34-62.64h-4.49a2.51,2.51,0,0,1,0-5h4.92l5.57-65.34a1.78,1.78,0,0,1,.07-.39l0-.15,0-.14a3,3,0,0,1,.4-.7l.2-.22.13-.12a2.47,2.47,0,0,1,.67-.41l.26-.09.14,0a3,3,0,0,1,.47-.06h.14a2.72,2.72,0,0,1,.53.07l.14,0,.29.1a2.22,2.22,0,0,1,.55.34l.23.21.15.17a2.58,2.58,0,0,1,.38.63l.08.24,0,.13a2.32,2.32,0,0,1,.06.38l5.57,65.35h4.92a2.51,2.51,0,0,1,0,5h-4.49l5.34,62.64h4.92a2.51,2.51,0,0,1,0,5h-4.49l5.34,62.64h4.93a2.51,2.51,0,0,1,0,5h-4.5l5.35,62.64h4.92a2.51,2.51,0,0,1,0,5h-4.49l5.5,64.49Zm-46.64-69.51h40.71l-5.34-62.64h-30Zm5.77-67.66h29.17l-5.34-62.64H1338.3Zm5.77-67.66h17.63L1351,268.21h-6.93Zm5.78-67.66h6.08l-2.38-27.85h-1.33Z" transform="translate(260.92 213.54)" fill="#4d4d4d"/><path d="M1347.55,189.27a8.77,8.77,0,1,1-8.78,8.77,8.77,8.77,0,0,1,8.78-8.77Z" transform="translate(260.92 213.54)" fill="#999" fill-rule="evenodd"/><polygon points="1619.52 353.11 1612.27 391.49 1619.99 394.69 1642 362.42 1619.52 353.11 1619.52 353.11" fill="#999" fill-rule="evenodd"/><polygon points="1657.63 378.05 1625.36 400.06 1628.56 407.78 1666.94 400.52 1657.63 378.05 1657.63 378.05" fill="#999" fill-rule="evenodd"/><polygon points="1666.94 422.64 1628.56 415.38 1625.36 423.1 1657.64 445.11 1666.94 422.64 1666.94 422.64" fill="#999" fill-rule="evenodd"/><polygon points="1597.41 353.11 1604.67 391.49 1596.95 394.69 1574.94 362.42 1597.41 353.11 1597.41 353.11" fill="#999" fill-rule="evenodd"/><polygon points="1559.3 378.06 1591.58 400.06 1588.38 407.78 1550 400.53 1559.3 378.06 1559.3 378.06" fill="#999" fill-rule="evenodd"/><polygon points="1574.94 460.75 1596.95 428.48 1604.67 431.67 1597.42 470.06 1574.94 460.75 1574.94 460.75" fill="#999" fill-rule="evenodd"/><polygon points="1619.53 470.06 1612.27 431.67 1619.99 428.48 1642 460.74 1619.53 470.06 1619.53 470.06" fill="#999" fill-rule="evenodd"/><polygon points="1559.31 445.11 1591.58 423.1 1588.38 415.38 1550 422.64 1559.31 445.11 1559.31 445.11" fill="#999" fill-rule="evenodd"/><path d="M1347.55,194.17a3.87,3.87,0,1,1-3.87,3.87,3.87,3.87,0,0,1,3.87-3.87Z" transform="translate(260.92 213.54)" fill="#ccc" fill-rule="evenodd"/><path d="M1075,536.35H.06c301.27-335.08,824.2-230.07,1075,0Z" transform="translate(260.92 213.54)" fill="#ffd86b" fill-rule="evenodd"/><path d="M945.42,536.35H.06c265-294.68,724.83-202.33,945.36,0Z" transform="translate(260.92 213.54)" fill-rule="evenodd" fill="url(#i)"/><path d="M740.88,536.35H715.06c-13.26-13.88-30.81-23.91-47.65-32.64-39.8-20.66-82.76-35.22-125.34-48.89-23.94-7.69-48.43-14-72.11-22.43-20-7.14-38.84-21.46-28.21-40.9,2.83-5.18,12.63-11.67,9.27-18.41-3.82-7.64-16.93-11.88-24.29-14.15-24.34-7.48-50.71-9.3-76.09-10.88a341,341,0,0,0-37.42-.3c-2.38.12-4.78.26-7.17.43q11-3,22.16-5.67c29.19-.71,62.92,2.18,92.06,7.07,14.34,2.41,39.58,9,43.93,23.67,2.18,7.33-6.13,16.32-10.06,22.4-4.6,7.1-1.13,12.72,4.57,17.25,8.11,6.42,18.52,8.7,28.26,11.51q14.38,4.15,28.76,8.33c40,11.67,80,23.8,118.76,39.13,20.78,8.21,41.35,17.33,60.57,28.77C710.33,509.73,729.3,521.68,740.88,536.35Z" transform="translate(260.92 213.54)" fill="url(#j)"/><rect x="0.01" y="1026.8" width="1999.33" height="306.1" fill="url(#k)"/><polygon points="0 749.89 1999.32 749.89 1999.32 1026.8 0 1026.8 0 749.89 0 749.89" fill="#fcdd6f" fill-rule="evenodd"/><path d="M1014.34,536.35V500.62a28.75,28.75,0,0,0-57.5,0v35.73Z" transform="translate(260.92 213.54)" fill="#cfc12c" fill-rule="evenodd"/><path d="M-260.92,813.25v30.2C-155,849-114.63,874.12-38.22,875c99.33,1.17,188.73-20.52,307.2-20.52,112.52,0,248.24,33.1,355,33.1,99.87,0,240.22-17.28,335-17.28,249.87,0,281,35.46,642.24,35.46h137.15l0-92.54Z" transform="translate(260.92 213.54)" fill="#bacc47" fill-rule="evenodd"/><rect x="-260.92" y="702.34" width="1999.34" height="110.91" transform="translate(1738.41 1729.14) rotate(180)" fill="#c9996e"/><path d="M498.71,813.25c14,9.06,104.78,15.7,152.71,14.84,60.77-1.09,115.47-4.94,188-4.94,68.84,0,151.88,8,217.21,8,61.1,0,147-4.15,205-4.15,152.87,0,171.89,8.52,392.93,8.52h83.92l0-22.22Z" transform="translate(260.92 213.54)" fill="#90961e" fill-rule="evenodd"/><path d="M1738.41,778.9v34.35H133.18s-4.69-6.19,91.69-10.89c109.35-5.34,357.45-13.71,472.9-8.23,145.36,6.91,250.17-13.36,448.05-9,77.38,1.7,153,5.48,222.23,5.48C1457.92,790.6,1633.69,778.9,1738.41,778.9Z" transform="translate(260.92 213.54)" fill-rule="evenodd" fill="url(#l)"/><path d="M1396.44,846.91c0,1.37-22.66,6-58,3.41-30.07-2.17-64.75-.28-102.86,1-88.81,3-160.9-2-160.9-4.43,0-1.29,20.17-4.48,52.31-3.27,31.35,1.19,66.74-1.16,108.59-1.16C1324.4,842.48,1396.44,843,1396.44,846.91Z" transform="translate(260.92 213.54)" fill="#90961e" fill-rule="evenodd"/><path d="M891.41,846.91c0,1.37-12.84,6-32.9,3.41-17-2.17-36.7-.28-58.3,1-50.33,3-91.19-2-91.19-4.43,0-1.29,11.43-4.48,29.64-3.27,17.77,1.19,37.83-1.16,61.55-1.16C850.58,842.48,891.41,843,891.41,846.91Z" transform="translate(260.92 213.54)" fill="#90961e" fill-rule="evenodd"/><path d="M272.89,354.68A35.64,35.64,0,0,0,250,362.75,14.07,14.07,0,0,1,237,365.47a19.77,19.77,0,0,0-25.54,17.84,19.74,19.74,0,0,0,31.49,16.92C248.62,410,275,421.36,290.64,419c15.42-2.34,21.55-12.95,18.53-31.3C306.06,368.74,291.64,354.68,272.89,354.68Z" transform="translate(260.92 213.54)" fill="#82760a"/><path d="M-21.18,402c-.86-11.6-14.4-18.71-25.42-20.09-12.88-1.62-20.87,4.06-32.39,4.56-22.19.95-42.49-12.3-64.78-6.57-10.76,2.77-22.5,9-33.3,11.52-12.81,3-23.5-.93-35-5-17.26-6.05-33.15-6.28-48.87.48V505.37C-206.32,472-118.27,443-60.12,427.69-47.53,424.38-20.29,413.8-21.18,402Z" transform="translate(260.92 213.54)" fill-rule="evenodd" fill="url(#m)"/><path d="M8.26,407.21c9.06,1.46,67.56-.51,85.2-1.64,15.72-1,35.91-1.87,37.78-10.74,3.33-15.84-14.57-24.11-32-20.66-3.48.69-9-.24-12.21-3.45-8.41-8.46-14.3-13.18-26.37-11.84a22.4,22.4,0,0,0-13,6.48c-2.29,2.3-4.19,5.79-7,7.22-4,2-10.83-.65-15.79-1.11C19.28,371-1.81,371-7.39,394.38-9.28,402.29-.47,405.81,8.26,407.21Z" transform="translate(260.92 213.54)" fill="#cfc12c" fill-rule="evenodd"/><path d="M910.63,358.13c-26.29-.61-44.75,18.15-50.3,37.66-20.16-1.16-25.1,3.35-34.6,8.64-5.8,3.23-11.67,3.69-15.21-5.22-5.88-14.8-22.78-22.24-41.11-16.32-8.2,2.65-17.16-.19-23.92-5.54a52.82,52.82,0,0,0-85.24,36c-.15,1.48-.24,2.95-.27,4.4a7.67,7.67,0,0,1-9.24,7.47A34.38,34.38,0,0,0,622,432a29.11,29.11,0,0,1-28.6,4.84,52.84,52.84,0,0,0-71.53,44.93,53.5,53.5,0,0,0,.61,13.56,43.36,43.36,0,0,0-57.2,41.05h497V406.9C962.23,380,941.59,358.85,910.63,358.13Z" transform="translate(260.92 213.54)" fill-rule="evenodd" fill="url(#n)"/><path d="M1264.51,536.35v-.92c0-19.14,15.65-34.07,34.79-34,9.93,0,12.47-5.38,13.72-8.72a25.36,25.36,0,0,1,42.86-8.07,27.46,27.46,0,0,0,24.14,9.05,38.87,38.87,0,0,1,36.34,15.25,12.06,12.06,0,0,0,12.19,4.66c18.4-4.13,34,6.11,37.23,22.76Z" transform="translate(260.92 213.54)" fill="#cfc12c" fill-rule="evenodd"/><path d="M852.31,464.84a31.7,31.7,0,0,0-20.39,7.4,13.82,13.82,0,0,1-14.47,2.11,28.79,28.79,0,0,0-39,17.18,3.59,3.59,0,0,1-5.4,1.85A45.28,45.28,0,0,0,748.23,486a45.83,45.83,0,0,0-12.69,1.79,16.23,16.23,0,0,1-18.35-7.47,29.7,29.7,0,0,0-25.57-14.57c-13.18,0-23,8.12-27.65,20.84-2.55,6.94-6.86,9.49-16.17,8.87C625.31,494,607,513.75,607,536.29v.06H884.22V497.48C884.22,479.93,869.87,464.83,852.31,464.84Z" transform="translate(260.92 213.54)" fill="#cfc12c" fill-rule="evenodd"/><rect x="1650.79" y="712.92" width="5.26" height="36.96" fill="#fff"/><rect x="1536.73" y="712.92" width="5.26" height="36.96" fill="#fff"/><rect x="1530.11" y="717.14" width="125.94" height="6.37" fill="#fff"/><rect x="1530.11" y="737.15" width="125.94" height="6.37" fill="#fff"/><polygon points="1583.65 743.51 1541.99 743.51 1541.99 749.88 1536.72 749.88 1536.72 743.51 1530.11 743.51 1530.11 737.15 1536.72 737.15 1536.72 723.5 1530.11 723.5 1530.11 717.13 1536.72 717.13 1536.72 712.92 1541.99 712.92 1541.99 717.13 1573.27 717.13 1575.78 723.5 1541.99 723.5 1541.99 737.15 1581.14 737.15 1583.65 743.51" fill="#d3d3d3" fill-rule="evenodd"/><path d="M655.71,536.35H-260.91V466.91C-14,340,397,372.84,655.71,536.35Z" transform="translate(260.92 213.54)" fill="#f0b684" fill-rule="evenodd"/><path d="M569.79,536.35h-830.7V469.19C-34,359.14,335.82,390,569.79,536.35Z" transform="translate(260.92 213.54)" fill-rule="evenodd" fill="url(#o)"/><path d="M158.9,390.62a121.53,121.53,0,0,0-36,14.84,168.64,168.64,0,0,0-43.3,38.37,189.91,189.91,0,0,0-29.11,49.91,167.48,167.48,0,0,0-10.71,42.61H16.6a189.78,189.78,0,0,1,14.9-50.62A209.12,209.12,0,0,1,66.18,432.4a184.55,184.55,0,0,1,49.46-39.66c2.09-1.13,4.22-2.21,6.37-3.25Q140.4,389.75,158.9,390.62Z" transform="translate(260.92 213.54)" fill="#c49065"/><path d="M611.71,510.57a35,35,0,0,0-3.41,9,76.36,76.36,0,0,0-1.86,14.28c0,.83-.07,1.65-.08,2.47H587c.25-1.61.54-3.23.86-4.84a93.92,93.92,0,0,1,4.95-17.12,51.43,51.43,0,0,1,5.85-10.75Q605.22,507.06,611.71,510.57Z" transform="translate(260.92 213.54)" fill="#c49065"/><path d="M350.37,415.81A88.22,88.22,0,0,0,322,428.29c-12.9,8.6-23.87,20.11-32.71,33A160.21,160.21,0,0,0,269,503.51a177.18,177.18,0,0,0-7,32.84h-23a200.5,200.5,0,0,1,10.62-39.66,179.53,179.53,0,0,1,25.63-45.76c10.78-13.84,23.88-26.08,39.22-35a103.87,103.87,0,0,1,10.52-5.35Q337.68,413,350.37,415.81Z" transform="translate(260.92 213.54)" fill="#c49065"/><path d="M227.05,395.88a126.5,126.5,0,0,0-29,12.21,160.47,160.47,0,0,0-43.5,37.05,180,180,0,0,0-28.95,49.16A172.79,172.79,0,0,0,115,536.35H91.78a193.49,193.49,0,0,1,14.75-50.05,199,199,0,0,1,34.63-52.81A177,177,0,0,1,191,395.06c1.44-.72,2.89-1.44,4.36-2.12Q211.22,394.17,227.05,395.88Z" transform="translate(260.92 213.54)" fill="#c49065"/><path d="M288.61,404.12A112.82,112.82,0,0,0,263,415.8a148.55,148.55,0,0,0-39.2,35.58,165.81,165.81,0,0,0-34,85H166.65a185.88,185.88,0,0,1,43.45-96.19A164.8,164.8,0,0,1,255.63,403q2.85-1.54,5.79-3Q275,401.94,288.61,404.12Z" transform="translate(260.92 213.54)" fill="#c49065"/><path d="M407.77,429.92a89.48,89.48,0,0,0-22.4,11,113.78,113.78,0,0,0-29.52,29.51,135.64,135.64,0,0,0-18.21,37.66,140,140,0,0,0-5.56,28.27H309.17a158.57,158.57,0,0,1,32.55-76.53,130,130,0,0,1,35.88-31.39c2.66-1.54,5.38-3,8.17-4.31Q396.83,426.91,407.77,429.92Z" transform="translate(260.92 213.54)" fill="#c49065"/><path d="M462.19,446.4a85.19,85.19,0,0,0-20,11.68,88.23,88.23,0,0,0-21.91,25.38A107.9,107.9,0,0,0,408.33,515a142.13,142.13,0,0,0-2.89,21.32H382.76a168,168,0,0,1,5.68-26.6,127.1,127.1,0,0,1,17-35.76,104.29,104.29,0,0,1,28.24-27.79,93.6,93.6,0,0,1,10-5.77Q453,443.29,462.19,446.4Z" transform="translate(260.92 213.54)" fill="#c49065"/><path d="M512.15,464.47a49.59,49.59,0,0,0-7.55,6.19A78,78,0,0,0,489,493.57a104,104,0,0,0-5,13.21,120,120,0,0,0-3.27,13.81,130.17,130.17,0,0,0-1.8,15.76H456.47A153.64,153.64,0,0,1,460.66,516,143.54,143.54,0,0,1,466,500.27a124.32,124.32,0,0,1,7.37-14.91,93.88,93.88,0,0,1,21.48-25.71c.49-.41,1-.81,1.51-1.21Q504.31,461.38,512.15,464.47Z" transform="translate(260.92 213.54)" fill="#c49065"/><path d="M561.13,485.3a30.54,30.54,0,0,0-3.69,3.9c-3.92,5-6.78,11.25-8.86,17.81a100.06,100.06,0,0,0-4.07,20.47c-.28,2.95-.44,5.94-.44,8.87H524.19A117.53,117.53,0,0,1,526,524.66a116.18,116.18,0,0,1,7.3-23.49c3.34-7.56,7.55-15,13.77-21.36.2-.2.4-.41.61-.59Q554.41,482.2,561.13,485.3Z" transform="translate(260.92 213.54)" fill="#c49065"/><path d="M90.5,389.49A150.88,150.88,0,0,0,54,403.7,168.72,168.72,0,0,0,7.62,441.35a182.43,182.43,0,0,0-31.08,50.73A175.89,175.89,0,0,0-35,536.35h-23.2a197.4,197.4,0,0,1,15.91-52.49A201.26,201.26,0,0,1-5.4,429.46,184.62,184.62,0,0,1,46.53,391Q68.37,389.81,90.5,389.49Z" transform="translate(260.92 213.54)" fill="#c49065"/><path d="M2.36,394.5a144.3,144.3,0,0,0-26.62,11.8,158.74,158.74,0,0,0-44,37.28,175.05,175.05,0,0,0-28.65,49.85,179,179,0,0,0-10.25,42.92h-23.16A201.55,201.55,0,0,1-116,485.71,194.08,194.08,0,0,1-81.62,432,176.47,176.47,0,0,1-43.76,400.3Q-21,396.84,2.36,394.5Z" transform="translate(260.92 213.54)" fill="#c49065"/><path d="M-85.54,407.63A133.77,133.77,0,0,0-108,419a144.94,144.94,0,0,0-38,34.79A157.63,157.63,0,0,0-170.13,499a173.51,173.51,0,0,0-8.15,37.31h-23.08a195.93,195.93,0,0,1,11.89-44.53,177,177,0,0,1,29.74-49.25,164.77,164.77,0,0,1,24.45-23.3Q-110.92,412.72-85.54,407.63Z" transform="translate(260.92 213.54)" fill="#c49065"/><path d="M-180.44,433q-2.17,1.26-4.31,2.58a136.65,136.65,0,0,0-34.2,30.15,130.75,130.75,0,0,0-21.69,39.43,144.78,144.78,0,0,0-7,31.21h-13.31V500.27c.33-.82.67-1.66,1-2.48a150,150,0,0,1,27.55-43.6c.48-.54,1-1.07,1.48-1.6Q-206.51,441.88-180.44,433Z" transform="translate(260.92 213.54)" fill="#c49065"/><path d="M124.13,404.72l-1.25.74a168.64,168.64,0,0,0-43.3,38.37,189.91,189.91,0,0,0-29.11,49.91,167.48,167.48,0,0,0-10.71,42.61H16.6a189.78,189.78,0,0,1,14.9-50.62A209.12,209.12,0,0,1,66.18,432.4a193.43,193.43,0,0,1,32-28.8Q111.16,404,124.13,404.72Z" transform="translate(260.92 213.54)" fill="url(#p)"/><path d="M315.67,432.89a126.09,126.09,0,0,0-26.34,28.42A160.21,160.21,0,0,0,269,503.51a177.18,177.18,0,0,0-7,32.84h-23a200.5,200.5,0,0,1,10.62-39.66,179.53,179.53,0,0,1,25.63-45.76,147.92,147.92,0,0,1,21.46-22.45h0Q306.2,430.61,315.67,432.89Z" transform="translate(260.92 213.54)" fill="url(#q)"/><path d="M193.43,410.84a162.05,162.05,0,0,0-38.92,34.3,180,180,0,0,0-28.95,49.16A172.79,172.79,0,0,0,115,536.35H91.78a193.49,193.49,0,0,1,14.75-50.05,199,199,0,0,1,34.63-52.81,183.61,183.61,0,0,1,28.37-25.28Q181.49,409.37,193.43,410.84Z" transform="translate(260.92 213.54)" fill="url(#r)"/><path d="M256.12,420.3a151.42,151.42,0,0,0-32.36,31.08,165.81,165.81,0,0,0-34,85H166.65a185.88,185.88,0,0,1,43.45-96.19,172.87,172.87,0,0,1,24.73-23.5Q245.5,418.37,256.12,420.3Z" transform="translate(260.92 213.54)" fill="url(#s)"/><path d="M374.75,449.12a118,118,0,0,0-18.9,21.3,135.64,135.64,0,0,0-18.21,37.66,140,140,0,0,0-5.56,28.27H309.17a158.57,158.57,0,0,1,32.55-76.53,138.59,138.59,0,0,1,15.06-16.06Q365.81,446.34,374.75,449.12Z" transform="translate(260.92 213.54)" fill="url(#t)"/><path d="M431.14,468.42a89.31,89.31,0,0,0-10.89,15A107.9,107.9,0,0,0,408.33,515a142.13,142.13,0,0,0-2.89,21.32H382.76a168,168,0,0,1,5.68-26.6,127.1,127.1,0,0,1,17-35.76,109.25,109.25,0,0,1,9.28-11.63Q423,465.31,431.14,468.42Z" transform="translate(260.92 213.54)" fill="url(#u)"/><path d="M489.35,492.89c-.12.23-.23.46-.33.68a104,104,0,0,0-5,13.21,120,120,0,0,0-3.27,13.81,130.17,130.17,0,0,0-1.8,15.76H456.47A153.64,153.64,0,0,1,460.66,516,143.54,143.54,0,0,1,466,500.27a123.18,123.18,0,0,1,7.23-14.67Q481.35,489.17,489.35,492.89Z" transform="translate(260.92 213.54)" fill="url(#v)"/><path d="M545.23,521.69q-.43,2.89-.72,5.79c-.28,2.95-.44,5.94-.44,8.87H524.19A117.53,117.53,0,0,1,526,524.66a122.41,122.41,0,0,1,3-12Q537.2,517.11,545.23,521.69Z" transform="translate(260.92 213.54)" fill="url(#w)"/><path d="M54.93,403.2c-.32.16-.63.33-.94.5A168.72,168.72,0,0,0,7.62,441.35a182.43,182.43,0,0,0-31.08,50.73A175.89,175.89,0,0,0-35,536.35h-23.2a197.4,197.4,0,0,1,15.91-52.49A201.26,201.26,0,0,1-5.4,429.46,189.3,189.3,0,0,1,24.4,404Q39.58,403.38,54.93,403.2Z" transform="translate(260.92 213.54)" fill="url(#x)"/><path d="M-26.43,407.57a159.18,159.18,0,0,0-41.79,36,175.05,175.05,0,0,0-28.65,49.85,179,179,0,0,0-10.25,42.92h-23.16A201.55,201.55,0,0,1-116,485.71,194.08,194.08,0,0,1-81.62,432a180.5,180.5,0,0,1,21.94-20.53Q-43.21,409.22-26.43,407.57Z" transform="translate(260.92 213.54)" fill="url(#y)"/><path d="M-109.2,419.73a144.69,144.69,0,0,0-36.8,34A157.63,157.63,0,0,0-170.13,499a173.51,173.51,0,0,0-8.15,37.31h-23.08a195.93,195.93,0,0,1,11.89-44.53,177,177,0,0,1,29.74-49.25,164.6,164.6,0,0,1,14.17-14.64Q-127.68,423.4-109.2,419.73Z" transform="translate(260.92 213.54)" fill="url(#z)"/><path d="M-194.56,442.26a134.21,134.21,0,0,0-24.39,23.45,130.75,130.75,0,0,0-21.69,39.43,144.78,144.78,0,0,0-7,31.21h-13.31V500.27c.33-.82.67-1.66,1-2.48a150.41,150.41,0,0,1,24.5-40.13h0Q-215.57,449.29-194.56,442.26Z" transform="translate(260.92 213.54)" fill="url(#aa)"/><g mask="url(#ab)"><path d="M1309.37,536.35c3.69,7.94-.41,14.16-44.4,17-57.55,3.78-175.94-1-292.53-1-89.79,0-304,6.13-404.37,7.83-256.71,4.35-391.4-11.69-580-4.78-61.89,2.27-154.54,6.74-249,1.65V536.35Z" transform="translate(260.92 213.54)" fill-rule="evenodd" fill="url(#ad)"/></g><g mask="url(#ae)"><path d="M1738.39,536.35V555c-109.11-.6-201-1.33-267.66-1.65-91.94-.43-143.31-2.35-129.61-17Z" transform="translate(260.92 213.54)" fill-rule="evenodd" fill="url(#ag)"/></g><path d="M-260.92,727.62V702.34H431.42s2,4.56-39.55,8c-47.16,3.92-154.17,10.09-204,6C125.21,711.33,80,726.24-5.34,723c-33.37-1.25-66-4-95.85-4C-139.95,719-215.76,727.62-260.92,727.62Z" transform="translate(260.92 213.54)" fill="#8a5d46" fill-rule="evenodd"/><polygon points="1358.14 749.89 1426.59 749.89 1426.59 429.17 1358.14 429.17 1358.14 749.89 1358.14 749.89" fill="#ccc" fill-rule="evenodd"/><polygon points="1426.59 749.89 1449.01 749.89 1449.01 429.17 1426.59 429.17 1426.59 749.89 1426.59 749.89" fill="#999797" fill-rule="evenodd"/><path d="M1142.65,170.2a45.43,45.43,0,0,1,45.43,45.43h-90.86a45.43,45.43,0,0,1,45.43-45.43Z" transform="translate(260.92 213.54)" fill="#ccc" fill-rule="evenodd"/><path d="M1131.44,181.41a34.22,34.22,0,0,1,34.23,34.22h-68.45a34.22,34.22,0,0,1,34.22-34.22Z" transform="translate(260.92 213.54)" fill="#ededed" fill-rule="evenodd"/><path d="M1121.36,181.3a9.89,9.89,0,0,1,10.64,9.89,11.31,11.31,0,0,1-10.71,11,9.89,9.89,0,0,1-10.64-9.89,11.31,11.31,0,0,1,10.71-11Z" transform="translate(260.92 213.54)" fill="#fff" fill-rule="evenodd"/><path d="M1097.22,220.24a2.31,2.31,0,0,1,0-4.61h68.45v4.61Z" transform="translate(260.92 213.54)" fill="#999797" fill-rule="evenodd"/><path d="M1165.67,220.24v-4.61h22.41a2.31,2.31,0,0,1,0,4.61Z" transform="translate(260.92 213.54)" fill="#666" fill-rule="evenodd"/><path d="M1097.22,256a2.31,2.31,0,0,1,0-4.61h68.45V256Z" transform="translate(260.92 213.54)" fill="#999797" fill-rule="evenodd"/><path d="M1165.67,256v-4.61h22.41a2.31,2.31,0,0,1,0,4.61Z" transform="translate(260.92 213.54)" fill="#666" fill-rule="evenodd"/><path d="M1097.22,291.82a2.31,2.31,0,0,1,0-4.61h68.45v4.61Z" transform="translate(260.92 213.54)" fill="#999797" fill-rule="evenodd"/><path d="M1165.67,291.82v-4.61h22.41a2.31,2.31,0,0,1,0,4.61Z" transform="translate(260.92 213.54)" fill="#666" fill-rule="evenodd"/><path d="M1097.22,327.61a2.31,2.31,0,0,1,0-4.61h68.45v4.61Z" transform="translate(260.92 213.54)" fill="#999797" fill-rule="evenodd"/><path d="M1165.67,327.61V323h22.41a2.31,2.31,0,0,1,0,4.61Z" transform="translate(260.92 213.54)" fill="#666" fill-rule="evenodd"/><path d="M1097.22,363.4a2.31,2.31,0,0,1,0-4.61h68.45v4.61Z" transform="translate(260.92 213.54)" fill="#999797" fill-rule="evenodd"/><path d="M1165.67,363.4v-4.61h22.41a2.31,2.31,0,0,1,0,4.61Z" transform="translate(260.92 213.54)" fill="#666" fill-rule="evenodd"/><path d="M1097.22,399.19a2.31,2.31,0,0,1,0-4.61h68.45v4.61Z" transform="translate(260.92 213.54)" fill="#999797" fill-rule="evenodd"/><path d="M1165.67,399.19v-4.61h22.41a2.31,2.31,0,0,1,0,4.61Z" transform="translate(260.92 213.54)" fill="#666" fill-rule="evenodd"/><path d="M1097.22,435a2.31,2.31,0,0,1,0-4.61h68.45V435Z" transform="translate(260.92 213.54)" fill="#999797" fill-rule="evenodd"/><path d="M1165.67,435v-4.61h22.41a2.31,2.31,0,0,1,0,4.61Z" transform="translate(260.92 213.54)" fill="#666" fill-rule="evenodd"/><path d="M1097.22,470.77a2.31,2.31,0,0,1,0-4.61h68.45v4.61Z" transform="translate(260.92 213.54)" fill="#999797" fill-rule="evenodd"/><path d="M1165.67,470.77v-4.61h22.41a2.31,2.31,0,0,1,0,4.61Z" transform="translate(260.92 213.54)" fill="#666" fill-rule="evenodd"/><path d="M1097.22,506.56a2.31,2.31,0,0,1,0-4.61h68.45v4.61Z" transform="translate(260.92 213.54)" fill="#999797" fill-rule="evenodd"/><path d="M1165.67,506.56V502h22.41a2.31,2.31,0,0,1,0,4.61Z" transform="translate(260.92 213.54)" fill="#666" fill-rule="evenodd"/><polygon points="1256.55 749.89 1325 749.89 1325 429.17 1256.55 429.17 1256.55 749.89 1256.55 749.89" fill="#ccc" fill-rule="evenodd"/><polygon points="1325 749.89 1347.42 749.89 1347.42 429.17 1325 429.17 1325 749.89 1325 749.89" fill="#999797" fill-rule="evenodd"/><path d="M1041.06,170.2a45.43,45.43,0,0,1,45.43,45.43H995.63a45.43,45.43,0,0,1,45.43-45.43Z" transform="translate(260.92 213.54)" fill="#ccc" fill-rule="evenodd"/><path d="M1029.85,181.41a34.23,34.23,0,0,1,34.23,34.22H995.63a34.22,34.22,0,0,1,34.22-34.22Z" transform="translate(260.92 213.54)" fill="#ededed" fill-rule="evenodd"/><path d="M1019.77,181.3a9.89,9.89,0,0,1,10.64,9.89,11.31,11.31,0,0,1-10.71,11,9.89,9.89,0,0,1-10.64-9.89,11.31,11.31,0,0,1,10.71-11Z" transform="translate(260.92 213.54)" fill="#fff" fill-rule="evenodd"/><path d="M995.63,220.24a2.31,2.31,0,0,1,0-4.61h68.45v4.61Z" transform="translate(260.92 213.54)" fill="#999797" fill-rule="evenodd"/><path d="M1064.08,220.24v-4.61h22.41a2.31,2.31,0,0,1,0,4.61Z" transform="translate(260.92 213.54)" fill="#666" fill-rule="evenodd"/><path d="M995.63,256a2.31,2.31,0,0,1,0-4.61h68.45V256Z" transform="translate(260.92 213.54)" fill="#999797" fill-rule="evenodd"/><path d="M1064.08,256v-4.61h22.41a2.31,2.31,0,0,1,0,4.61Z" transform="translate(260.92 213.54)" fill="#666" fill-rule="evenodd"/><path d="M995.63,291.82a2.31,2.31,0,0,1,0-4.61h68.45v4.61Z" transform="translate(260.92 213.54)" fill="#999797" fill-rule="evenodd"/><path d="M1064.08,291.82v-4.61h22.41a2.31,2.31,0,0,1,0,4.61Z" transform="translate(260.92 213.54)" fill="#666" fill-rule="evenodd"/><path d="M995.63,327.61a2.31,2.31,0,0,1,0-4.61h68.45v4.61Z" transform="translate(260.92 213.54)" fill="#999797" fill-rule="evenodd"/><path d="M1064.08,327.61V323h22.41a2.31,2.31,0,0,1,0,4.61Z" transform="translate(260.92 213.54)" fill="#666" fill-rule="evenodd"/><path d="M995.63,363.4a2.31,2.31,0,0,1,0-4.61h68.45v4.61Z" transform="translate(260.92 213.54)" fill="#999797" fill-rule="evenodd"/><path d="M1064.08,363.4v-4.61h22.41a2.31,2.31,0,0,1,0,4.61Z" transform="translate(260.92 213.54)" fill="#666" fill-rule="evenodd"/><path d="M995.63,399.19a2.31,2.31,0,0,1,0-4.61h68.45v4.61Z" transform="translate(260.92 213.54)" fill="#999797" fill-rule="evenodd"/><path d="M1064.08,399.19v-4.61h22.41a2.31,2.31,0,0,1,0,4.61Z" transform="translate(260.92 213.54)" fill="#666" fill-rule="evenodd"/><path d="M995.63,435a2.31,2.31,0,0,1,0-4.61h68.45V435Z" transform="translate(260.92 213.54)" fill="#999797" fill-rule="evenodd"/><path d="M1064.08,435v-4.61h22.41a2.31,2.31,0,0,1,0,4.61Z" transform="translate(260.92 213.54)" fill="#666" fill-rule="evenodd"/><path d="M995.63,470.77a2.31,2.31,0,0,1,0-4.61h68.45v4.61Z" transform="translate(260.92 213.54)" fill="#999797" fill-rule="evenodd"/><path d="M1064.08,470.77v-4.61h22.41a2.31,2.31,0,0,1,0,4.61Z" transform="translate(260.92 213.54)" fill="#666" fill-rule="evenodd"/><path d="M995.63,506.56a2.31,2.31,0,0,1,0-4.61h68.45v4.61Z" transform="translate(260.92 213.54)" fill="#999797" fill-rule="evenodd"/><path d="M1064.08,506.56V502h22.41a2.31,2.31,0,0,1,0,4.61Z" transform="translate(260.92 213.54)" fill="#666" fill-rule="evenodd"/><polygon points="1358.08 665.41 1093.28 665.41 1096.21 672.86 1361.01 672.86 1358.08 665.41 1358.08 665.41" fill="#a2a2a2" fill-rule="evenodd"/><polygon points="1460.86 595.54 1196.06 595.54 1093.28 665.41 1358.08 665.41 1460.86 595.54 1460.86 595.54" fill="#fff" fill-rule="evenodd"/><polygon points="1358.08 665.41 1460.86 595.54 1563.64 665.41 1560.71 672.86 1460.86 604.98 1361.01 672.86 1358.08 665.41 1358.08 665.41" fill="#d3d3d3" fill-rule="evenodd"/><polygon points="1530.11 663.87 1452.17 610.88 1460.86 604.98 1560.71 672.86 1530.11 672.86 1530.11 663.87 1530.11 663.87" fill="#a2a2a2" fill-rule="evenodd"/><polygon points="1530.11 663.87 1452.17 610.88 1361.01 672.86 1356.85 672.86 1356.85 749.88 1530.11 749.88 1530.11 663.87 1530.11 663.87" fill="#ba481a" fill-rule="evenodd"/><polygon points="1356.85 749.88 1356.85 682.17 1126.81 682.17 1126.81 749.88 1356.85 749.88 1356.85 749.88" fill="#ff8543" fill-rule="evenodd"/><polygon points="1126.81 682.17 1126.81 749.88 1256.63 749.88 1229.97 682.17 1126.81 682.17 1126.81 682.17" fill="#e65d21" fill-rule="evenodd"/><polygon points="1416.52 635.12 1361.01 672.86 1356.85 672.86 1356.85 749.88 1461.69 749.88 1418.45 640.03 1447.18 620.5 1530.1 676.86 1530.11 663.87 1452.17 610.88 1416.52 635.12 1416.52 635.12" fill="#9e2e01" fill-rule="evenodd"/><polygon points="1385.59 685.4 1495.61 685.4 1495.61 749.88 1385.59 749.88 1385.59 685.4 1385.59 685.4" fill="#5e3b1d" fill-rule="evenodd"/><polygon points="1495.61 685.4 1501.37 685.4 1501.37 749.88 1495.61 749.88 1495.61 685.4 1495.61 685.4" fill="#ffa469" fill-rule="evenodd"/><polygon points="1385.59 685.4 1430.19 685.4 1455.57 749.88 1385.59 749.88 1385.59 685.4 1385.59 685.4" fill="#3d2208" fill-rule="evenodd"/><polygon points="1356.85 682.17 1356.85 672.86 1126.81 672.86 1126.81 682.17 1356.85 682.17 1356.85 682.17" fill="#e65d21" fill-rule="evenodd"/><polygon points="1265.63 685.4 1317.48 685.4 1317.48 707.65 1265.63 707.65 1265.63 685.4 1265.63 685.4" fill="#42d3e0" fill-rule="evenodd"/><polygon points="1259.87 685.4 1265.63 685.4 1265.63 707.65 1259.87 707.65 1259.87 685.4 1259.87 685.4" fill="#9e3b0c" fill-rule="evenodd"/><polygon points="1265.63 685.4 1317.48 685.4 1317.48 690.98 1281.97 690.98 1281.97 707.65 1265.63 707.65 1265.63 685.4 1265.63 685.4" fill="#1d4e52" fill-rule="evenodd"/><polygon points="1166.17 685.4 1171.93 685.4 1171.93 707.65 1166.17 707.65 1166.17 685.4 1166.17 685.4" fill="#9e3b0c" fill-rule="evenodd"/><polygon points="1126.81 672.86 1126.81 682.17 1229.97 682.17 1226.31 672.86 1126.81 672.86 1126.81 672.86" fill="#b54012" fill-rule="evenodd"/><polygon points="1171.94 685.4 1223.78 685.4 1223.78 707.65 1171.94 707.65 1171.94 685.4 1171.94 685.4" fill="#42d3e0" fill-rule="evenodd"/><polygon points="1171.94 685.4 1223.78 685.4 1223.78 690.98 1188.28 690.98 1188.28 707.65 1171.94 707.65 1171.94 685.4 1171.94 685.4" fill="#1d4e52" fill-rule="evenodd"/><polygon points="1229.95 595.54 1196.06 595.54 1093.28 665.41 1257.35 665.41 1229.95 595.54" fill="#ededed" fill-rule="evenodd"/><rect x="1057.38" y="712.93" width="5.23" height="36.96" fill="#fff"/><rect x="943.97" y="712.93" width="5.23" height="36.96" fill="#fff"/><rect x="830.55" y="712.93" width="5.23" height="36.96" fill="#fff"/><rect x="830.55" y="717.14" width="458.88" height="6.37" fill="#fff"/><rect x="830.55" y="737.15" width="458.88" height="6.37" fill="#fff"/><rect x="1284.21" y="712.93" width="5.23" height="36.96" fill="#fff"/><rect x="1170.79" y="712.93" width="5.23" height="36.96" fill="#fff"/><path d="M1107.6-213.54c15.65,50.74-7.33,83.73-30.73,112.23C1053.61-73,1046.35-30.17,1046.29-7.1,1046.12,54.21,1103,56.68,1148,33.56c42.21-21.64,54.75-61.69,104.66-93.29,77.24-48.9,199.75-60,219.37-153.81Z" transform="translate(260.92 213.54)" fill="#ebfafa" fill-rule="evenodd"/><path d="M13.64,86C-23,68.41-5.85,25.86-23.7-.94c-33-49.57-43.09-66.58-18.67-101.82C-20-135,13.59-175-1.48-213.54H-226.89c40.07,68.3-19.42,133.77,42.06,192.86C-156.54,6.5-105.47,6-75,34.81-59.75,49.28-59.21,69.2-52,87.74c13.39,34.53,54.17,47,87.37,55.65,33.52,8.72,28.74,29.84,44.78,40.61,26,17.45,18.15-15.65,11.18-36.73C80.67,115.06,45.46,101.29,13.64,86Z" transform="translate(260.92 213.54)" fill="#ebfafa" fill-rule="evenodd"/><path d="M736.12-213.54c2.74,25.37-1.78,63.06-34.24,74.29-74.26,25.68-92.89,29-105.4,69.33-3.79,12.21-7.38,31.68-16.57,44.65-14.6,20.64-17.76,38.93-8.58,44.12,18.35,10.37,49.35-40.27,79.49-46.78,72.35-15.64,116.44,8.85,164.61-61.73,30.7-45,79-33,113.76-60.16,23.41-18.31,29.53-40.67,28.47-63.72Z" transform="translate(260.92 213.54)" fill="#ebfafa" fill-rule="evenodd"/><path d="M1738.41,54.44c-25.14,10-48.58,31.33-68,50.2-12.18,11.83-27.92,18.69-38.48,32.5-12.42,16.26-11.82,40.69,7.53,36.59,31.65-6.71,50.69-34.93,81.48-45a169.69,169.69,0,0,1,17.46-4.72Z" transform="translate(260.92 213.54)" fill="#ebfafa" fill-rule="evenodd"/></g><polygon points="749.26 682.55 816.19 629.03 814.13 626.34 738.79 677.48 749.26 682.55" fill="#ff9e2e"/><polygon points="815.03 627.52 814.13 626.34 738.79 677.48 815.03 627.52" fill="#fff" opacity="0.4"/><polygon points="779.68 652.91 781.99 655.35 749.26 682.55 802.71 639.82 802.71 639.82 803.39 639.27 803.39 639.27 808.88 634.88 808.88 634.88 809.33 634.52 816.19 629.03 815.2 627.74 808.03 633.71 807.46 633.38 807.88 633.83 802.17 638.57 800.76 637.76 801.81 638.87 797.47 642.48 795.47 641.33 796.96 642.9 792.54 646.58 789.52 644.86 791.76 647.22 787.67 650.62 784.74 648.95 786.92 651.25 782.79 654.68 779.68 652.91" fill="#d04000" opacity="0.4"/><path d="M573.37,420.71c-19.28,6.44-38.4-10.26-52.7-32.38,9,8.72,18.44,15.58,28.22,19.69a34.66,34.66,0,0,0,9.57-19.21A47.23,47.23,0,0,0,559,380c3,7.73,4.32,15,3.32,21.18a21,21,0,0,1-2.08,6.41,41.41,41.41,0,0,0,17-18.15A54.9,54.9,0,0,0,581,379.5c.66,9.91-.41,18.69-3.75,25.42a25,25,0,0,1-5.4,7.3A45.06,45.06,0,0,0,583.45,410a52.78,52.78,0,0,0,9.55-4.32C587.11,413,580.51,418.33,573.37,420.71Z" transform="translate(260.92 213.54)" fill="#ff9e2e"/><path d="M583.28,410.87a17.91,17.91,0,0,1-11.41,1.35A45.06,45.06,0,0,0,583.45,410a52.78,52.78,0,0,0,9.55-4.32C589.89,407.41,585.8,409.74,583.28,410.87Z" transform="translate(260.92 213.54)" fill="#d04000" opacity="0.4"/><path d="M581,379.5c-1,3.54-1.53,8.29-2.55,10.89-2.29,5.83-8.46,14.23-18.25,17.18a41.41,41.41,0,0,0,17-18.15A54.9,54.9,0,0,0,581,379.5Z" transform="translate(260.92 213.54)" fill="#d04000" opacity="0.4"/><path d="M558.46,388.81c-1.26,7.81-3.32,16.79-8.27,21.86-9.79-4.12-20.57-13.62-29.52-22.34,9,8.72,18.44,15.58,28.22,19.69A34.66,34.66,0,0,0,558.46,388.81Z" transform="translate(260.92 213.54)" fill="#d04000" opacity="0.4"/><path d="M593,405.63c-5.89,7.32-10.88,9.83-18,12.22-11.51,3.85-26-.55-38.66-10C547.66,419,560.48,425,573.37,420.71,580.51,418.33,587.11,413,593,405.63Z" transform="translate(260.92 213.54)" fill="#fff" opacity="0.4"/><path d="M209,520.65c-4.86,10.74-33.89,36.27-47.55,38s-23.31-9.92-23.66-18.41,8.74-10.62,22.39-12.36S212.23,513.54,209,520.65Z" transform="translate(260.92 213.54)" fill="#999"/><path d="M164.69,551.21c-12,1.82-21.26-2.17-26.3-7.54,2.32,7.87,11.17,16.51,23.06,15,8-1,21.27-10.2,31.88-19.79C182.58,545.17,171.92,550.11,164.69,551.21Z" transform="translate(260.92 213.54)" fill="#fff" opacity="0.4"/><path d="M171.31,498.05c-2.44,9.63-25.93,11.79-40.78,3.14s-21.09-28.95-18.65-38.57,12.63-4.93,27.48,3.72S173.74,488.43,171.31,498.05Z" transform="translate(260.92 213.54)" fill="#999"/><path d="M167.72,515.46c.42,10.4-20.21,25.83-36,26.2s-26.92-15.06-27.33-25.46,10.06-11.81,25.82-12.18S167.3,505.07,167.72,515.46Z" transform="translate(260.92 213.54)" fill="#999"/><path d="M141.56,538.44c-20.31,1.16-33.94-14.94-34-26.13a10.49,10.49,0,0,1,1-4.61c-2.79,1.79-4.28,4.47-4.11,8.5.41,10.4,11.57,25.84,27.33,25.46a38.06,38.06,0,0,0,14.62-3.78A43.47,43.47,0,0,1,141.56,538.44Z" transform="translate(260.92 213.54)" fill="#fff" opacity="0.4"/><path d="M174,509.07c-2.44,9.62-58.82,7.77-73.67-.88s-21.09-29-18.65-38.58,12.63-4.92,27.48,3.73S176.38,499.44,174,509.07Z" transform="translate(260.92 213.54)" fill="#999"/><path d="M216.67,489.68c7.78,22.5-22.42,51.56-38.95,53S150,522.21,149.9,507c-.05-7.47-15.22-42.93-10.13-40.36,13.5,6.81,29.31,19.73,37.72,19C194,484.14,211.68,475.27,216.67,489.68Z" transform="translate(260.92 213.54)" fill="#999"/><path d="M145.31,473.31a95.87,95.87,0,0,0,25,10.77c-8.5-3.46-19.85-11.93-30-17.14l-1-.6c-14.85-8.65-25-13.35-27.48-3.72-2.12,8.39,2.36,24.91,13.39,34.73-6.57-7.5-11.42-17-10-25.37C117.76,457,137.93,468.67,145.31,473.31Z" transform="translate(260.92 213.54)" fill="#fff" opacity="0.4"/><path d="M174,509.07c-2.44,9.62-58.82,7.77-73.67-.88s-21.09-29-18.65-38.58,12.63-4.92,27.48,3.73S176.38,499.44,174,509.07Z" transform="translate(260.92 213.54)" fill="#999"/><path d="M81.63,469.61c-2.44,9.62,3.81,29.93,18.65,38.58.36.21.76.41,1.17.61-9.5-8.75-14.21-22.39-13-30.21,1.48-10,12-6.66,27.39,0a101.56,101.56,0,0,0,13.65,4.19c-8.45-3.62-16-6.9-20.33-9.42C94.26,464.69,84.07,460,81.63,469.61Z" transform="translate(260.92 213.54)" fill="#fff" opacity="0.4"/><path d="M203.94,502.57c1.31,10.19-42.14,32.3-56.26,30.35s-25.54-18.64-26.86-28.84,8-10,22.1-8.09S202.62,492.37,203.94,502.57Z" transform="translate(260.92 213.54)" fill="#999"/><path d="M120.82,504.08c1.32,10.2,12.74,26.89,26.86,28.84.34.05.71.08,1.09.1-10.1-4.31-18.16-15.32-19.85-23.25-2.16-10.14,6.9-11.41,20.81-11.62a68.38,68.38,0,0,0,11.75-1.79c-7.61.13-14.43.2-18.56-.37C128.8,494,119.51,493.88,120.82,504.08Z" transform="translate(260.92 213.54)" fill="#fff" opacity="0.4"/><g opacity="0.2"><path d="M168.35,536.06c-4.46,1.11-7.4,2.08-7,4.11s3.95,4.35,8.41,3.24,9.91-5.51,9.52-7.54S172.81,535,168.35,536.06Z" transform="translate(260.92 213.54)" opacity="0.4"/><path d="M170.11,527.85c.14-2-6.08-3.24-10.72-3.87s-7.76-.81-7.91,1.21,2.73,5.49,7.37,6.11S170,529.87,170.11,527.85Z" transform="translate(260.92 213.54)" opacity="0.4"/><path d="M177.18,525.59c-2.92.62-4.84,1.23-4.54,3a4.87,4.87,0,0,0,5.63,3.54c2.92-.61,6.44-4,6.14-5.86S180.11,525,177.18,525.59Z" transform="translate(260.92 213.54)" opacity="0.4"/></g><path d="M439.6,287.36c12.09-5.89,12-50.16-1-76.75s-39.86-35.46-52-29.57-4.78,24.32,8.17,50.9S427.51,293.25,439.6,287.36Z" transform="translate(260.92 213.54)" fill="#b8b6b7"/><path d="M465.52,302.07c13.44-.66,30.77-41.39,29.32-70.93s-22.69-48.29-36.13-47.63-14,20.47-12.52,50S452.09,302.73,465.52,302.07Z" transform="translate(260.92 213.54)" fill="#b8b6b7"/><path d="M488.16,238.18c-1.3-26.59-13.35-46.11-25-54.24,13.22,3,30.36,20.77,31.65,47.2.85,17.28-4.73,38.39-12.2,53.07C486.55,269.4,488.88,252.7,488.16,238.18Z" transform="translate(260.92 213.54)" fill="#fff" opacity="0.4"/><path d="M476.24,325.14c10.83,3.38,36.4-23.84,43.84-47.65s-3.93-44.84-14.76-48.23-17,12.16-24.46,36S465.41,321.75,476.24,325.14Z" transform="translate(260.92 213.54)" fill="#b8b6b7"/><path d="M513,275.44c5.07-16.24,3.69-31.06-.47-41.33,7.8,8.21,13.3,25,7.54,43.38-6.24,20-25.24,42.34-37.59,47C494.14,313.39,507.39,293.41,513,275.44Z" transform="translate(260.92 213.54)" fill="#fff" opacity="0.4"/><path d="M454.11,290.77c12.09-5.89,2.78-111.16-10.17-137.74S404.08,117.56,392,123.45s-4.79,24.32,8.16,50.91S442,296.66,454.11,290.77Z" transform="translate(260.92 213.54)" fill="#b8b6b7"/><path d="M443.66,163.77c-13.93-26.09-41.14-34-53-27.63a10.47,10.47,0,0,0-4.2,3.9c-1.59-8.08-.25-13.77,5.54-16.59,12.09-5.89,39,3,51.95,29.58,5,10.23,9.43,32.12,12.32,55.51C452.71,189.32,448.23,172.32,443.66,163.77Z" transform="translate(260.92 213.54)" fill="#fff" opacity="0.4"/><path d="M336.9,610.76c97.68,0,228.79,21.58,228.79,29.34s-131.11,14-228.79,14-207.79-6.29-207.79-14S239.21,610.76,336.9,610.76Z" transform="translate(260.92 213.54)" opacity="0.1"/><polygon points="481.74 758.58 518.14 836.16 515.1 837.66 470.11 758.5 481.74 758.58" fill="#ff9e2e"/><polygon points="516.44 837 515.1 837.66 470.11 758.5 516.44 837" fill="#fff" opacity="0.4"/><polygon points="495.94 798.61 499.09 797.45 481.74 758.58 510.81 820.53 510.81 820.53 511.18 821.33 511.18 821.33 514.17 827.68 514.17 827.68 514.41 828.21 518.14 836.16 516.69 836.88 512.88 828.36 512.23 828.4 512.81 828.19 509.78 821.41 508.16 821.51 509.59 820.98 507.29 815.83 504.99 815.97 507.02 815.22 504.68 809.97 501.21 810.18 504.26 809.05 502.1 804.19 498.73 804.4 501.7 803.3 499.51 798.39 495.94 798.61" fill="#d04000" opacity="0.4"/><path d="M224.1,546.71c10.94-3.83,25.2-.05,29,10.89,2.45,7,1.57,19.71-2.25,28.92s-15.53,12.4-23.19,6c-.17-.15-.34-.29-.51-.45a56,56,0,0,1-13.7-20.59C209.66,560.52,213.15,550.54,224.1,546.71Z" transform="translate(260.92 213.54)" fill="#b8b6b7"/><path d="M232.23,590.71c.28.26.57.51.87.76a24.74,24.74,0,0,0,6.86,4.09,14.38,14.38,0,0,1-12.27-3.06c-.17-.15-.34-.29-.51-.45a56,56,0,0,1-13.7-20.59A25.21,25.21,0,0,1,212,563C216.6,572.47,224,583.19,232.23,590.71Z" transform="translate(260.92 213.54)" opacity="0.2"/><path d="M220.66,620.93c15.68-12.94,39.53-4.23,60.82,11.26-11.48-4.91-22.8-7.9-33.41-8.22a34.58,34.58,0,0,0-2,21.36,46.25,46.25,0,0,0,2.69,8.43c-5.56-6.13-9.42-12.43-10.72-18.57a20.84,20.84,0,0,1-.36-6.72,41.46,41.46,0,0,0-9.39,23.06,56.15,56.15,0,0,0,.07,10.6c-4.17-9-6.34-17.58-5.64-25.06a25.06,25.06,0,0,1,2.42-8.76,45.63,45.63,0,0,0-10,6.28,53.1,53.1,0,0,0-7.36,7.47C210.64,633.11,214.86,625.73,220.66,620.93Z" transform="translate(260.92 213.54)" fill="#ff9e2e"/><path d="M215,633.68a17.92,17.92,0,0,1,10.17-5.37,45.63,45.63,0,0,0-10,6.28,53.1,53.1,0,0,0-7.36,7.47C210,639.28,213,635.64,215,633.68Z" transform="translate(260.92 213.54)" fill="#d04000" opacity="0.4"/><path d="M228.34,662.13c-.35-3.65-1.55-8.27-1.53-11.07,0-6.27,2.78-16.32,10.85-22.59a41.46,41.46,0,0,0-9.39,23.06A56.15,56.15,0,0,0,228.34,662.13Z" transform="translate(260.92 213.54)" fill="#d04000" opacity="0.4"/><path d="M246.05,645.33c-1.64-7.73-2.94-16.86-.14-23.36,10.61.32,24.09,5.31,35.57,10.22-11.48-4.91-22.8-7.9-33.41-8.22A34.58,34.58,0,0,0,246.05,645.33Z" transform="translate(260.92 213.54)" fill="#d04000" opacity="0.4"/><path d="M207.77,642.06c2.87-8.95,6.62-13.09,12.43-17.88,9.36-7.73,24.43-8.82,39.66-4.61-14.58-6.26-28.71-7.29-39.2,1.36C214.86,625.73,210.64,633.11,207.77,642.06Z" transform="translate(260.92 213.54)" fill="#fff" opacity="0.4"/><path d="M513.49,466.1c8.6-14.59-3.31-25.8-17.69-26.35l-1,0c-12.22-.17-25,.55-32.78,1.91C448.77,444.07,439.82,453,437.79,470c-.73,8.38,1.19,17,6.79,22.83s14.65,8.78,25.67,6C484.45,495.57,505.3,480.41,513.49,466.1Z" transform="translate(260.92 213.54)" fill="#b8b6b7"/><path d="M464.78,491.74c-9,2-17.15.71-23.21-2.87,4.83,8.31,15.34,13.32,28.68,10,14.2-3.26,35.05-18.42,43.24-32.73,3.09-5.13,3.54-10.1,2.13-14.17C506.92,469.73,482,488.34,464.78,491.74Z" transform="translate(260.92 213.54)" opacity="0.15"/><path d="M441.57,456.5a48.45,48.45,0,0,1,17-7.3c10.54-2.29,27.63-4.35,44.28-6l1.34-.1c1.18-.07,2.35-.09,3.5-.08a27.59,27.59,0,0,0-11.93-3.28l-1,0c-12.22-.17-25,.55-32.78,1.91C452.65,443.4,446,448,441.57,456.5Z" transform="translate(260.92 213.54)" fill="#fff" opacity="0.3"/><path d="M103.1,339.82c-1.47-53.31,120.56-45.27,200.47-56.21,22.85-3.13,57.5,25.43,66.09,9.7,45.39-83,108.3-28.08,131.38,33.41s-4.73,156.77-59.92,188C169.22,668.56,107.75,508.24,103.1,339.82Z" transform="translate(260.92 213.54)" fill="#b8b6b7"/><path d="M459.08,486.66c-22.55,20.1-43.87,37.4-64,52.12q22-10.44,46.08-24.06c46.75-26.45,73.85-98.86,67-157.75C509.34,405,492.46,456.92,459.08,486.66Z" transform="translate(260.92 213.54)" opacity="0.15"/><path d="M103.1,339.82c-.3-10.86,4.53-19.17,13.09-25.62a153.17,153.17,0,0,0,1.7,56.12,114.14,114.14,0,0,0,6.68,20.6,318.56,318.56,0,0,1,17.76,52.29C157.2,503.8,184.8,553.55,233.2,575.1,134.47,560.43,106.2,451.92,103.1,339.82Z" transform="translate(260.92 213.54)" opacity="0.15"/><path d="M428.75,251.48c-11.67,6.14-23,18.38-33.22,38.49-3.78,7.44-13.15,5.17-24.4.72C388.91,259.57,409.23,249.07,428.75,251.48Z" transform="translate(260.92 213.54)" fill="#fff" opacity="0.35"/><path d="M205,130.8c-11,5.37-40.85-15.77-51.28-37.18S153,49.82,164,44.46s19.2,8.34,29.63,29.75S216.05,125.44,205,130.8Z" transform="translate(260.92 213.54)" fill="#c1272d"/><path d="M164,44.46c4.47-2.18,8.48-1.21,12.36,2.14a10.36,10.36,0,0,0-5.22,1.29c-10.85,5.66-19.88,28.31-8.88,49.42,7.59,14.57,24.41,28.75,37.68,34.3-13.27-.91-37.07-19.35-46.16-38C143.33,72.22,153,49.82,164,44.46Z" transform="translate(260.92 213.54)" fill="#fff" opacity="0.4"/><path d="M210.93,133.37c-11.77-3.37-19.84-39-13.29-61.94s28.69-33.11,40.46-29.74,8.71,19.05,2.16,41.94S222.69,136.73,210.93,133.37Z" transform="translate(260.92 213.54)" fill="#c1272d"/><path d="M236.05,51.93c-11.65-3.33-33.44,6.64-40.25,29a59.88,59.88,0,0,1,1.84-9.52c6.55-22.89,28.69-33.11,40.46-29.74,9.59,2.75,9.33,13.67,5.36,30C245,61.07,243.46,54.05,236.05,51.93Z" transform="translate(260.92 213.54)" fill="#fff" opacity="0.4"/><path d="M227.43,126.81c-6-6.91,3.55-32.5,17-44.13s31.46-9,37.43-2.06-2.33,15.46-15.78,27.09S233.41,133.72,227.43,126.81Z" transform="translate(260.92 213.54)" fill="#c1272d"/><path d="M276.09,87.54c-5.35-6.18-18.2-10.15-30-6.22,13.23-10,30-7.33,35.75-.7,3.82,4.41,1.8,9.5-3.65,15.62A8.89,8.89,0,0,0,276.09,87.54Z" transform="translate(260.92 213.54)" fill="#fff" opacity="0.4"/><path d="M239.19,117.17c42.61-16.08,88.53,6.41,99.95,42.18,11.55,35.94-12.75,71.09-51.87,85.92-39.22,14.57-80.65,4.1-95.6-30.57C176.74,180.24,196.52,133.1,239.19,117.17Z" transform="translate(260.92 213.54)" fill="#d6c6b6"/><path d="M98.8,347.39C97.13,315.48,103,277.77,110,243.57a36.21,36.21,0,0,1-16.38-17.84c-9.3-21.47,3-50.84,29.6-60.76a51,51,0,0,1,14.92-3.2c.09-.18.19-.35.29-.53,10.13-18.6,23.09-34.33,40.12-46.1a73.6,73.6,0,0,1,14.92-7.87l.12,0c9.63-3.88,17-3.65,22.89-3.94,13.1-.06,26.53,3.37,39.92,9.46,37.1-5.39,72.89,15.62,82.78,46.61a58.29,58.29,0,0,1,2.49,24.89c19.23,23.29,38.69,47.15,51.56,71.17,4.24,7,7.24,26.33-5.19,33.92-6.68,4.08-13.13,5-18.34,4-.31,8.87-4,20.13-14.15,23.3-10,3.12-18.2.95-23-3.39,2.3,6.65,1.3,15.77-6.77,23.09S303,341.92,294.05,338c-1.31,8.09-6.4,17.35-15.77,19.66a26.24,26.24,0,0,1-22.85-4.9,32.05,32.05,0,0,1-14.15,13.78c-7.22,3.6-15,1.27-21.11-2.76a32,32,0,0,1-16.87,11.08c-9.57,2.59-18.2-3.78-23.4-10.58a32.17,32.17,0,0,1-16.25,10.3c-8.8,2.38-16.8-2.8-22.07-8.94-3.25,4.11-8.68,7.52-16.23,8.81-10.52,1.8-19.72-11.06-23.89-18.1A19.62,19.62,0,0,1,98.8,347.39Z" transform="translate(260.92 213.54)" fill="#dcdcde"/><path d="M138.1,161.77c.09-.18.19-.35.29-.53,8.54-15.68,19.08-29.31,32.38-40.26-10.72,10.89-19.08,24.71-25.62,40.86a50.83,50.83,0,0,0-7.2-.06Z" transform="translate(260.92 213.54)" fill="#998675" opacity="0.2"/><path d="M256.35,112.74a80.89,80.89,0,0,0-10.83,2.33c-10.46-5.71-20.67-9.4-30.47-10.65-2.5-.17-5.26-.5-8.31-.56,3.64-.42,6.85-.44,9.7-.58C229.54,103.22,243,106.65,256.35,112.74Z" transform="translate(260.92 213.54)" fill="#998675" opacity="0.2"/><path d="M329.89,182.27a63.35,63.35,0,0,0-2-26c-4.3-15-14.1-28.07-27.06-37.46,18.26,8.07,32.62,22.64,38.34,40.55a58.29,58.29,0,0,1,2.49,24.89c19.23,23.29,38.69,47.15,51.56,71.17,4.24,7,7.24,26.33-5.19,33.92a28,28,0,0,1-13.23,4.35c12.35-7.42,9.72-27.52,5.61-34.89C367.89,233.17,348.78,207.42,329.89,182.27Z" transform="translate(260.92 213.54)" fill="#fff" opacity="0.35"/><path d="M222,364.77l-.06.07.43.24Zm-120.56-8.46c4.17,7,13.37,19.9,23.89,18.1,7.55-1.29,13-4.7,16.23-8.81,5.27,6.14,13.27,11.32,22.07,8.94a32.17,32.17,0,0,0,16.25-10.3c4.8,6.28,12.52,12.18,21.2,11-8.3-.33-15.34-7.29-19.68-14.33a29.68,29.68,0,0,1-16.85,9.47c-9,1.63-16.8-4.89-21.83-12.16-3.46,4.12-9.08,7.25-16.76,7.84-10.68.82-19.35-14.2-23.22-22.34a23.67,23.67,0,0,1-2.27-10c-.2-35,7.48-75.48,16.06-112a42.4,42.4,0,0,1-15.67-21.25,46.13,46.13,0,0,1-2.43-15.76c-8.27,12.62-10.42,28.23-4.87,41A36.21,36.21,0,0,0,110,243.57C103,277.77,97.13,315.48,98.8,347.39A19.62,19.62,0,0,0,101.46,356.31Z" transform="translate(260.92 213.54)" fill="#998675" opacity="0.2"/><path d="M234.23,123.25a93.69,93.69,0,0,0-27.11,15.69,81.36,81.36,0,0,1,32.07-21.77c35.36-13.34,73-.12,91.32,25.21C307.67,119.93,269.94,109.78,234.23,123.25Z" transform="translate(260.92 213.54)" fill="#fff" opacity="0.3"/><path d="M120.09,168.76a58,58,0,0,0-16.88,9.77,50.64,50.64,0,0,1,20-13.56c22-8.32,45.49-.08,56.9,15.7C165.85,166.69,142.34,160.36,120.09,168.76Z" transform="translate(260.92 213.54)" fill="#fff" opacity="0.3"/><path d="M104.24,181.89c31.67-11.95,65.8,4.76,74.29,31.35s-9.48,52.85-38.56,63.87c-29.15,10.83-59.94,3-71.06-22.73C57.82,228.77,72.52,193.73,104.24,181.89Z" transform="translate(260.92 213.54)" fill="#ffe7d4"/><path d="M97.37,184.94c-20.71,15.7-28.94,43-19.85,64,11.12,25.78,41.91,33.56,71.06,22.73a78.7,78.7,0,0,0,9.39-4.3,75.05,75.05,0,0,1-18,9.75c-29.15,10.83-59.94,3-71.06-22.73C58.65,230.7,70.46,199,97.37,184.94Z" transform="translate(260.92 213.54)" fill="#e75400" opacity="0.2"/><path d="M249.77,123.83c42.61-16.08,88.53,6.41,100,42.17C361.27,202,337,237.1,297.85,251.92c-39.21,14.58-80.64,4.1-95.6-30.57C187.32,186.9,207.11,139.76,249.77,123.83Z" transform="translate(260.92 213.54)" fill="#ffe7d4"/><path d="M277.71,253c39.12-14.83,62.91-51.34,50.57-89.4-6.42-19.89-22.35-36.11-42.21-44.7,29.64,2.73,55.48,21.52,63.65,47.11C361.27,202,337,237.1,297.85,251.92a96.86,96.86,0,0,1-40.06,6.19A97,97,0,0,0,277.71,253Z" transform="translate(260.92 213.54)" fill="#e75400" opacity="0.2"/><path d="M232.6,188.33a11.34,11.34,0,0,0,.4,1.25,13.09,13.09,0,1,0,7.66-16.86,13,13,0,0,0-2.74,1.43,23.09,23.09,0,1,1-5.32,14.18Z" transform="translate(260.92 213.54)" fill="#51364d"/><path d="M278.52,202.87a6.25,6.25,0,1,1,3.65-8A6.26,6.26,0,0,1,278.52,202.87Z" transform="translate(260.92 213.54)" fill="#fff"/><path d="M286.88,201.82a1.95,1.95,0,1,1,1.14-2.51A2,2,0,0,1,286.88,201.82Z" transform="translate(260.92 213.54)" fill="#fff"/><path d="M153.49,216.93a3.91,3.91,0,0,0-.58.1,5.91,5.91,0,1,0,6.54,3.23,10.38,10.38,0,1,1-6-3.33Z" transform="translate(260.92 213.54)" fill="#51364d"/><path d="M161.06,235.05a2.7,2.7,0,1,1,1.58-3.48A2.69,2.69,0,0,1,161.06,235.05Z" transform="translate(260.92 213.54)" fill="#fff"/><path d="M164.68,234.6a.85.85,0,1,1,.49-1.09A.85.85,0,0,1,164.68,234.6Z" transform="translate(260.92 213.54)" fill="#fff"/><path d="M226.31,298.84C234,285.7,262.73,301,283,314.19s32.9,23.46,25.17,36.6S275.22,375,255,361.77,218.58,312,226.31,298.84Z" transform="translate(260.92 213.54)" fill="#c1272d"/><path d="M298.62,357.29c7.87-14.2-5.29-28.05-26.32-46.4-3.56-3.11-7.38-6.32-11.29-9.45a222.33,222.33,0,0,1,22,12.75c20.24,13.18,32.9,23.46,25.17,36.6-2.77,4.71-7.79,9.15-14,12.29A24.93,24.93,0,0,0,298.62,357.29Z" transform="translate(260.92 213.54)" fill="#fff" opacity="0.4"/><path d="M146.15,358.14c-1.07-20.37,15.57-48.76,28.17-49.43s16.38,26.66,17.45,47,.37,34.06-12.22,34.72S147.22,378.51,146.15,358.14Z" transform="translate(260.92 213.54)" fill="#c1272d"/><path d="M184.08,354.15c-1.06-11.25-1.41-27.72-2.74-42.27,7.09,7.71,9.59,27.91,10.43,43.86,1,18.74.47,31.82-9.41,34.31C186.19,383.49,185.65,370.67,184.08,354.15Z" transform="translate(260.92 213.54)" fill="#fff" opacity="0.4"/><path d="M251.16,273.18c.27.15,12.39,62.94-35.3,72.64-20.53,4.18-95.23-45.53-95.23-45.53S208.4,260,251.16,273.18Z" transform="translate(260.92 213.54)" fill="#ff9e2e"/><path d="M216.26,335.7c26.83-5.46,34.73-27.73,36.46-46.18.21,19.35-4.85,49.79-36.86,56.3-10.93,2.23-37.18-10.81-59.37-23.49C182.57,330.72,207.61,337.46,216.26,335.7Z" transform="translate(260.92 213.54)" opacity="0.1"/><path d="M148.86,317.89c-9-5.3-16.79-10.21-21.9-13.49,19.87-10.09,71.73-34.47,107.81-33.79A71.17,71.17,0,0,1,246.65,272C226,273.64,189.51,292.76,148.86,317.89Z" transform="translate(260.92 213.54)" opacity="0.1"/><path d="M110.59,253.09c9.23-19.21,51.53,28.38,71.64,4.18s68.81,16.05,68.93,15.91c-38.46,3.48-103.27,38.67-136.56,55.92C114.31,329,103.22,267.68,110.59,253.09Z" transform="translate(260.92 213.54)" fill="#ff9e2e"/><path d="M110.59,253.09c9.23-19.21,51.53,28.38,71.64,4.18,10.35-12.45,28.27-7.84,43.25-.44-15.09-4.69-32.44-6-41.45,4.85-20.1,24.19-55.12-8.72-64.36,10.49-7.36,14.59-5.36,56.8-5.07,56.93C114.31,329,103.22,267.68,110.59,253.09Z" transform="translate(260.92 213.54)" fill="#fff" opacity="0.4"/><path d="M108.93,288.53c-1.06-14.41-.75-28.35,3.39-33.58,12.67-16,50.09,28.62,70.2,4.43,8.88-10.69,24.15-9.4,38.46-4.64-13.93-6.05-29.42-8.7-38.75,2.53-20.11,24.2-62.41-23.39-71.64-4.18C107.47,259.26,107.66,273.8,108.93,288.53Z" transform="translate(260.92 213.54)" fill="#fff" opacity="0.2"/><path d="M202.27,258.57s3.87,2.46.43,3.71c-1.48.54-9.82-.27-9.82-.27S198.19,258.76,202.27,258.57Z" transform="translate(260.92 213.54)" opacity="0.2"/><path d="M386,443.08c11.34,5.84,56.48,8.93,71.68,1.93s18.39-22.57,13.77-29.78-15.3-3.35-30.5,3.65S378.49,439.21,386,443.08Z" transform="translate(260.92 213.54)" fill="#999"/><path d="M450,440.87c13.49-5.9,20.8-14.92,22.89-22.46,2.21,7.92-1.92,20.5-15.16,26.6-8.9,4.1-28.08,4.73-44.71,3.39C427.84,446.94,441.8,444.43,450,440.87Z" transform="translate(260.92 213.54)" fill="#fff" opacity="0.4"/><path d="M411.91,401.19c8.17,6.42,33.84-6.31,44.19-22.6s4.92-36.87-3.25-43.29-16,3.75-26.35,20S403.73,394.77,411.91,401.19Z" transform="translate(260.92 213.54)" fill="#999"/><path d="M425.85,413.3c5.66,8.82,36.13,8.79,52.71-.64s19.12-29,13.46-37.84-17.38-3.51-34,5.91S420.18,404.49,425.85,413.3Z" transform="translate(260.92 213.54)" fill="#999"/><path d="M466.48,416.07c21.79-11.59,26.5-33.28,20-42.51a9.71,9.71,0,0,0-3.7-3.2c3.95-.25,7.06,1,9.26,4.46,5.66,8.82,3.13,28.42-13.46,37.84a56.16,56.16,0,0,1-17.4,5.92C463,417.8,464.8,417,466.48,416.07Z" transform="translate(260.92 213.54)" fill="#fff" opacity="0.4"/><path d="M415.63,411.89c8.17,6.42,65.64-29.94,76-46.23s4.92-36.87-3.25-43.29-16,3.75-26.35,20S407.45,405.47,415.63,411.89Z" transform="translate(260.92 213.54)" fill="#999"/><path d="M359.89,422.31c5.11,23.33,53.52,28.61,71.55,19.61s16.76-34,7.94-46.59c-4.33-6.19-9.36-44.76-13.15-39.5-10,13.95-18.87,34.36-28,38.94C380.16,403.76,356.61,407.36,359.89,422.31Z" transform="translate(260.92 213.54)" fill="#999"/><path d="M454.84,345.1c6.36,6,6.9,16.83,4.48,27.07,5.69-14.9.66-31.27-6.47-36.87-8.18-6.42-16,3.75-26.35,20l-.71,1.12C418.33,367,411.51,381,404.71,389.09a119.19,119.19,0,0,0,19.69-24.34C429.34,356.38,443.44,334.3,454.84,345.1Z" transform="translate(260.92 213.54)" fill="#fff" opacity="0.4"/><path d="M415.63,411.89c8.17,6.42,65.64-29.94,76-46.23s4.92-36.87-3.25-43.29-16,3.75-26.35,20S407.45,405.47,415.63,411.89Z" transform="translate(260.92 213.54)" fill="#999"/><path d="M462,342.41c-3,4.76-8.94,12.13-15.6,20.33a134.44,134.44,0,0,0,11.72-11.88c12.14-15,21.08-24.22,28.47-16.91,5.78,5.72,8.9,19.86,4.16,32.94.31-.42.6-.83.85-1.23,10.35-16.29,4.92-36.87-3.25-43.29S472.36,326.12,462,342.41Z" transform="translate(260.92 213.54)" fill="#fff" opacity="0.4"/><path d="M380.66,425.06c4.62,9.21,62.71.57,76.24-9.76s15.59-31.13,11-40.33-14.18-3.34-27.7,7S376.05,415.85,380.66,425.06Z" transform="translate(260.92 213.54)" fill="#999"/><path d="M440.18,382c-3.95,3-11.07,7.17-19.06,11.76a101.75,101.75,0,0,0,13.26-5.78c14.57-8.42,24.72-13,28.42-3.29,2.9,7.58,1,21.62-7,31.4.38-.25.74-.5,1.07-.75,13.52-10.33,15.59-31.13,11-40.33S453.7,371.63,440.18,382Z" transform="translate(260.92 213.54)" fill="#fff" opacity="0.4"/><g opacity="0.2"><path d="M437.28,430.66c5.28-1.85,8.89-2.86,9.68-1s-1.55,6-6.83,7.86-13.53,1.58-14.31-.33S432,432.5,437.28,430.66Z" transform="translate(260.92 213.54)" opacity="0.4"/><path d="M430.63,425c-1.34-1.58,4.41-6.43,8.87-9.81s7.58-5.46,8.92-3.89.38,6.21-4.08,9.59S432,426.55,430.63,425Z" transform="translate(260.92 213.54)" opacity="0.4"/><path d="M422,427.49c3.39-1.3,5.75-2,6.5-.3s-.38,5.08-3.77,6.39-9.06.65-9.81-1S418.56,428.8,422,427.49Z" transform="translate(260.92 213.54)" opacity="0.4"/></g><path d="M179.05,469.41c-3.26-11.53-1.37-29.21,3-30.71s9.58,13.75,12.84,25.28,4.94,19.4.57,20.9S182.31,480.94,179.05,469.41Z" transform="translate(260.92 213.54)" fill="#fff" opacity="0.4"/><path d="M208.59,450.26c3.72-2.71,13.59,10.13,20.4,20s11,16.83,7.24,19.55-13.88.2-20.69-9.71S204.88,453,208.59,450.26Z" transform="translate(260.92 213.54)" fill="#fff" opacity="0.4"/><path d="M216.07,432.13c-2.36-7.43,0-19.52,3.85-21s7.76,8.28,10.12,15.71,3.51,12.56-.35,14S218.43,439.56,216.07,432.13Z" transform="translate(260.92 213.54)" fill="#fff" opacity="0.4"/><path d="M267.16,494.69c2.63-2.44,11.13,6.75,17.07,13.91s9.62,12.22,7,14.66-10.58,1.35-16.53-5.81S264.52,497.14,267.16,494.69Z" transform="translate(260.92 213.54)" fill="#fff" opacity="0.4"/><path d="M322.87,489.51c7.93,4.87,13,8.47,11.25,11.56s-9.75,4.48-17.67-.38-16.05-15.86-14.27-18.94S315,484.65,322.87,489.51Z" transform="translate(260.92 213.54)" fill="#fff" opacity="0.4"/><path d="M259.5,457.67c-5.17-5.83-7.91-17.84-5-20.73s10.45,4.43,15.62,10.26,8.3,10.06,5.36,12.95S264.67,463.51,259.5,457.67Z" transform="translate(260.92 213.54)" fill="#fff" opacity="0.4"/><path d="M342.32,261.46c-3.14-6.51-11.43-13.63-14.24-12.49s.89,10.12,4,16.63,5.57,10.72,8.38,9.58S345.46,268,342.32,261.46Z" transform="translate(260.92 213.54)" fill="#fff" opacity="0.4"/><path d="M308.86,275c-3.45,1.34-1,11.88,1.28,19.52s4.2,12.6,7.65,11.25,7.13-8.48,4.84-16.12S312.31,273.64,308.86,275Z" transform="translate(260.92 213.54)" fill="#fff" opacity="0.4"/><path d="M368.68,258.3c-2.53-5.83-10.46-12-13.61-10.81s-.32,9.25,2.21,15.08,4.58,9.59,7.73,8.41S371.22,264.13,368.68,258.3Z" transform="translate(260.92 213.54)" fill="#fff" opacity="0.4"/><path d="M355.72,297.27c0-6.35-4.71-15.2-8.07-15.4s-4,8.33-4.08,14.68.3,10.62,3.66,10.82S355.67,303.63,355.72,297.27Z" transform="translate(260.92 213.54)" fill="#fff" opacity="0.4"/><g opacity="0.2"><path d="M546.14,373.76c17.53-61.7,87.41-119.53,158.9-133-71.32,28.4-134.75,85.07-162,147.43A108.57,108.57,0,0,1,546.14,373.76Z" transform="translate(260.92 213.54)" fill="#c7b299"/></g><g opacity="0.2"><path d="M623.83,343.56c34.44-44.31,88-60.83,122.55-38.84-41.09-9.19-91.61,9.37-130.21,49.68Q619.69,348.9,623.83,343.56Z" transform="translate(260.92 213.54)" fill="#c7b299"/></g><g opacity="0.2"><path d="M605,404.36c45.42-32.95,101.5-33.87,128.52-3.13-36.9-20.28-90.59-16.55-138.91,11.41Q599.53,408.32,605,404.36Z" transform="translate(260.92 213.54)" fill="#c7b299"/></g><g opacity="0.2"><path d="M586.12,446.61c39-40.36,94-51,126-25.48-39.87-13.54-92.09-.51-134.79,35.44Q581.44,451.47,586.12,446.61Z" transform="translate(260.92 213.54)" fill="#c7b299"/></g><path d="M642.4,306.89a11.64,11.64,0,0,1,9.12-6.35,11.73,11.73,0,0,1,5.74.79,11.51,11.51,0,0,1,4.68,3.44,10.27,10.27,0,0,1,1.95,5.23c.26,1.9.5,3.88-.29,5.65a11.26,11.26,0,0,1-3.68,4.46,12.12,12.12,0,0,1-5.58,2,12,12,0,0,1-5.82-.74A11,11,0,0,1,644,317.7a10.26,10.26,0,0,1-2-5.17A10.57,10.57,0,0,1,642.4,306.89Z" transform="translate(260.92 213.54)" fill="#c7b299"/><path d="M610.31,328.34a5.64,5.64,0,0,1,3.92-1.69,5.37,5.37,0,0,1,3.81,1.93,5.23,5.23,0,0,1,1.28,4,5.84,5.84,0,0,1-1.77,3.95,6.07,6.07,0,0,1-4.09,1.61,5.32,5.32,0,0,1-3.76-2.05,5.43,5.43,0,0,1-1.45-4A5.86,5.86,0,0,1,610.31,328.34Z" transform="translate(260.92 213.54)" fill="#c7b299"/><path d="M646.58,344.48a7.48,7.48,0,0,1,5.35-1.55,7.62,7.62,0,0,1,4.89,2.71,7,7,0,0,1,1.83,5.3,6.87,6.87,0,0,1-3.1,4.66,7.83,7.83,0,0,1-5.41,1.64,8.07,8.07,0,0,1-5.14-2.59,7.18,7.18,0,0,1-1.52-5.51A7,7,0,0,1,646.58,344.48Z" transform="translate(260.92 213.54)" fill="#c7b299"/><path d="M707.14,321.31a4.13,4.13,0,0,1,3.5,4.13,3.45,3.45,0,0,1-4.13,2.91,4.18,4.18,0,0,1-3.51-4.19A3.42,3.42,0,0,1,707.14,321.31Z" transform="translate(260.92 213.54)" fill="#c7b299"/><path d="M620,293.1a5.18,5.18,0,0,1,7.33.73,5,5,0,0,1-.61,7.2A5.2,5.2,0,0,1,620,293.1Z" transform="translate(260.92 213.54)" fill="#c7b299"/><path d="M559.87,343a2.61,2.61,0,0,1,3.74.13,2.74,2.74,0,0,1-.43,3.8,2.63,2.63,0,0,1-3.76-.13A2.73,2.73,0,0,1,559.87,343Z" transform="translate(260.92 213.54)" fill="#c7b299"/><path d="M580.17,342.64a3.21,3.21,0,0,1,4.14,2.35,3.81,3.81,0,0,1-2.79,4.29,3.11,3.11,0,0,1-4-2.37A3.72,3.72,0,0,1,580.17,342.64Z" transform="translate(260.92 213.54)" fill="#c7b299"/><path d="M601.15,322.2a1.7,1.7,0,0,1,2.09,1.26,1.87,1.87,0,0,1-1.35,2.15,1.66,1.66,0,0,1-2-1.27A1.83,1.83,0,0,1,601.15,322.2Z" transform="translate(260.92 213.54)" fill="#c7b299"/><path d="M642.4,306.89a10.92,10.92,0,0,1,3.72-4.31,11.32,11.32,0,0,1,1.19-.75c-.26,4.26,1.31,9.06,3.13,12.75a10.4,10.4,0,0,0,5.11,5.52,15.3,15.3,0,0,0,2.81.9,13.9,13.9,0,0,1-4,1.09,12,12,0,0,1-5.82-.74A11,11,0,0,1,644,317.7a10.26,10.26,0,0,1-2-5.17A10.57,10.57,0,0,1,642.4,306.89Z" transform="translate(260.92 213.54)" fill="#865b23" opacity="0.3"/><path d="M608.25,332.11a5.63,5.63,0,0,1,1.59-3.31,20.39,20.39,0,0,0,5.53,9.05,5.57,5.57,0,0,1-1.91.33,5.32,5.32,0,0,1-3.76-2.05A5.43,5.43,0,0,1,608.25,332.11Z" transform="translate(260.92 213.54)" fill="#865b23" opacity="0.3"/><path d="M646.58,344.48l.62-.41c-.38,4.72,1.51,9.46,3.89,13.2a7.6,7.6,0,0,1-1,0,8.07,8.07,0,0,1-5.14-2.59,7.18,7.18,0,0,1-1.52-5.51A7,7,0,0,1,646.58,344.48Z" transform="translate(260.92 213.54)" fill="#865b23" opacity="0.3"/><path d="M704.84,321.62a16.87,16.87,0,0,0,1.48,6.69,4.17,4.17,0,0,1-3.32-4.15A3.15,3.15,0,0,1,704.84,321.62Z" transform="translate(260.92 213.54)" fill="#865b23" opacity="0.3"/><path d="M658.24,310.54a1.68,1.68,0,0,1,1.42,1.67,1.39,1.39,0,0,1-1.67,1.17,1.7,1.7,0,0,1-1.42-1.69A1.38,1.38,0,0,1,658.24,310.54Z" transform="translate(260.92 213.54)" fill="#d9c9b2"/><path d="M655.19,307.22a1,1,0,0,1,.89,1A.87.87,0,0,1,655,309a1.07,1.07,0,0,1-.89-1.07A.87.87,0,0,1,655.19,307.22Z" transform="translate(260.92 213.54)" fill="#d9c9b2"/><path d="M655.69,352.88a1.08,1.08,0,0,1-.74,1.21.91.91,0,0,1-1.06-.79,1.11,1.11,0,0,1,.76-1.22A.9.9,0,0,1,655.69,352.88Z" transform="translate(260.92 213.54)" fill="#d9c9b2"/><path d="M653.77,348.94a2.39,2.39,0,0,1-1.63,2.67,2,2,0,0,1-2.34-1.75,2.41,2.41,0,0,1,1.67-2.68A2,2,0,0,1,653.77,348.94Z" transform="translate(260.92 213.54)" fill="#d9c9b2"/><path d="M617.22,329.77a.34.34,0,0,1-.24.38.29.29,0,0,1-.34-.25.37.37,0,0,1,.24-.39A.3.3,0,0,1,617.22,329.77Z" transform="translate(260.92 213.54)" fill="#d9c9b2"/><path d="M614.4,330.55a.77.77,0,0,1-.52.85.63.63,0,0,1-.75-.56.76.76,0,0,1,.53-.85A.64.64,0,0,1,614.4,330.55Z" transform="translate(260.92 213.54)" fill="#d9c9b2"/><path d="M657.12,350.33a.68.68,0,0,1-.46.76.57.57,0,0,1-.67-.5.69.69,0,0,1,.47-.76A.56.56,0,0,1,657.12,350.33Z" transform="translate(260.92 213.54)" fill="#d9c9b2"/><path d="M506.55,666.24c47.36,0,110.92,10.71,110.92,14.57s-63.56,7-110.92,7-100.74-3.12-100.74-7S459.19,666.24,506.55,666.24Z" transform="translate(260.92 213.54)" opacity="0.1"/><path d="M549.37,630.2a15.56,15.56,0,0,0,5.33-.59,8.28,8.28,0,0,0,3.52-6.77,12.94,12.94,0,0,0-.09-1.85,10.85,10.85,0,0,1,1,4.32,5.05,5.05,0,0,1-.77,2.62,15.19,15.19,0,0,0,1.28-.92,19.21,19.21,0,0,0,2.76-2.73,18.27,18.27,0,0,1-4.39,7.53,13.39,13.39,0,0,0,6.92-4.81,23.74,23.74,0,0,0,2.05-3.84c-.21,4-1.08,7.45-2.81,10a6,6,0,0,1-.72.88c4.53-.61,8.39-2.08,10.91-4.79a28.78,28.78,0,0,0,3.44-4.54c-1,5.14-2.88,9.48-5.65,12.44-1.92,2.06-4.91,3-8.49,3.17,8.08,3,15.13,6.89,17.27,11.15a16.27,16.27,0,0,1,1.36,10.1,25,25,0,0,0-1.72-4.38c-3-5.93-12.61-11.67-22.61-16.14A14.43,14.43,0,0,1,562,646a16.4,16.4,0,0,1,.8,10.18,25.38,25.38,0,0,0-1.48-4.49c-2.08-4.8-8.26-9.74-15.53-14.12Z" transform="translate(260.92 213.54)" fill="#ffc82e"/><polygon points="720.03 849.47 738.34 887.87 736.84 888.63 714.25 849.47 720.03 849.47" fill="#ff9e2e"/><polygon points="737.5 888.3 736.84 888.63 714.25 849.47 737.5 888.3" fill="#fff" opacity="0.4"/><polygon points="727.2 869.3 728.76 868.71 720.03 849.47 734.65 880.13 734.65 880.13 734.84 880.53 734.84 880.53 736.34 883.68 736.34 883.68 736.47 883.94 738.34 887.87 737.62 888.24 735.71 884.02 735.38 884.04 735.67 883.93 734.15 880.58 733.34 880.63 734.05 880.36 732.89 877.81 731.75 877.89 732.75 877.51 731.57 874.91 729.86 875.03 731.37 874.46 730.28 872.05 728.61 872.16 730.08 871.61 728.97 869.18 727.2 869.3" fill="#d04000" opacity="0.4"/><path d="M460.42,639.31c5.42-1.93,12.51-.11,14.45,5.32,1.24,3.47.84,9.78-1,14.36a7.38,7.38,0,0,1-11.49,3l-.25-.22a27.56,27.56,0,0,1-6.87-10.18C453.3,646.21,455,641.24,460.42,639.31Z" transform="translate(260.92 213.54)" fill="#ffc82e"/><path d="M464.59,661.13l.44.38a12.15,12.15,0,0,0,3.42,2,7.11,7.11,0,0,1-6.1-1.48l-.25-.22a27.56,27.56,0,0,1-6.87-10.18,12.58,12.58,0,0,1-.77-4.18A48,48,0,0,0,464.59,661.13Z" transform="translate(260.92 213.54)" fill="#fff" opacity="0.6"/><path d="M459.5,679.05c5.72-8.32,18.29-7.41,30.57-2.92a46.48,46.48,0,0,0-17.07.63A17.21,17.21,0,0,0,475,687.24a22.92,22.92,0,0,0,2.43,3.65c-3.49-2.17-6.19-4.65-7.65-7.4a10.71,10.71,0,0,1-1.09-3.16,20.62,20.62,0,0,0-1.34,12.29,29.09,29.09,0,0,0,1.48,5c-3.22-3.73-5.42-7.53-6.11-11.2a12.68,12.68,0,0,1,0-4.51,23.09,23.09,0,0,0-3.91,4.36,27.17,27.17,0,0,0-2.5,4.57C456.37,686.23,457.38,682.13,459.5,679.05Z" transform="translate(260.92 213.54)" fill="#ff9e2e"/><path d="M458.51,685.91a8.94,8.94,0,0,1,4.12-3.95,23.09,23.09,0,0,0-3.91,4.36,27.17,27.17,0,0,0-2.5,4.57C456.93,689.26,457.85,687.11,458.51,685.91Z" transform="translate(260.92 213.54)" fill="#d04000" opacity="0.4"/><path d="M468.78,697.67c-.66-1.7-1.86-3.74-2.24-5.08a14.86,14.86,0,0,1,2.1-12.26,20.62,20.62,0,0,0-1.34,12.29A29.09,29.09,0,0,0,468.78,697.67Z" transform="translate(260.92 213.54)" fill="#d04000" opacity="0.4"/><path d="M475,687.24c-1.84-3.47-3.71-7.65-3.26-11.14,5.11-1.29,12.23-.75,18.38,0a46.48,46.48,0,0,0-17.07.63A17.21,17.21,0,0,0,475,687.24Z" transform="translate(260.92 213.54)" fill="#d04000" opacity="0.4"/><path d="M456.22,690.89a16.8,16.8,0,0,1,3.5-10.23c3.41-5,10.46-7.54,18.31-7.61-7.82-1-14.71.44-18.53,6C457.38,682.13,456.37,686.23,456.22,690.89Z" transform="translate(260.92 213.54)" fill="#fff" opacity="0.4"/><polygon points="793 850.52 811.32 888.93 809.81 889.68 787.23 850.52 793 850.52" fill="#ff9e2e"/><polygon points="810.47 889.35 809.81 889.68 787.23 850.52 810.47 889.35" fill="#fff" opacity="0.4"/><polygon points="800.17 870.36 801.73 869.76 793 850.52 807.63 881.19 807.63 881.19 807.81 881.58 807.81 881.58 809.32 884.73 809.32 884.73 809.44 884.99 811.32 888.93 810.6 889.29 808.68 885.07 808.36 885.09 808.64 884.99 807.12 881.63 806.31 881.69 807.02 881.42 805.87 878.87 804.72 878.95 805.73 878.57 804.55 875.97 802.83 876.08 804.34 875.51 803.25 873.11 801.58 873.22 803.05 872.66 801.95 870.23 800.17 870.36" fill="#d04000" opacity="0.4"/><path d="M564.13,680.1c-5.72-8.32-18.29-7.41-30.57-2.92a46.74,46.74,0,0,1,17.08.63,17.21,17.21,0,0,1-1.95,10.48,23.53,23.53,0,0,1-2.44,3.66c3.5-2.17,6.2-4.66,7.65-7.41a10.08,10.08,0,0,0,1.09-3.16,20.55,20.55,0,0,1,1.34,12.29,27.22,27.22,0,0,1-1.48,5.05c3.22-3.72,5.43-7.53,6.11-11.19a12.24,12.24,0,0,0,0-4.51,22.17,22.17,0,0,1,3.91,4.36,25.75,25.75,0,0,1,2.5,4.57C567.26,687.28,566.25,683.18,564.13,680.1Z" transform="translate(260.92 213.54)" fill="#ff9e2e"/><path d="M565.12,687a8.85,8.85,0,0,0-4.12-4,22.17,22.17,0,0,1,3.91,4.36,25.75,25.75,0,0,1,2.5,4.57C566.71,690.31,565.78,688.17,565.12,687Z" transform="translate(260.92 213.54)" fill="#d04000" opacity="0.4"/><path d="M554.85,698.72c.67-1.69,1.87-3.74,2.24-5.07a14.88,14.88,0,0,0-2.1-12.27,20.55,20.55,0,0,1,1.34,12.29A27.22,27.22,0,0,1,554.85,698.72Z" transform="translate(260.92 213.54)" fill="#d04000" opacity="0.4"/><path d="M548.69,688.29c1.84-3.47,3.7-7.65,3.25-11.14-5.11-1.29-12.22-.74-18.38,0a46.74,46.74,0,0,1,17.08.63A17.21,17.21,0,0,1,548.69,688.29Z" transform="translate(260.92 213.54)" fill="#d04000" opacity="0.4"/><path d="M564.13,680.1c-3.82-5.56-10.71-7-18.52-6,7.84.06,14.89,2.64,18.31,7.61A16.83,16.83,0,0,1,567.41,692C567.26,687.28,566.25,683.18,564.13,680.1Z" transform="translate(260.92 213.54)" fill="#fff" opacity="0.4"/><path d="M548.39,655.42a9.8,9.8,0,0,1-13.6,8l-.4-.19A36.85,36.85,0,0,1,522,652.65c-4.41-6.24-4-13.2,2.24-17.6s16-4.6,20.37,1.64C547.41,640.69,549.15,648.89,548.39,655.42Z" transform="translate(260.92 213.54)" fill="#ffc82e"/><path d="M540.37,637.44a14.67,14.67,0,0,0-7.64-5.5c4.6-.44,9.19,1,11.86,4.75,2.82,4,4.56,12.2,3.8,18.73a9.88,9.88,0,0,1-2.88,5.94C546.26,652.86,544,642.56,540.37,637.44Z" transform="translate(260.92 213.54)" opacity="0.1"/><path d="M520.08,639.77a20.05,20.05,0,0,0,3.13,8.85,47.7,47.7,0,0,0,15.23,14.58l.51.28c.45.23.91.43,1.37.61a9.47,9.47,0,0,1-5.53-.68l-.4-.19A36.85,36.85,0,0,1,522,652.65C518.94,648.34,518.19,643.69,520.08,639.77Z" transform="translate(260.92 213.54)" fill="#fff" opacity="0.6"/><path d="M437.94,512.58a18,18,0,0,1-4.5-11.15c-.58-11.6,10.27-23.1,24.36-23.08a25.51,25.51,0,0,1,7.49,1.12c7.47-6.5,15.29-11.36,23.18-13.84a21.84,21.84,0,0,0-6.79-3.14,28.14,28.14,0,0,0-5.32-.89c4.87-1.31,9.36-1.64,13-.64l.42.13a43,43,0,0,0-6.45-9.07,46,46,0,0,0-7-6.15c7.83,1.74,14.47,4.93,19.08,9.9a25.52,25.52,0,0,1,5,8h.11a16,16,0,0,1,13.79-5.53c5.62.35,12.1,2.89,18.92,6.91a46.2,46.2,0,0,0-8-1.26,29.49,29.49,0,0,0-13.39,2c35.64,13.19,55.62,83.56,55.62,122.48,0,43.08-24.47,73.79-67.55,73.79s-88.43-30.71-88.43-73.79C411.55,567.62,422.13,537.83,437.94,512.58Z" transform="translate(260.92 213.54)" fill="#ffc82e"/><path d="M516.7,478.34a46.49,46.49,0,0,0-15.34,2.56,40.4,40.4,0,0,1,18.7-4.53c18.77,0,34,12.68,38.05,27.65C551.41,489.6,535.65,478.3,516.7,478.34Z" transform="translate(260.92 213.54)" fill="#ffe7d4" opacity="0.2"/><path d="M520.06,476.37a41.09,41.09,0,0,1,8.75.94,48.07,48.07,0,0,0-16.26-11.12c1.34,2.77,2.94,6.24,4.71,10.28C518.18,476.41,519.12,476.37,520.06,476.37ZM491.73,661.84c2.75.25,5.51.38,8.25.38,43.08,0,67.55-30.71,67.55-73.79,0-17.37-4-41-11.55-63a33.42,33.42,0,0,1-16.11,14.73c6.58,25,9.73,49.68,2.93,64.25a75.93,75.93,0,0,0-2-27c-.62-2.4-1.35-4.73-2.17-7a84.45,84.45,0,0,1,.76,29.92c-2.37,16.42-10.64,35.06-20,45.18a124.52,124.52,0,0,0,5-13.13C516.6,645.85,505.63,656,491.73,661.84Z" transform="translate(260.92 213.54)" opacity="0.1"/><path d="M520.06,476.37c22.62,0,40,18.43,39.11,37s-18.33,30.82-39.11,30.89-38.2-12.17-39.1-30.89S497.45,476.33,520.06,476.37Z" transform="translate(260.92 213.54)" fill="#ffc82e"/><path d="M516.7,478.34a46.49,46.49,0,0,0-15.34,2.56,40.4,40.4,0,0,1,18.7-4.53c18.77,0,34,12.68,38.05,27.65C551.41,489.6,535.65,478.3,516.7,478.34Z" transform="translate(260.92 213.54)" fill="#fff" opacity="0.6"/><path d="M434,622.82a124.49,124.49,0,0,0,4.62,14.45c-7.26-9-13.67-25.45-15.5-40a85.42,85.42,0,0,1,.58-26.48c-.63,2-1.2,4.08-1.68,6.2a76.45,76.45,0,0,0-1.58,23.88,47.56,47.56,0,0,1-3.14-30.81c2.52-11.13,23.09-43.48,27.53-52.32a22,22,0,0,1-6.88-5.18c-15.8,25.24-26.39,55-26.39,75.84,0,34.21,28.61,60.62,62,70C457.08,650.71,442.79,638.36,434,622.82Z" transform="translate(260.92 213.54)" fill="#fff" opacity="0.6"/><path d="M465.3,479.47a24.18,24.18,0,0,1,3.38,1.32,120.88,120.88,0,0,1,10.72-11.28A79.08,79.08,0,0,0,465.3,479.47Z" transform="translate(260.92 213.54)" fill="#fff" opacity="0.6"/><path d="M455.7,479.58a28.78,28.78,0,0,0-9.55,1.59,25.28,25.28,0,0,1,11.65-2.82c11.69,0,21.16,7.9,23.71,17.23A28.45,28.45,0,0,0,455.7,479.58Z" transform="translate(260.92 213.54)" fill="#fff" opacity="0.6"/><path d="M446,482.91c16.81,0,29.76,13.7,29.07,27.54s-13.63,22.91-29.07,23-28.4-9-29.07-23S429.23,482.88,446,482.91Z" transform="translate(260.92 213.54)" fill="#ffe7d4"/><path d="M442.32,483.14c-12.37,3.68-21,14.94-20.4,26.28.68,13.92,13.63,22.91,29.07,23a39.18,39.18,0,0,0,5.12-.36A37.11,37.11,0,0,1,446,533.41c-15.44,0-28.4-9-29.07-23C416.33,497.65,427.36,485,442.32,483.14Z" transform="translate(260.92 213.54)" fill="#e75400" opacity="0.2"/><path d="M523.82,481.32c22.61,0,40,18.42,39.11,37s-18.34,30.82-39.11,30.89-38.2-12.17-39.1-30.89S501.21,481.28,523.82,481.32Z" transform="translate(260.92 213.54)" fill="#ffe7d4"/><path d="M514.27,546.23c20.78-.07,38.21-12.89,39.11-32.73.49-10.37-4.09-20.69-11.83-28.15,13.31,6.44,22,19.69,21.38,33-.91,18.72-18.34,30.82-39.11,30.89a48.12,48.12,0,0,1-19.7-4.11A48.86,48.86,0,0,0,514.27,546.23Z" transform="translate(260.92 213.54)" fill="#e75400" opacity="0.2"/><path d="M501.89,503.69a11.17,11.17,0,0,0-.06,1.17,11.68,11.68,0,1,0,8.92-11.32,20.53,20.53,0,1,1-8.86,10.15Z" transform="translate(260.92 213.54)" fill="#51364d"/><path d="M533.07,530.07a3.1,3.1,0,1,1,3.11-3.1A3.1,3.1,0,0,1,533.07,530.07Z" transform="translate(260.92 213.54)" fill="#fff"/><circle cx="798.07" cy="743.61" r="0.97" fill="#fff"/><path d="M457.75,500.18l-.51-.11a5.25,5.25,0,1,0,4.4,6,5.1,5.1,0,0,0,0-1.23,9.3,9.3,0,1,1-3.93-4.64Z" transform="translate(260.92 213.54)" fill="#51364d"/><circle cx="720.53" cy="728.14" r="1.34" fill="#fff"/><path d="M461.36,516.36a.42.42,0,1,1,.42-.42A.42.42,0,0,1,461.36,516.36Z" transform="translate(260.92 213.54)" fill="#fff"/><path d="M495.2,547.54c.08,0,7.61,10.57-3.81,9.29-4.91-.55-27.41-12.7-27.41-12.7S483.4,543,495.2,547.54Z" transform="translate(260.92 213.54)" fill="#ff9e2e"/><path d="M470.91,547.78c-4-2.06-6.93-3.65-6.93-3.65s19.42-1.15,31.22,3.41C489.7,546.26,480.66,546.7,470.91,547.78Z" transform="translate(260.92 213.54)" opacity="0.1"/><path d="M490.78,555.27c6.42.72,6.85-2.3,6-5.08,1.43,3,2.31,7.5-5.36,6.64-2.61-.29-10.2-3.87-16.74-7.15C481.87,552.52,488.7,555,490.78,555.27Z" transform="translate(260.92 213.54)" opacity="0.1"/><path d="M449.05,526.18c5.71-4.62,14.19,14,24.31,9.11s21.78,12.28,21.84,12.25c-13.79-3.21-40.86,0-54.65,1.37C440.47,548.84,444.6,529.65,449.05,526.18Z" transform="translate(260.92 213.54)" fill="#ff9e2e"/><path d="M449.05,526.18c5.71-4.62,14.19,14,24.31,9.11,5.21-2.51,10.83.82,15.06,4.63-4.62-3-10.47-5.32-15-3.14-10.12,4.89-18-8.62-23.69-4-4.45,3.46-9.25,16.06-9.17,16.13C440.47,548.84,444.6,529.65,449.05,526.18Z" transform="translate(260.92 213.54)" fill="#fff" opacity="0.4"/><path d="M443.87,536.39c1.5-4.34,3.42-8.4,5.54-9.47,6.48-3.29,13.65,13.9,23.78,9,4.47-2.15,9.6-.09,13.94,2.88-4-3.31-9.07-5.79-13.77-3.53-10.12,4.89-18.6-13.73-24.31-9.11C447.17,527.65,445.34,531.93,443.87,536.39Z" transform="translate(260.92 213.54)" fill="#fff" opacity="0.2"/><path d="M480.14,537.88s1,1.15-.33,1.14a22.9,22.9,0,0,1-3.37-1.16A11,11,0,0,1,480.14,537.88Z" transform="translate(260.92 213.54)" opacity="0.2"/><path d="M213.49,630.37c-45.67,0-107,10.33-107,14s61.3,6.73,107,6.73,97.15-3,97.15-6.73S259.16,630.37,213.49,630.37Z" transform="translate(260.92 213.54)" opacity="0.1"/><path d="M172.2,595.61a15,15,0,0,1-5.15-.57,8,8,0,0,1-3.39-6.53,10.78,10.78,0,0,1,.09-1.78,10.21,10.21,0,0,0-.95,4.16,4.81,4.81,0,0,0,.75,2.53,14.73,14.73,0,0,1-1.24-.88,18.47,18.47,0,0,1-2.67-2.64,17.59,17.59,0,0,0,4.24,7.26,13,13,0,0,1-6.67-4.63,22.22,22.22,0,0,1-2-3.71,19.27,19.27,0,0,0,2.71,9.67,6.25,6.25,0,0,0,.69.85c-4.36-.59-8.09-2-10.52-4.62a28.21,28.21,0,0,1-3.32-4.37c1,4.95,2.78,9.13,5.45,12,1.85,2,4.74,2.91,8.19,3.06-7.79,2.89-14.59,6.64-16.66,10.75a15.7,15.7,0,0,0-1.3,9.74,24.36,24.36,0,0,1,1.65-4.23c2.88-5.71,12.16-11.25,21.81-15.56a13.67,13.67,0,0,0-4,4.76,15.67,15.67,0,0,0-.77,9.81,23.83,23.83,0,0,1,1.42-4.33c2-4.62,8-9.4,15-13.62Z" transform="translate(260.92 213.54)" fill="#ffc82e"/><polygon points="520.17 814.67 502.51 851.71 503.96 852.44 525.74 814.67 520.17 814.67" fill="#ff9e2e"/><polygon points="503.32 852.12 503.96 852.44 525.74 814.67 503.32 852.12" fill="#fff" opacity="0.4"/><polygon points="513.25 833.8 511.75 833.23 520.17 814.67 506.06 844.25 506.06 844.25 505.88 844.63 505.88 844.63 504.44 847.66 504.44 847.66 504.32 847.91 502.51 851.71 503.2 852.06 505.05 847.99 505.36 848.01 505.09 847.91 506.55 844.67 507.33 844.73 506.65 844.47 507.76 842.01 508.87 842.08 507.9 841.72 509.03 839.21 510.69 839.32 509.23 838.77 510.29 836.45 511.9 836.56 510.48 836.02 511.54 833.68 513.25 833.8" fill="#d04000" opacity="0.4"/><path d="M258,604.39c-5.23-1.86-12.06-.1-13.93,5.13-1.19,3.35-.81,9.43,1,13.86a7.13,7.13,0,0,0,11.09,2.93l.24-.21a26.83,26.83,0,0,0,6.62-9.82C264.85,611.05,263.2,606.26,258,604.39Z" transform="translate(260.92 213.54)" fill="#ffc82e"/><path d="M254,625.44l-.42.36a11.69,11.69,0,0,1-3.3,1.93,6.87,6.87,0,0,0,5.89-1.42l.24-.21a26.83,26.83,0,0,0,6.62-9.82,11.93,11.93,0,0,0,.74-4A46.14,46.14,0,0,1,254,625.44Z" transform="translate(260.92 213.54)" fill="#fff" opacity="0.6"/><path d="M258.86,642.72c-5.51-8-17.64-7.15-29.48-2.82a44.78,44.78,0,0,1,16.47.61,16.63,16.63,0,0,1-1.88,10.1,22.09,22.09,0,0,1-2.35,3.53c3.37-2.09,6-4.49,7.38-7.14a10.15,10.15,0,0,0,1.05-3,19.9,19.9,0,0,1,1.29,11.85,28,28,0,0,1-1.43,4.88c3.11-3.6,5.23-7.27,5.89-10.8a11.81,11.81,0,0,0,0-4.35,21.81,21.81,0,0,1,3.78,4.2,25.93,25.93,0,0,1,2.4,4.41C261.88,649.64,260.91,645.69,258.86,642.72Z" transform="translate(260.92 213.54)" fill="#ff9e2e"/><path d="M259.82,649.34a8.59,8.59,0,0,0-4-3.81,21.81,21.81,0,0,1,3.78,4.2,25.93,25.93,0,0,1,2.4,4.41C261.34,652.56,260.45,650.49,259.82,649.34Z" transform="translate(260.92 213.54)" fill="#d04000" opacity="0.4"/><path d="M249.91,660.68c.64-1.64,1.8-3.61,2.16-4.9a14.35,14.35,0,0,0-2-11.83,19.9,19.9,0,0,1,1.29,11.85A28,28,0,0,1,249.91,660.68Z" transform="translate(260.92 213.54)" fill="#d04000" opacity="0.4"/><path d="M244,650.61c1.77-3.34,3.57-7.37,3.13-10.74-4.92-1.24-11.79-.72-17.72,0a44.78,44.78,0,0,1,16.47.61A16.63,16.63,0,0,1,244,650.61Z" transform="translate(260.92 213.54)" fill="#d04000" opacity="0.4"/><path d="M258.86,642.72c-3.69-5.37-10.33-6.75-17.87-5.78,7.57.06,14.37,2.54,17.66,7.33a16.19,16.19,0,0,1,3.37,9.87C261.88,649.64,260.91,645.69,258.86,642.72Z" transform="translate(260.92 213.54)" fill="#fff" opacity="0.4"/><polygon points="449.8 815.69 432.13 852.73 433.58 853.46 455.36 815.69 449.8 815.69" fill="#ff9e2e"/><polygon points="432.95 853.13 433.58 853.46 455.36 815.69 432.95 853.13" fill="#fff" opacity="0.4"/><polygon points="442.88 834.82 441.37 834.25 449.8 815.69 435.69 845.26 435.69 845.26 435.51 845.64 435.51 845.64 434.06 848.68 434.06 848.68 433.94 848.93 432.13 852.73 432.83 853.08 434.67 849.01 434.99 849.03 434.71 848.92 436.18 845.69 436.96 845.74 436.27 845.48 437.39 843.02 438.49 843.1 437.52 842.73 438.66 840.23 440.32 840.34 438.86 839.79 439.91 837.47 441.52 837.58 440.11 837.04 441.17 834.7 442.88 834.82" fill="#d04000" opacity="0.4"/><path d="M158,643.73c5.52-8,17.65-7.14,29.49-2.81a44.77,44.77,0,0,0-16.47.61,16.65,16.65,0,0,0,1.88,10.1,22.55,22.55,0,0,0,2.35,3.53c-3.37-2.1-6-4.49-7.38-7.14a10.25,10.25,0,0,1-1-3,19.82,19.82,0,0,0-1.29,11.85,26.06,26.06,0,0,0,1.43,4.87c-3.11-3.59-5.23-7.26-5.9-10.79a12.07,12.07,0,0,1,0-4.36,21.85,21.85,0,0,0-3.78,4.21,24.9,24.9,0,0,0-2.4,4.41C154.94,650.66,155.91,646.7,158,643.73Z" transform="translate(260.92 213.54)" fill="#ff9e2e"/><path d="M157,650.35a8.63,8.63,0,0,1,4-3.81,21.85,21.85,0,0,0-3.78,4.21,24.9,24.9,0,0,0-2.4,4.41C155.47,653.58,156.36,651.51,157,650.35Z" transform="translate(260.92 213.54)" fill="#d04000" opacity="0.4"/><path d="M166.91,661.69c-.65-1.63-1.8-3.61-2.16-4.89a14.35,14.35,0,0,1,2-11.83,19.82,19.82,0,0,0-1.29,11.85A26.06,26.06,0,0,0,166.91,661.69Z" transform="translate(260.92 213.54)" fill="#d04000" opacity="0.4"/><path d="M172.85,651.63c-1.77-3.35-3.57-7.38-3.14-10.74,4.93-1.25,11.79-.72,17.73,0a44.77,44.77,0,0,0-16.47.61A16.65,16.65,0,0,0,172.85,651.63Z" transform="translate(260.92 213.54)" fill="#d04000" opacity="0.4"/><path d="M154.8,655.16a16.13,16.13,0,0,1,3.37-9.87c3.29-4.79,10.08-7.28,17.65-7.34-7.53-1-14.18.42-17.87,5.78C155.91,646.7,154.94,650.66,154.8,655.16Z" transform="translate(260.92 213.54)" fill="#fff" opacity="0.4"/><path d="M173.13,619.93a9.45,9.45,0,0,0,13.12,7.7l.39-.18a35.67,35.67,0,0,0,12-10.19c4.25-6,3.86-12.73-2.16-17s-15.39-4.43-19.64,1.59C174.08,605.73,172.4,613.63,173.13,619.93Z" transform="translate(260.92 213.54)" fill="#ffc82e"/><path d="M180.87,602.59a14.24,14.24,0,0,1,7.37-5.31c-4.43-.41-8.87,1-11.43,4.59-2.73,3.86-4.41,11.76-3.68,18.06a9.61,9.61,0,0,0,2.78,5.73C175.19,617.46,177.39,607.53,180.87,602.59Z" transform="translate(260.92 213.54)" opacity="0.1"/><path d="M200.44,604.84a19.25,19.25,0,0,1-3,8.53,45.94,45.94,0,0,1-14.69,14.07c-.16.09-.32.18-.49.26a11.08,11.08,0,0,1-1.32.59,9,9,0,0,0,5.33-.66l.39-.18a35.67,35.67,0,0,0,12-10.19C201.54,613.1,202.26,608.62,200.44,604.84Z" transform="translate(260.92 213.54)" fill="#fff" opacity="0.6"/><path d="M279.66,482.18A17.37,17.37,0,0,0,284,471.43c.56-11.19-9.91-22.29-23.5-22.26a24.39,24.39,0,0,0-7.22,1.07c-7.2-6.26-14.75-10.95-22.36-13.34a20.92,20.92,0,0,1,6.56-3,27.78,27.78,0,0,1,5.12-.86c-4.7-1.26-9-1.58-12.58-.61l-.4.12a41.27,41.27,0,0,1,6.22-8.75,44.61,44.61,0,0,1,6.76-5.92c-7.55,1.67-13.95,4.74-18.39,9.54a24.61,24.61,0,0,0-4.86,7.73h-.11A15.39,15.39,0,0,0,206,429.79c-5.43.34-11.68,2.79-18.25,6.67a43.67,43.67,0,0,1,7.71-1.22,28.45,28.45,0,0,1,12.91,2c-34.37,12.73-53.64,80.59-53.64,118.13,0,41.54,23.6,71.15,65.14,71.15s85.29-29.61,85.29-71.15C305.11,535.26,294.9,506.53,279.66,482.18Z" transform="translate(260.92 213.54)" fill="#ffc82e"/><path d="M203.7,449.15a44.82,44.82,0,0,1,14.79,2.47,39,39,0,0,0-18-4.36c-18.1,0-32.75,12.23-36.7,26.66C170.22,460,185.43,449.12,203.7,449.15Z" transform="translate(260.92 213.54)" fill="#ffe7d4" opacity="0.2"/><path d="M203.16,447.35c1.71-3.89,3.25-7.24,4.54-9.91A46.25,46.25,0,0,0,192,448.16a39.47,39.47,0,0,1,8.44-.9Q201.83,447.26,203.16,447.35ZM196.35,597.7a120,120,0,0,0,4.81,12.66c-9-9.76-17-27.73-19.3-43.56a81.35,81.35,0,0,1,.73-28.86,70.73,70.73,0,0,0-2.09,6.76,73,73,0,0,0-2,26c-6.56-14-3.52-37.88,2.83-62a32.15,32.15,0,0,1-15.54-14.2c-7.31,21.23-11.14,44-11.14,60.77,0,41.54,23.6,71.15,65.14,71.15,2.65,0,5.31-.12,8-.35C214.37,620.53,203.8,610.7,196.35,597.7Z" transform="translate(260.92 213.54)" fill="#fff" opacity="0.6"/><path d="M200.46,447.26c-21.81,0-38.61,17.77-37.72,35.72s17.68,29.73,37.72,29.79S237.3,501,238.17,483,222.26,447.22,200.46,447.26Z" transform="translate(260.92 213.54)" fill="#ffc82e"/><path d="M203.7,449.15a44.82,44.82,0,0,1,14.79,2.47,39,39,0,0,0-18-4.36c-18.1,0-32.75,12.23-36.7,26.66C170.22,460,185.43,449.12,203.7,449.15Z" transform="translate(260.92 213.54)" fill="#fff" opacity="0.6"/><g opacity="0.1"><path d="M283.46,588.49A115.71,115.71,0,0,1,279,602.42c7-8.63,13.19-24.53,15-38.54a82.18,82.18,0,0,0-.57-25.54c.62,1.94,1.16,3.94,1.63,6a73.74,73.74,0,0,1,1.52,23,45.8,45.8,0,0,0,3-29.71c-2.43-10.73-22.27-41.94-26.55-50.45a21.39,21.39,0,0,0,6.64-5c15.24,24.35,25.45,53.08,25.45,73.15,0,33-27.6,58.46-59.77,67.54C261.2,615.39,275,603.48,283.46,588.49Z" transform="translate(260.92 213.54)" opacity="0.6"/><path d="M253.27,450.25a22.48,22.48,0,0,0-3.26,1.27,116.05,116.05,0,0,0-10.34-10.88A76.07,76.07,0,0,1,253.27,450.25Z" transform="translate(260.92 213.54)" opacity="0.6"/></g><path d="M262.53,450.35a27.6,27.6,0,0,1,9.21,1.54,24.21,24.21,0,0,0-11.24-2.72c-11.27,0-20.4,7.62-22.86,16.61A27.47,27.47,0,0,1,262.53,450.35Z" transform="translate(260.92 213.54)" fill="#fff" opacity="0.6"/><path d="M271.84,453.57c-16.21,0-28.7,13.2-28,26.55s13.14,22.1,28,22.15,27.39-8.72,28-22.15S288.05,453.54,271.84,453.57Z" transform="translate(260.92 213.54)" fill="#ffe7d4"/><path d="M275.43,453.78c11.93,3.55,20.22,14.41,19.67,25.35-.65,13.42-13.14,22.1-28,22.14a36.22,36.22,0,0,1-4.93-.34,36.36,36.36,0,0,0,9.7,1.34c14.89,0,27.39-8.72,28-22.15C300.49,467.78,289.86,455.53,275.43,453.78Z" transform="translate(260.92 213.54)" fill="#e75400" opacity="0.2"/><path d="M196.83,452c-21.81,0-38.61,17.76-37.71,35.72s17.68,29.73,37.71,29.79,36.84-11.73,37.71-29.79S218.64,452,196.83,452Z" transform="translate(260.92 213.54)" fill="#ffe7d4"/><path d="M206,514.63c-20-.07-36.84-12.43-37.71-31.57-.47-10,3.94-19.95,11.4-27.14-12.83,6.21-21.25,19-20.61,31.83.87,18.06,17.68,29.73,37.71,29.79a46.18,46.18,0,0,0,19-4A46.18,46.18,0,0,1,206,514.63Z" transform="translate(260.92 213.54)" fill="#e75400" opacity="0.2"/><path d="M218,473.6c0,.37,0,.75,0,1.13a11.24,11.24,0,1,1-11.23-11.24,11.47,11.47,0,0,1,2.63.32A19.76,19.76,0,1,0,218,473.6Z" transform="translate(260.92 213.54)" fill="#51364d"/><path d="M187.91,499.05a3,3,0,1,0-3-3A3,3,0,0,0,187.91,499.05Z" transform="translate(260.92 213.54)" fill="#fff"/><circle cx="444.91" cy="712.59" r="0.93" fill="#fff"/><path d="M260.55,470.22a3.86,3.86,0,0,1,.49-.1,5.06,5.06,0,1,1-4.24,5.76,5.29,5.29,0,0,1,0-1.19,8.81,8.81,0,0,0-.49,4.55,8.92,8.92,0,1,0,7.48-10.16A8.62,8.62,0,0,0,260.55,470.22Z" transform="translate(260.92 213.54)" fill="#51364d"/><path d="M258.76,485.42a1.3,1.3,0,1,0-1.29-1.3A1.3,1.3,0,0,0,258.76,485.42Z" transform="translate(260.92 213.54)" fill="#fff"/><path d="M257.07,485.82a.41.41,0,0,0,0-.81.41.41,0,1,0,0,.81Z" transform="translate(260.92 213.54)" fill="#fff"/><path d="M224.44,515.9c-.08,0-7.35,10.19,3.67,9,4.74-.53,26.43-12.24,26.43-12.24S235.81,511.49,224.44,515.9Z" transform="translate(260.92 213.54)" fill="#ff9e2e"/><path d="M247.86,516.12c3.84-2,6.68-3.51,6.68-3.51s-18.73-1.12-30.1,3.29C229.74,514.66,238.45,515.08,247.86,516.12Z" transform="translate(260.92 213.54)" opacity="0.1"/><path d="M228.7,523.35c-6.2.69-6.61-2.22-5.77-4.9-1.37,2.93-2.22,7.23,5.18,6.4,2.52-.28,9.84-3.73,16.14-6.89C237.29,520.69,230.7,523.13,228.7,523.35Z" transform="translate(260.92 213.54)" opacity="0.1"/><path d="M268.94,495.29c-5.5-4.45-13.68,13.5-23.44,8.79s-21,11.84-21.06,11.82c13.3-3.1,39.4,0,52.7,1.31C277.22,517.15,273.23,498.64,268.94,495.29Z" transform="translate(260.92 213.54)" fill="#ff9e2e"/><path d="M268.94,495.29c-5.5-4.45-13.68,13.5-23.44,8.79-5-2.42-10.44.79-14.53,4.47,4.46-2.93,10.1-5.14,14.48-3,9.76,4.71,17.34-8.32,22.84-3.87,4.3,3.35,8.93,15.5,8.85,15.56C277.22,517.15,273.23,498.64,268.94,495.29Z" transform="translate(260.92 213.54)" fill="#fff" opacity="0.4"/><path d="M268.94,495.29c-5.5-4.45-13.68,13.5-23.44,8.79-4.53-2.18-9.38.21-13.28,3.4,4.18-2.87,9.13-4.85,13.44-2.77,9.77,4.71,16.69-11.88,22.93-8.71,2,1,3.9,4.95,5.35,9.14C272.52,500.84,270.76,496.71,268.94,495.29Z" transform="translate(260.92 213.54)" fill="#fff" opacity="0.2"/><path d="M239,506.58s-1,1.1.33,1.09a21.34,21.34,0,0,0,3.25-1.12A10.69,10.69,0,0,0,239,506.58Z" transform="translate(260.92 213.54)" opacity="0.2"/></svg>