<svg xmlns="http://www.w3.org/2000/svg" viewBox="0 0 523.5 679.08"><path d="M377.46,662.41c112.46,0,263.4,25.43,263.4,34.58s-150.94,16.56-263.4,16.56S138.25,706.14,138.25,697,265,662.41,377.46,662.41Z" transform="translate(-138.25 -60.46)" opacity="0.1"/><path d="M454.81,490.54a109.52,109.52,0,0,1,6.77,31c-3.39,14-11.31,25-25.53,30a50.82,50.82,0,0,1-8.88,2.23c8.36,1.37,16,1.24,22.09-.93a22,22,0,0,0,11-8.28q-.81,4.3-2,8.61a103.91,103.91,0,0,1-7.93,19.71c13-10.85,22.73-23,27.57-36.1.4,18.51-2.5,34.68-10.19,46.26a110,110,0,0,1-14.41,17.35c18.32-7.13,33.1-17.28,42.16-30.9a32.38,32.38,0,0,0,2.87-5.37c5.26,26.46,5.27,50.47-2.94,68.78a152.42,152.42,0,0,1-15.19,26.23c22.3-13.66,39.41-30.48,48.42-50.55,6.24-13.91,5.35-32.23-.36-52.69C556.87,597,587.84,631,611.75,636.74c17.58,4.22,34.43,1,50-7.5a112.55,112.55,0,0,1-23.73-3.1c-33.25-8-77.59-53.71-116.6-103.46,11,8.49,21.43,14.11,30.58,15.71,17.72,3.09,34.32-1.2,49.34-10.73a110.71,110.71,0,0,1-23.79-1.58c-26.3-4.6-60.69-32.05-94.37-66.52Z" transform="translate(-138.25 -60.46)" fill="#d03942"/><polygon points="126.54 529.96 170.04 621.16 166.47 622.95 112.83 529.96 126.54 529.96" fill="#787878"/><polygon points="168.03 622.16 166.47 622.95 112.83 529.96 168.03 622.16" fill="#fff" opacity="0.4"/><polygon points="143.58 577.05 147.28 575.66 126.54 529.96 161.28 602.78 161.28 602.78 161.72 603.72 161.72 603.72 165.29 611.19 165.29 611.19 165.58 611.81 170.04 621.16 168.33 622.02 163.78 612 163.01 612.05 163.69 611.8 160.07 603.83 158.16 603.96 159.84 603.33 157.09 597.27 154.38 597.46 156.77 596.55 153.97 590.38 149.88 590.66 153.48 589.3 150.88 583.59 146.92 583.86 150.41 582.54 147.79 576.77 143.58 577.05" opacity="0.4"/><path d="M260.41,577c12.87-4.59,29.71-.25,34.3,12.63,3,8.26,2,23.22-2.44,34.12S274.06,638.52,265,631l-.6-.52a65.9,65.9,0,0,1-16.3-24.17C243.48,593.43,247.53,581.64,260.41,577Z" transform="translate(-138.25 -60.46)" fill="#d03942"/><path d="M270.31,628.86c.34.31.69.6,1,.89a29,29,0,0,0,8.12,4.77A16.92,16.92,0,0,1,265,631l-.6-.52a65.9,65.9,0,0,1-16.3-24.17,29.44,29.44,0,0,1-1.82-9.93C251.76,607.47,260.5,620.06,270.31,628.86Z" transform="translate(-138.25 -60.46)" fill="#ffe7d4" opacity="0.2"/><path d="M265.74,692.81c13.58-19.75,43.44-17.59,72.6-6.92-14.62-1.85-28.42-1.58-40.55,1.5a40.88,40.88,0,0,0,4.63,24.87A56,56,0,0,0,308.2,721c-8.29-5.16-14.71-11.05-18.17-17.59a25,25,0,0,1-2.59-7.51A49,49,0,0,0,284.27,725a66.14,66.14,0,0,0,3.51,12c-7.64-8.85-12.88-17.88-14.5-26.59a29.27,29.27,0,0,1-.1-10.71,53.22,53.22,0,0,0-9.29,10.36A62.86,62.86,0,0,0,258,721C258.31,709.87,260.71,700.13,265.74,692.81Z" transform="translate(-138.25 -60.46)" fill="#787878"/><path d="M263.39,709.11a21.15,21.15,0,0,1,9.79-9.37,53.22,53.22,0,0,0-9.29,10.36A62.86,62.86,0,0,0,258,721C259.63,717.06,261.82,712,263.39,709.11Z" transform="translate(-138.25 -60.46)" opacity="0.4"/><path d="M287.78,737c-1.58-4-4.43-8.88-5.32-12.06-2-7.11-2.13-19.4,5-29.13A49,49,0,0,0,284.27,725,66.14,66.14,0,0,0,287.78,737Z" transform="translate(-138.25 -60.46)" opacity="0.4"/><path d="M302.42,712.26c-4.36-8.24-8.8-18.16-7.72-26.45,12.13-3.07,29-1.77,43.64.08-14.62-1.85-28.42-1.58-40.55,1.5A40.88,40.88,0,0,0,302.42,712.26Z" transform="translate(-138.25 -60.46)" opacity="0.4"/><path d="M258,721c.35-11.08,3.27-17,8.3-24.3,8.11-11.8,24.84-17.92,43.48-18.07-18.56-2.38-34.92,1-44,14.23C260.71,700.13,258.31,709.87,258,721Z" transform="translate(-138.25 -60.46)" fill="#fff" opacity="0.4"/><polygon points="299.83 532.46 343.32 623.66 339.75 625.46 286.12 532.46 299.83 532.46" fill="#787878"/><polygon points="341.32 624.67 339.75 625.46 286.12 532.46 341.32 624.67" fill="#fff" opacity="0.4"/><polygon points="316.87 579.56 320.57 578.16 299.83 532.46 334.56 605.29 334.56 605.29 335.01 606.22 335.01 606.22 338.57 613.7 338.57 613.7 338.87 614.31 343.32 623.66 341.61 624.52 337.06 614.5 336.29 614.56 336.97 614.3 333.36 606.34 331.44 606.47 333.13 605.83 330.38 599.77 327.66 599.96 330.05 599.05 327.25 592.88 323.17 593.16 326.76 591.8 324.17 586.09 320.2 586.36 323.69 585.04 321.07 579.27 316.87 579.56" opacity="0.4"/><path d="M514.21,695.32c-13.58-19.76-43.44-17.6-72.6-6.93,14.61-1.85,28.42-1.57,40.55,1.5a40.88,40.88,0,0,1-4.63,24.87,55.55,55.55,0,0,1-5.78,8.69c8.29-5.16,14.7-11.05,18.16-17.58a24.74,24.74,0,0,0,2.59-7.52,48.86,48.86,0,0,1,3.17,29.19,65.35,65.35,0,0,1-3.51,12c7.65-8.85,12.88-17.88,14.51-26.59a29.49,29.49,0,0,0,.1-10.71,53.51,53.51,0,0,1,9.29,10.36A62.15,62.15,0,0,1,522,723.45C521.63,712.37,519.24,702.63,514.21,695.32Z" transform="translate(-138.25 -60.46)" fill="#787878"/><path d="M516.55,711.62a21,21,0,0,0-9.78-9.38,53.51,53.51,0,0,1,9.29,10.36A62.15,62.15,0,0,1,522,723.45C520.32,719.56,518.12,714.47,516.55,711.62Z" transform="translate(-138.25 -60.46)" opacity="0.4"/><path d="M492.16,739.54c1.59-4,4.44-8.88,5.33-12.06,2-7.11,2.13-19.4-5-29.13a48.86,48.86,0,0,1,3.17,29.19A65.35,65.35,0,0,1,492.16,739.54Z" transform="translate(-138.25 -60.46)" opacity="0.4"/><path d="M477.53,714.76c4.36-8.24,8.79-18.16,7.72-26.44-12.13-3.07-29-1.78-43.64.07,14.61-1.85,28.42-1.57,40.55,1.5A40.88,40.88,0,0,1,477.53,714.76Z" transform="translate(-138.25 -60.46)" opacity="0.4"/><path d="M514.21,695.32c-9.08-13.21-25.44-16.61-44-14.24,18.64.16,35.37,6.28,43.48,18.07,5,7.32,7.94,13.22,8.29,24.3C521.63,712.37,519.24,702.63,514.21,695.32Z" transform="translate(-138.25 -60.46)" fill="#fff" opacity="0.4"/><path d="M467.57,615.31c-1.79,15.53-18,25.33-32.3,19q-.48-.21-1-.45c-11.74-5.8-23.49-16.63-29.46-25.08-10.46-14.83-9.5-31.34,5.32-41.8s37.9-10.92,48.36,3.9C465.24,580.33,469.37,599.8,467.57,615.31Z" transform="translate(-138.25 -60.46)" fill="#d03942"/><path d="M448.52,572.6a35,35,0,0,0-18.15-13.06c10.92-1,21.84,2.34,28.16,11.29,6.71,9.5,10.84,29,9,44.48a23.58,23.58,0,0,1-6.84,14.1C462.5,609.23,457.1,584.76,448.52,572.6Z" transform="translate(-138.25 -60.46)" opacity="0.3"/><path d="M400.33,578.14a47.79,47.79,0,0,0,7.43,21c7.08,11.37,21.44,26.25,36.18,34.63l1.2.66a31,31,0,0,0,3.25,1.44,22.24,22.24,0,0,1-13.12-1.62q-.48-.21-1-.45c-11.74-5.8-23.49-16.63-29.46-25.08C397.62,598.49,395.85,587.44,400.33,578.14Z" transform="translate(-138.25 -60.46)" fill="#ffe7d4" opacity="0.2"/><path d="M395.92,168.45c9.21-3.85,19.76-5.61,31.79-4.84a109.45,109.45,0,0,1,19,3c-16.18-9.56-31.57-15.58-44.93-16.42a46.34,46.34,0,0,0-10.18.43c38.22-23.1,87-26.36,127.48-4.4a116.53,116.53,0,0,1,25.41,18.58,119.53,119.53,0,0,0-141.25-41.73,234.81,234.81,0,0,1,54-43.87,119.52,119.52,0,0,0-122.78,58,124.78,124.78,0,0,1,47.52-62.64A117,117,0,0,1,410.1,60.46a119.53,119.53,0,0,0-102.39,123,202.3,202.3,0,0,0-22.5,17.08,59.89,59.89,0,0,0-17.78-2.65c-33.46-.06-59.23,27.26-57.86,54.8a42.77,42.77,0,0,0,10.69,26.49c-37.53,59.94-62.67,130.69-62.67,180.11,0,102.28,107.72,175.2,210,175.2S528,561.59,528,459.31C528,366.88,480.54,199.79,395.92,168.45Z" transform="translate(-138.25 -60.46)" fill="#d03942"/><path d="M495.37,212.65c-3.22-15.22-99.69-28.75-139.64-28.13-41.54.65-113.11,13.15-119.72,19.77-11.42,11.44-27.32,30.67-26.44,48.42a42.77,42.77,0,0,0,10.69,26.49c-23.21,37.07-41.67,78.27-52.39,116,101.21,17.88,128.54,83.74,128.54,83.74s22.31-65.73,216.24-128.81C509.11,336.31,505.12,258.72,495.37,212.65Z" transform="translate(-138.25 -60.46)" fill="#5a5a5a"/><path d="M495.37,212.65c-2.53-12-62.64-22.88-107.65-26.7,42.48,6.44,92.79,20.7,96.44,34.91,6,23.55,15.94,63.33,24.71,98.76C505.9,289.1,501.94,243.71,495.37,212.65Z" transform="translate(-138.25 -60.46)" opacity="0.2"/><path d="M236,204.29a137,137,0,0,0-15.21,17.89c8.85-5.21,16.79-9.51,22.14-12.28,7.08-3.68,52.25-17.12,94.55-24.51C296,188.44,241.73,198.57,236,204.29Z" transform="translate(-138.25 -60.46)" fill="#ffe7d4" opacity="0.2"/><path d="M213.22,525.14c.38,5.33,2.58,11.24,5.85,16.53,4.65,8,11.74,14.47,11.74,14.56a77.49,77.49,0,0,0,14.24-11.42,63.09,63.09,0,0,0,7.36,12c7.83,10.63,18.91,18.82,18.91,18.94a126.12,126.12,0,0,0,12.24-11.07,58.68,58.68,0,0,0,10.58,16.76c8.49,10.11,20.08,17.58,20.08,17.69,0-.11,10.53-9,17.67-20.11a60.66,60.66,0,0,0,7-13.75A126.72,126.72,0,0,0,351,576.16c0-.12,11.08-8.3,18.92-18.93a65,65,0,0,0,6.11-9.48,51.26,51.26,0,0,0,4.67,7.18c6.22,8.43,15,14.94,15,15,0-.09,8.8-6.6,15-15,4.32-5.58,7.52-12,8.59-17.95a41.91,41.91,0,0,1-8.24,14.81c-6.4,8.1-15.48,14.32-15.35,14.32s-9-6.22-15.36-14.32a44.07,44.07,0,0,1-3.76-5.16,45,45,0,0,0,4.13-12,45.45,45.45,0,0,1-4.85,10.88c-.16.3-.35.61-.54.91a63.41,63.41,0,0,1-5,6.88c-8.07,10.19-19.52,18-19.36,18a133.16,133.16,0,0,1-11.05-9.12l-.48-.48a79.89,79.89,0,0,1-7.82-8.43,59.29,59.29,0,0,1-7.18-10.73,82.52,82.52,0,0,0,7.52-8.74c5.45-7,9.48-15.1,10.83-22.62a53,53,0,0,1-10.39,18.68,84.18,84.18,0,0,1-9.32,9.83c-.14.13-.28.26-.43.38-5.23,4.71-9.6,7.75-9.6,7.82a128.33,128.33,0,0,1-12.67-10.69l-.24-.23a79.58,79.58,0,0,1-6.44-7.11,53.11,53.11,0,0,1-10.38-18.68c1.36,7.52,5.38,15.6,10.82,22.62,1.54,2.09,3.19,4.07,4.87,5.93a57,57,0,0,1-8.34,13.14,79.08,79.08,0,0,1-8,8.64,1.29,1.29,0,0,1-.17.16,129.5,129.5,0,0,1-11.16,9.24c.16,0-11.28-7.84-19.35-18A59.39,59.39,0,0,1,245.8,544a37.26,37.26,0,0,0,8.76-14.45,36.84,36.84,0,0,1-8.6,12.2c-.29.31-.6.6-.9.9l-.68.64a80.61,80.61,0,0,1-13.21,9.58c.11,0-7.26-6.29-12.12-14A37.12,37.12,0,0,1,213.22,525.14Zm70.72,39.17a82.36,82.36,0,0,0,6.31-7.48,60,60,0,0,0,9.22-16.6,125.2,125.2,0,0,0,13.59,12.52,130.68,130.68,0,0,0,10.76-9.56,61.34,61.34,0,0,0,8.25,14,81.83,81.83,0,0,0,6.18,7.35,59.8,59.8,0,0,1-6.18,10.49c-7.39,10.69-18.31,19.25-18.15,19.25s-11.77-7.11-20.47-16.77A57.26,57.26,0,0,1,283.94,564.31Z" transform="translate(-138.25 -60.46)" fill="#ffe7d4" opacity="0.2"/><path d="M285.18,563c-.41.46-.83.91-1.24,1.35.4.79.85,1.58,1.3,2.37,1.05-1.28,2.09-2.61,3.07-4a57.7,57.7,0,0,0,8.84-16.9c-.07.15-.15.3-.23.45l-.33.66c-.3.6-.62,1.19-.94,1.78,0,.08-.1.16-.14.24-.31.55-.63,1.1-1,1.64-.09.16-.19.31-.28.46-.38.61-.76,1.22-1.16,1.82l-.06.09c-.38.58-.77,1.14-1.17,1.7l-.33.46c-.43.59-.86,1.17-1.3,1.75s-1,1.37-1.57,2l-.52.63c-.38.46-.75.92-1.14,1.37l-.41.48c-.44.51-.89,1-1.33,1.5Zm39.87-17c-.44-.91-.85-1.82-1.23-2.74a130.68,130.68,0,0,1-10.76,9.56l-.07-.07,0,0-.17-.15-.87-.7-.06,0-.48-.38-.14-.12c-.18-.15-.37-.31-.58-.47l-.25-.22-.49-.41-.39-.33-.54-.45-.34-.29-.76-.67-.29-.25-.66-.59-.3-.27-.93-.85-.24-.22c-.32-.3-.65-.6-1-.92l-.06-.06-1.16-1.11-.07-.07c-1.22-1.19-2.47-2.48-3.72-3.84-.42,1.19-.9,2.39-1.42,3.58.37.46.74.92,1.12,1.36A114.87,114.87,0,0,0,312.45,558a119.39,119.39,0,0,0,11.71-11.09,58.58,58.58,0,0,0,8.59,16.13c1.2,1.71,2.49,3.34,3.8,4.9.61-1.13,1.18-2.26,1.7-3.39l-.47-.51c-.29-.31-.58-.62-.86-.94l-.44-.49c-1.52-1.71-3-3.52-4.41-5.41-.4-.52-.8-1.05-1.18-1.58l-.23-.31c-.31-.43-.61-.86-.91-1.3l-.26-.38c-.29-.43-.57-.85-.84-1.28l-.25-.39c-.3-.47-.59-1-.88-1.44l-.13-.21c-.31-.53-.61-1.06-.9-1.6-.13-.22-.24-.44-.36-.66l-.48-.93-.42-.84-.18-.37ZM297.4,543c.59-1.09,1.13-2.19,1.62-3.29-.41-.45-.81-.91-1.22-1.38l-.09-.11c-.37-.42-.73-.85-1.1-1.29a1.34,1.34,0,0,0-.11-.14c-.36-.43-.71-.87-1.06-1.32l-.25-.32c-.35-.45-.7-.91-1-1.37-.48-.62-.95-1.25-1.4-1.89l-.3-.42c-.45-.62-.88-1.25-1.3-1.89-.07-.1-.13-.21-.2-.32-.37-.56-.73-1.14-1.08-1.71l-.24-.41c-.38-.63-.74-1.27-1.1-1.92l-.25-.47c-.32-.6-.63-1.19-.92-1.79,0-.09-.09-.17-.13-.25-.32-.66-.61-1.32-.9-2l-.21-.49c-.29-.67-.56-1.33-.81-2a1.59,1.59,0,0,0-.07-.2c-.24-.64-.45-1.29-.66-1.93,0-.07-.05-.14-.07-.21.9,7.78,4.84,16.36,10.33,23.73C295.66,540.82,296.52,541.94,297.4,543Zm32.65-3.37a57.93,57.93,0,0,0,8.83-16.88,61,61,0,0,1-3.12,5.61,64.29,64.29,0,0,1-3.79,5.42c-.56.77-1.15,1.53-1.75,2.28l-.08.09c-.58.73-1.17,1.43-1.77,2.12l-.15.18c-.57.65-1.14,1.29-1.71,1.91l-.3.32c-.5.54-1,1.07-1.5,1.58-.09.08-.17.18-.26.26.43.84.89,1.67,1.37,2.49C327.28,543.35,328.71,541.55,330.05,539.66ZM213.69,528.51c.06,5.49,2.15,11.74,5.43,17.28A72.11,72.11,0,0,0,230,559.86a72.94,72.94,0,0,0,13.6-11.47c.38-.4.75-.82,1.12-1.24a58.6,58.6,0,0,0,8.38,15.53c7.29,10.31,17.61,18.26,17.61,18.37a116,116,0,0,0,13.54-13.17,55.24,55.24,0,0,0,10.95,19.38c7.93,9.82,18.74,17.1,18.74,17.21,0-.12,9.79-8.71,16.39-19.47a58.62,58.62,0,0,0,7.3-15.77,118.26,118.26,0,0,0,12.73,12.22c0-.11,10.31-8.06,17.61-18.38a59.71,59.71,0,0,0,7.56-13.36,48,48,0,0,0,5.69,9.86c5.79,8.18,14,14.49,14,14.58,0-.09,8.18-6.4,14-14.58a46.15,46.15,0,0,0,7-13.39,50.62,50.62,0,0,1-5.48,8.75c-.19.27-.39.53-.59.79l0,0c-.19.24-.37.49-.57.73l0,0-.57.71a2.09,2.09,0,0,0-.14.17c-.16.19-.32.39-.49.58l-.18.21-.45.52-.23.27-.4.45-.28.3-.36.39-.35.38-.28.3-.41.43-.23.24-.45.45-.18.19-.44.44-.19.19-.46.45-.15.15-.53.51-.08.07-.52.49-.08.08-.54.5,0,0c-.18.18-.37.34-.55.51h0l-1.06.95h0l-.48.42,0,0-.44.38-.05,0-.39.33-.07.06L398,568l-.13.1-.21.18-.2.17-.1.08c-1.05.87-1.69,1.36-1.69,1.38s-1.89-1.46-4.54-3.81l0,0-.45-.4a.52.52,0,0,1-.11-.1l-.38-.34-.2-.18-.34-.32a2.73,2.73,0,0,1-.25-.23l-.29-.27-.32-.3-.24-.23-.37-.36-.23-.22-.39-.38-.2-.21-.43-.43-.15-.15-.49-.49-.13-.14-.51-.53-.07-.08-.57-.61,0,0a61.31,61.31,0,0,1-4.31-5.18c-.43-.56-.85-1.12-1.26-1.69-.15-.21-.29-.43-.43-.64-.26-.38-.53-.75-.77-1.13l-.31-.49c-.28-.44-.56-.87-.82-1.31l-.32-.57c-.2-.35-.41-.7-.6-1.05a1.14,1.14,0,0,1-.1-.19l-.06-.11-.18.33c-.18.34-.36.69-.56,1l-.28.48-.65,1.12c-.25.42-.51.83-.77,1.24s-.39.63-.6.95c-.32.5-.66,1-1,1.48l-.48.69q-.78,1.09-1.59,2.16C362.06,567.86,351,576,351,576.16l-.06-.06,0,0-1.7-1.37-.14-.12-.37-.3-.52-.43-.28-.23-.43-.37-.28-.24-.74-.63-.11-.1-.75-.65-.2-.18q-.9-.8-1.89-1.71l-.12-.11c-.69-.64-1.4-1.31-2.13-2l0,0c-.75-.73-1.52-1.5-2.29-2.3-.44,1.25-.93,2.49-1.48,3.73h0c0,.1-.09.2-.14.3-.3.67-.61,1.34-.94,2l-.21.41c-.4.79-.8,1.58-1.24,2.35l0,0c-.4.72-.83,1.44-1.26,2.16l-.36.58c-.45.72-.91,1.44-1.39,2.15a97.67,97.67,0,0,1-13.36,16l0,0-.47.46-.12.11-.36.35-.2.19-.21.2-.33.32,0,0c-1.58,1.49-2.57,2.35-2.57,2.39s-11.59-7.58-20.08-17.69c-.52-.59-1-1.2-1.54-1.81l-.54-.68c-.31-.39-.63-.78-.93-1.18s-.4-.53-.59-.8-.55-.75-.82-1.12-.39-.55-.57-.83-.53-.78-.78-1.17-.35-.53-.51-.79c-.28-.45-.55-.9-.82-1.35l-.38-.64c-.37-.65-.73-1.3-1.07-2-.12-.23-.22-.46-.34-.68-.18-.37-.37-.74-.54-1.1h0c-.41-.88-.8-1.76-1.15-2.64l-.08.08h0c-.66.68-1.31,1.34-2,2l-.33.32-.27.27c-5.2,5.07-9.6,8.34-9.6,8.41,0-.12-11.08-8.31-18.91-18.94l-1-1.4-.18-.26c-.28-.38-.55-.76-.82-1.15l-.24-.35c-.25-.36-.49-.71-.72-1.07-.1-.14-.19-.29-.28-.43l-.63-1c-.11-.17-.21-.34-.31-.51s-.36-.6-.54-.9l-.36-.62-.42-.76c-.14-.26-.29-.53-.42-.79l-.27-.5c-.18-.35-.36-.7-.53-1.05h0l0-.08c-.19-.38-.37-.76-.55-1.14a73.88,73.88,0,0,1-13.54,11c-.46.3-.72.46-.7.46s-.95-.93-2.38-2.43l-.05-.06-.7-.74-.09-.1-.77-.84a.43.43,0,0,0-.09-.1l-.83-1-.08-.09-.93-1.1,0,0a59.89,59.89,0,0,1-5.8-8.13c-.37-.6-.72-1.2-1.06-1.81l-.36-.68c-.21-.39-.41-.78-.61-1.18s-.26-.52-.38-.78-.35-.76-.52-1.14-.23-.52-.34-.78c-.22-.52-.42-1-.61-1.56-.12-.31-.22-.62-.33-.94s-.26-.78-.38-1.17l-.26-.92c-.09-.31-.17-.63-.25-1s-.15-.65-.22-1Z" transform="translate(-138.25 -60.46)" opacity="0.1"/><g opacity="0.4"><path d="M388.31,478.93c4.59,4,4.29,12.14.3,17.34s-10.11,5.84-14.45,2.23-5.43-10.34-1.65-15.94S383.74,474.93,388.31,478.93Z" transform="translate(-138.25 -60.46)" opacity="0.3"/><path d="M420.19,521.54c1.8,1.29,1.86,4.2.47,6.12a3.74,3.74,0,0,1-5.32,1.06,4,4,0,0,1-.92-5.52C415.68,521.17,418.4,520.24,420.19,521.54Z" transform="translate(-138.25 -60.46)" opacity="0.3"/><path d="M360.16,451.5c1.95-2.68,5.64-3.58,7.79-1.47s1.81,6.23-.29,8.73-5.09,2.63-7.11.72A6.06,6.06,0,0,1,360.16,451.5Z" transform="translate(-138.25 -60.46)" opacity="0.3"/><path d="M392.35,454.62c2.45-3.24,7.12-4.32,9.84-1.78s2.33,7.47-.3,10.49-6.42,3.19-9,.89A7,7,0,0,1,392.35,454.62Z" transform="translate(-138.25 -60.46)" opacity="0.3"/><path d="M427.39,451a3.42,3.42,0,0,1-.21-4.86c1.33-1.62,3.83-2.13,5.27-.82s1.19,3.84-.25,5.35A3.38,3.38,0,0,1,427.39,451Z" transform="translate(-138.25 -60.46)" opacity="0.3"/><path d="M429.16,436.12a2.11,2.11,0,0,1-.06-3,2.34,2.34,0,0,1,3.26-.44,2.38,2.38,0,0,1-.22,3.3A2.08,2.08,0,0,1,429.16,436.12Z" transform="translate(-138.25 -60.46)" opacity="0.3"/><path d="M415,477.68c2.78-3.81,8.27-5.21,11.61-2.42s3.07,8.42.09,12-7.47,3.92-10.62,1.41S412.18,481.5,415,477.68Z" transform="translate(-138.25 -60.46)" opacity="0.3"/></g><path d="M418.76,189.43c4.39.6,8.78,1.26,13.1,2-10.55-9.78-21.91-17.4-34.05-22.22A149.67,149.67,0,0,1,418.76,189.43Zm81.81,120.25a72.06,72.06,0,0,1-15.08,19.67c12.12,44.63,18.44,89.55,18.44,124.24,0,103-55.58,177-153.68,180.22q8.67.69,17.35.7c102.28,0,160.4-72.92,160.4-175.2C528,418.06,518.55,362,500.57,309.68Z" transform="translate(-138.25 -60.46)" opacity="0.1"/><path d="M431.85,191.38c-10.65-9.87-22.13-17.54-34.41-22.35,2.53,5.24,5.47,11.58,8.68,18.78C414.66,188.82,423.38,190,431.85,191.38Zm68.72,118.3c-7.9,15.28-21.43,27.25-38.27,35,15.63,59.3,23.11,118,7,152.57a180,180,0,0,0-4.83-64.08q-2.21-8.53-5.16-16.64c4.72,21.44,5.43,45.84,1.8,71.06-5.62,39-25.27,83.24-47.53,107.26a295.86,295.86,0,0,0,11.84-31.16c-18.32,32-44.37,56.2-77.38,70,6.53.58,13.08.88,19.6.88,102.28,0,160.4-72.92,160.4-175.2C528,418.06,518.55,362,500.57,309.68Z" transform="translate(-138.25 -60.46)" opacity="0.1"/><path d="M298.78,189.68c2.67-.39,5.36-.75,8.05-1.1,3.92-4.09,7.88-8,11.89-11.66A168.23,168.23,0,0,0,298.78,189.68ZM210.9,541a287.75,287.75,0,0,0,11,34.31C204.62,554,189.4,514.85,185,480.35c-2.81-22.3-2.26-43.9,1.4-62.87q-2.28,7.17-4,14.72a181.07,181.07,0,0,0-3.74,56.71c-10.08-21-13.37-47.1-7.47-73.17,6-26.41,20.22-47.63,38.26-60.36a535.33,535.33,0,0,1,27.11-63.86,52.17,52.17,0,0,1-16.34-12.32c-37.52,59.94-62.67,130.69-62.67,180.11,0,81.24,67.95,143.94,147.16,166.31C265.71,607.2,231.78,577.87,210.9,541Z" transform="translate(-138.25 -60.46)" fill="#ffe7d4" opacity="0.2"/><path d="M239.5,208.74c39.91-.07,70.67,32.52,69,65.39-1.59,33.05-32.36,54.41-69,54.52-36.67-.11-67.43-21.47-69-54.52C168.83,241.26,199.59,208.67,239.5,208.74Z" transform="translate(-138.25 -60.46)" fill="#ffe7d4"/><path d="M230.66,209.27c-29.37,8.74-49.77,35.48-48.43,62.41,1.6,33.05,32.36,54.41,69,54.52a91.3,91.3,0,0,0,12.14-.85,88.5,88.5,0,0,1-23.9,3.3c-36.67-.11-67.43-21.47-69-54.52C169,243.73,195.14,213.58,230.66,209.27Z" transform="translate(-138.25 -60.46)" fill="#e75400" opacity="0.2"/><path d="M273.67,270.4l-.69-.14a7,7,0,1,0,5.84,7.93,7.54,7.54,0,0,0,.05-1.64,12.26,12.26,0,1,1-5.2-6.15Z" transform="translate(-138.25 -60.46)" fill="#51364d"/><path d="M274.52,293.54a3.19,3.19,0,1,1,3.18-3.19A3.19,3.19,0,0,1,274.52,293.54Z" transform="translate(-138.25 -60.46)" fill="#fff"/><path d="M278.7,294.53a1,1,0,1,1,1-1A1,1,0,0,1,278.7,294.53Z" transform="translate(-138.25 -60.46)" fill="#fff"/><path d="M424.2,204.94c53.7-.09,95.07,43.75,92.86,88-2.14,44.46-43.53,73.2-92.86,73.35-49.32-.15-90.71-28.89-92.86-73.35C329.14,248.69,370.51,204.85,424.2,204.94Z" transform="translate(-138.25 -60.46)" fill="#ffe7d4"/><path d="M401.53,359.09c49.32-.16,90.71-30.61,92.86-77.73,1.16-24.62-9.72-49.12-28.08-66.83,31.6,15.3,52.33,46.74,50.75,78.38-2.14,44.46-43.53,73.2-92.86,73.35a114,114,0,0,1-46.78-9.77A114.61,114.61,0,0,0,401.53,359.09Z" transform="translate(-138.25 -60.46)" fill="#e75400" opacity="0.2"/><path d="M390.05,266.78c-.05.51-.08,1-.08,1.55a15.44,15.44,0,1,0,15.44-15.44,15.93,15.93,0,0,0-3.61.44,27.17,27.17,0,1,1-11.75,13.45Z" transform="translate(-138.25 -60.46)" fill="#51364d"/><circle cx="296.47" cy="234.04" r="7.37" fill="#fff"/><path d="M444.38,304.16a2.3,2.3,0,1,1,2.3-2.3A2.3,2.3,0,0,1,444.38,304.16Z" transform="translate(-138.25 -60.46)" fill="#fff"/><path d="M353,363.55c.34.15,32.94,39.77-16.46,35C315.31,396.45,218,350.71,218,350.71S302,346.36,353,363.55Z" transform="translate(-138.25 -60.46)" fill="#d03942"/><path d="M240.42,350.22c-13.63,0-22.44.49-22.44.49s12.46,5.86,29.44,13.47c41.18-3.87,79.16-5.35,102.47-.63C316.61,352.34,269.31,350.29,240.42,350.22Z" transform="translate(-138.25 -60.46)" opacity="0.1"/><path d="M333.91,392.65c27.79,2.7,29.63-8.66,25.86-19.14,6.18,11.44,10,28.23-23.19,25-11.32-1.11-44.17-14.57-72.43-26.93C295.37,382.28,325,391.77,333.91,392.65Z" transform="translate(-138.25 -60.46)" opacity="0.1"/><path d="M291,299.57c-25.21.75-106.08,68.87-105.82,69.13,42.38-5.25,125.53-17.23,167.91-5.15C352.86,363.66,313.48,298.9,291,299.57Z" transform="translate(-138.25 -60.46)" fill="#d03942"/><path d="M293.12,312.86c13.58,0,27.6,9.79,39.24,21-13-16.9-29.55-34.67-41.41-34.32-25.21.75-106.08,68.87-105.82,69.13C184.87,368.44,267.9,312.86,293.12,312.86Z" transform="translate(-138.25 -60.46)" fill="#ffe7d4" opacity="0.2"/><path d="M309.92,343.42s3.14,4.33-1,4.28c-1.79,0-10.36-4.37-10.36-4.37S305.5,341.94,309.92,343.42Z" transform="translate(-138.25 -60.46)" opacity="0.2"/><path d="M307.71,183.48q4.82-3.12,9.67-5.81c.37-40.36,18.78-79.74,52.29-103.2,1.15-.81,2.31-1.58,3.48-2.34a122.47,122.47,0,0,0-10.67,6.11A119.41,119.41,0,0,0,307.71,183.48Zm226.08-31.61a118.82,118.82,0,0,1,7.92,10.37c.93.84,1.85,1.69,2.75,2.56A119.06,119.06,0,0,0,533.79,151.87Z" transform="translate(-138.25 -60.46)" fill="#ffe7d4" opacity="0.2"/><path d="M422,137.08c31.73-9.61,66.74-7.31,97,9.14a117.87,117.87,0,0,1,16.19,10.59A112.92,112.92,0,0,0,518.88,145C488.59,127.12,453.38,125.37,422,137.08Z" transform="translate(-138.25 -60.46)" opacity="0.1"/></svg>